<svg width="1440" height="593" viewBox="0 0 1440 593" fill="none" xmlns="http://www.w3.org/2000/svg">
<g clip-path="url(#clip0_298_835)">
<path d="M1039.17 117.902C1041 117.356 1042.98 117.05 1044.83 116.978C1046.61 116.908 1048.61 117.042 1050.34 117.636C1052.65 118.425 1054.58 119.772 1056.34 121.297C1058.07 122.797 1059.85 124.677 1061.75 126.688C1066.05 131.245 1069.28 137.991 1070.81 143.563C1071.19 144.961 1072.78 150.398 1075.12 157.695C1076.26 161.253 1077.12 162.364 1078.42 164.512C1078.4 164.49 1078.45 164.564 1078.64 164.734C1078.87 164.942 1079.18 165.191 1079.62 165.506C1080.14 165.888 1080.42 166.07 1081.05 166.519C1081.54 166.873 1082.15 167.322 1082.71 167.825C1083.92 168.917 1084.42 170.31 1084.66 171.097C1084.92 172.003 1085.06 172.94 1085.14 173.739C1085.33 175.781 1084.43 177.335 1083.62 178.272C1082.87 179.132 1081.97 179.739 1081.37 180.113C1080.79 180.482 1080.02 180.911 1079.6 181.156C1079.07 181.465 1078.74 181.682 1078.52 181.861C1077.05 183.024 1075.17 183.774 1073.29 184.439C1071.33 185.129 1068.62 185.969 1065.24 187.074C1060.4 188.656 1056.99 189.262 1054.35 189.353C1051.69 189.445 1049.83 188.971 1049.17 188.867C1047.63 188.621 1045.91 187.852 1044.54 187.105C1043.06 186.3 1041.45 185.225 1040.09 183.999C1038.92 182.942 1037.16 181.098 1036.69 178.657C1036.41 177.223 1036.58 175.589 1037.53 174.098C1038.41 172.709 1039.69 171.863 1040.87 171.338C1041.45 171.079 1041.76 170.947 1042.15 170.73C1042.5 170.534 1042.95 170.248 1043.54 169.759C1043.8 169.54 1044.07 169.147 1044.32 168.569C1044.33 168.533 1044.36 168.372 1044.37 168.033C1044.38 167.55 1044.33 166.934 1044.22 166.168C1044.11 165.38 1043.98 164.656 1043.84 163.785C1043.71 163.032 1043.56 162.04 1043.54 161.13C1043.44 157.058 1041.73 150.94 1040.97 147.856C1040.66 146.613 1040.16 145.776 1038.82 143.778C1037.54 141.866 1035.32 138.886 1033.71 135.893C1032.08 132.86 1030.54 128.93 1031.09 124.67L1031.14 124.357C1031.69 121.177 1034.1 119.647 1035.64 118.978C1036.44 118.632 1037.23 118.408 1037.81 118.256C1038.53 118.066 1038.79 118.014 1039.17 117.902ZM1045.18 125.971C1044.03 126.015 1042.8 126.212 1041.73 126.529C1041.42 126.622 1041.1 126.704 1040.84 126.77C1040.55 126.844 1040.35 126.895 1040.11 126.958C1040.07 126.968 1040.03 126.979 1040 126.989C1040.12 128.253 1040.64 129.778 1041.63 131.624C1042.98 134.114 1044.64 136.285 1046.3 138.771C1047.59 140.701 1048.97 142.735 1049.71 145.697C1050.3 148.096 1052.4 155.567 1052.53 160.91C1052.54 161.113 1052.59 161.525 1052.72 162.327C1052.83 163.013 1053.01 164 1053.14 164.941C1053.36 166.6 1053.7 169.534 1052.61 172.067C1052.09 173.296 1051.11 175.159 1049.3 176.671C1048.54 177.306 1047.84 177.796 1047.22 178.187C1047.73 178.548 1048.29 178.897 1048.84 179.201C1049.94 179.797 1050.56 179.973 1050.58 179.978C1051.99 180.201 1052.52 180.412 1054.04 180.359C1055.57 180.306 1058.11 179.936 1062.44 178.52C1066.05 177.342 1068.46 176.597 1070.29 175.951C1072.19 175.28 1072.76 174.942 1072.91 174.819C1073.66 174.224 1074.45 173.743 1075.06 173.389C1075.08 173.376 1075.1 173.364 1075.12 173.352C1074.89 173.191 1074.63 173.007 1074.33 172.791C1073.39 172.111 1071.76 170.892 1070.74 169.203C1069.51 167.165 1068.07 165.186 1066.55 160.444C1064.18 153.065 1062.56 147.502 1062.13 145.95C1060.87 141.375 1058.24 136.075 1055.21 132.868C1053.23 130.78 1051.77 129.246 1050.44 128.093C1049.14 126.964 1048.21 126.419 1047.43 126.15C1047.16 126.06 1046.4 125.923 1045.18 125.971Z" fill="#FD5624"/>
<path d="M1079.34 122.58C1088.99 116.77 1099.62 118.089 1102.86 118.575C1113.2 120.128 1121.39 124.642 1129.67 128.968C1132.7 130.551 1134.61 129.95 1142.19 128.898C1150.57 127.736 1155.98 131.529 1160.61 134.069C1166.89 137.517 1173.69 142.939 1179.35 147.529C1186.37 153.211 1191.53 161.218 1195.84 167.927C1202.96 179.007 1211.19 193.415 1214.89 206.672C1217.71 216.761 1221.27 233.285 1221.08 242.892C1220.63 266.46 1217.48 283.52 1205.23 300.157C1203.84 302.052 1199.97 305.779 1196.26 308.996C1194.33 310.669 1192.3 312.331 1190.44 313.688C1188.73 314.94 1186.72 316.268 1184.98 316.867C1182.29 317.795 1177.94 319.418 1171.93 321.65C1167.1 323.441 1162.54 325.659 1157.7 327.981C1152.93 330.272 1147.91 332.652 1142.49 334.535C1136.08 336.764 1131.85 337.54 1128.72 337.688C1127.13 337.763 1125.92 337.674 1124.97 337.579C1123.88 337.471 1123.68 337.435 1123.4 337.442C1123.39 337.443 1123.26 337.457 1122.99 337.544C1122.68 337.643 1122.29 337.808 1121.78 338.064C1120.74 338.591 1119.57 339.33 1118.14 340.244C1116.8 341.109 1115.22 342.135 1113.65 342.997C1112.1 343.852 1110.26 344.711 1108.31 345.117C1104.15 345.981 1096.08 347.773 1091.59 348.682C1085.67 349.88 1080.6 349.18 1075.91 347.92C1073.62 347.302 1071.36 346.535 1069.22 345.806C1067.32 345.162 1065.48 344.539 1063.58 343.986C1063.38 344.105 1063.1 344.274 1062.71 344.519C1060.98 345.589 1058.39 347.13 1054.2 348.384C1044.23 351.367 1032.89 351.762 1022.83 349.936C1017.46 348.962 1014.16 347.871 1011.74 346.919C1009.04 345.856 1008.58 345.536 1007.59 345.367C1007.55 345.366 1007.38 345.36 1007.01 345.39C1006.51 345.432 1005.91 345.513 1005.04 345.628C1003.38 345.846 1001.14 346.135 998.488 346.111C993.058 346.062 988.593 345.704 985.241 345.351C983.572 345.175 982.175 344.999 981.114 344.868C979.953 344.725 979.403 344.666 979.163 344.658C975.631 344.534 972.137 343.646 967.324 341.813C954.92 337.092 942.835 330.79 935.631 317.724C934.171 315.075 931.318 310.059 928.459 303.954C925.594 297.836 922.775 290.741 920.624 282.976C918.477 275.219 917.086 267.025 916.629 259.685C916.171 252.331 916.7 246.147 916.934 242.891C917.529 234.597 917.384 224.389 920.823 215.169C921.207 214.14 922.101 212.184 923.225 209.731C924.396 207.177 925.926 203.854 927.709 199.867C930.176 194.352 932.24 191.536 933.689 189.646C934.815 188.177 936.007 186.567 937.221 184.923C938.426 183.293 939.655 181.626 940.82 180.094C941.98 178.569 943.124 177.115 944.165 175.915C945.111 174.825 946.285 173.568 947.489 172.784C949.531 171.454 951.564 169.675 953.988 167.373C956.32 165.158 959.129 162.343 962.302 159.459C963.841 158.062 966.389 156.451 969.665 154.759C973.029 153.022 977.424 151.066 982.855 149.043C992.541 145.433 1004.31 146.901 1012.91 148.011C1013.09 147.76 1013.35 147.364 1013.7 146.744C1014.14 145.952 1014.91 144.451 1015.64 143.3C1016.42 142.084 1017.57 140.515 1019.31 139.413C1024.94 135.832 1030.2 135.031 1033.79 134.965L1034.49 134.961L1034.94 134.964L1035.38 135.058C1036 135.187 1036.57 135.424 1036.86 135.548C1037.24 135.708 1037.65 135.9 1038.05 136.093C1038.85 136.475 1039.8 136.961 1040.66 137.392C1041.55 137.844 1042.36 138.243 1042.99 138.528C1043.23 138.637 1043.41 138.71 1043.53 138.755C1045.65 139.141 1047.24 141.01 1047.22 143.238C1047.18 145.722 1045.15 147.712 1042.66 147.682C1041.69 147.669 1040.84 147.357 1040.59 147.265C1040.15 147.111 1039.7 146.919 1039.29 146.733C1038.46 146.358 1037.49 145.875 1036.61 145.43C1035.68 144.964 1034.85 144.538 1034.15 144.201C1033.96 144.112 1033.8 144.035 1033.66 143.972C1031.29 144.052 1027.88 144.627 1024.13 147.009C1024.07 147.048 1023.77 147.287 1023.24 148.122C1022.67 149.023 1022.29 149.822 1021.55 151.151C1020.94 152.235 1020.03 153.764 1018.73 154.961C1017.26 156.32 1015.14 157.372 1012.48 157.029C1003.23 155.836 993.47 154.691 985.998 157.476C980.842 159.397 976.784 161.212 973.794 162.756C970.716 164.346 969.008 165.527 968.354 166.121C965.254 168.938 962.776 171.439 960.186 173.899C957.689 176.271 955.166 178.525 952.401 180.326C952.445 180.297 952.327 180.372 952.022 180.671C951.739 180.947 951.387 181.325 950.963 181.814C950.113 182.793 949.106 184.065 947.983 185.542C946.865 187.013 945.678 188.623 944.46 190.271C943.252 191.907 942.014 193.578 940.833 195.12C939.688 196.614 938.034 198.827 935.925 203.542C934.121 207.575 932.572 210.939 931.406 213.482C930.194 216.126 929.492 217.679 929.255 218.314C926.41 225.944 926.589 234.094 925.911 243.535C925.672 246.861 925.197 252.463 925.611 259.125C926.027 265.803 927.306 273.38 929.297 280.573C931.287 287.758 933.911 294.375 936.61 300.137C939.315 305.914 942.002 310.639 943.513 313.378C949.118 323.545 958.628 328.873 970.525 333.402C974.917 335.074 977.356 335.588 979.478 335.663C980.208 335.688 981.232 335.815 982.213 335.936C983.294 336.069 984.608 336.234 986.184 336.4C989.325 336.732 993.494 337.065 998.569 337.111C1000.54 337.129 1002.25 336.918 1003.86 336.705C1004.63 336.604 1005.49 336.486 1006.27 336.422C1006.94 336.367 1007.79 336.327 1008.67 336.432L1009.05 336.486L1009.47 336.565C1011.56 336.992 1013.54 337.955 1015.03 338.542C1016.93 339.286 1019.66 340.214 1024.43 341.081C1033.22 342.676 1043.12 342.304 1051.62 339.762C1054.74 338.829 1056.57 337.738 1057.97 336.871C1058.58 336.491 1059.57 335.847 1060.52 335.438C1061.61 334.972 1063.06 334.605 1064.74 334.975L1065.08 335.059L1066.02 335.323C1068.18 335.95 1070.22 336.643 1072.11 337.284C1074.31 338.031 1076.28 338.7 1078.25 339.229C1082.09 340.262 1085.68 340.696 1089.81 339.861C1094.4 338.931 1101.97 337.242 1106.47 336.305C1107.14 336.166 1108.07 335.796 1109.32 335.109C1110.56 334.43 1111.83 333.601 1113.28 332.674C1114.64 331.796 1116.2 330.804 1117.72 330.035C1119.17 329.297 1121.1 328.497 1123.17 328.444C1124.19 328.419 1125.3 328.568 1125.86 328.623C1126.55 328.692 1127.3 328.745 1128.29 328.698C1130.3 328.603 1133.65 328.082 1139.54 326.034C1144.42 324.339 1149.01 322.171 1153.81 319.868C1158.54 317.596 1163.5 315.176 1168.8 313.212C1174.73 311.01 1179.23 309.329 1182.05 308.356C1182.06 308.356 1182.06 308.353 1182.07 308.349C1182.09 308.343 1182.11 308.335 1182.13 308.323C1182.19 308.3 1182.26 308.266 1182.35 308.22C1182.54 308.127 1182.77 307.996 1183.06 307.823C1183.64 307.474 1184.33 307.003 1185.13 306.422C1186.72 305.259 1188.55 303.768 1190.37 302.196C1194.14 298.925 1197.26 295.799 1197.98 294.821C1208.63 280.366 1211.64 265.508 1212.08 242.719C1212.24 234.538 1209.03 219.119 1206.23 209.093C1202.91 197.208 1195.31 183.748 1188.27 172.792C1183.83 165.874 1179.39 159.143 1173.69 154.522C1167.91 149.838 1161.74 144.951 1156.28 141.959C1150.8 138.951 1148.25 137.144 1143.43 137.813C1137.4 138.649 1131.74 140.207 1125.5 136.944C1116.91 132.457 1110.1 128.762 1101.52 127.474C1098.62 127.039 1090.76 126.208 1083.98 130.29C1077.28 134.325 1072.11 140.34 1069.8 143.015C1068.17 144.895 1065.33 145.103 1063.45 143.478C1061.57 141.853 1061.36 139.011 1062.99 137.13C1065.26 134.501 1071.27 127.442 1079.34 122.58Z" fill="#FD5624"/>
<path d="M993.945 169.808C998.006 168.314 1002.25 167.662 1007.25 167.671C1010.65 167.678 1018.35 167.612 1025.65 168.172C1029.28 168.451 1032.99 168.897 1036.09 169.637C1037.64 170.006 1039.18 170.48 1040.54 171.114C1041.83 171.717 1043.37 172.65 1044.45 174.15C1045.91 176.165 1045.45 178.978 1043.44 180.434C1041.47 181.855 1038.75 181.457 1037.26 179.564C1037.21 179.523 1037.05 179.416 1036.73 179.269C1036.13 178.985 1035.23 178.682 1034.01 178.392C1031.57 177.812 1028.41 177.411 1024.96 177.146C1018.08 176.618 1010.76 176.678 1007.24 176.671C1003.08 176.663 999.92 177.2 997.053 178.255C994.153 179.322 991.318 181.003 987.873 183.58C980.64 188.991 974.991 197.717 971.684 206.522C969.363 212.703 967.174 221.278 965.815 227.554C964.541 233.435 964.119 236.607 964.891 246.66C965.679 256.938 967.527 268.643 968.796 278.326C969.347 282.535 971.213 288.904 973.942 295.321C976.683 301.763 980.071 307.725 983.404 311.364C985.72 313.892 991.099 318.857 996.734 323.998C1002.22 328.999 1007.91 334.138 1010.48 336.73C1012.22 338.495 1012.21 341.345 1010.45 343.094C1008.68 344.843 1005.83 344.83 1004.08 343.064C1001.73 340.686 996.309 335.793 990.668 330.647C985.181 325.641 979.425 320.344 976.768 317.443C972.434 312.712 968.568 305.679 965.661 298.844C962.743 291.984 960.566 284.791 959.872 279.495C958.651 270.169 956.73 257.946 955.917 247.348C955.087 236.526 955.541 232.473 957.019 225.649C958.411 219.22 960.709 210.147 963.258 203.358C966.981 193.446 973.498 183.095 982.482 176.374C986.296 173.521 989.916 171.291 993.945 169.808Z" fill="#FD5624"/>
<path d="M1046.53 180.511C1048.83 179.583 1051.45 180.7 1052.38 183.005C1053.31 185.311 1052.19 187.932 1049.89 188.86C1050.06 188.789 1048.68 189.322 1045.09 192.985C1042.21 195.926 1039.73 201.447 1036.56 209.958C1034.91 214.374 1033.56 220.273 1032.51 225.604C1031.54 230.515 1031.09 234.502 1031.79 244.152C1032.5 253.991 1034.41 269.312 1035.99 278.723C1037.53 287.948 1038.64 290.64 1040.3 293.998C1044.41 302.295 1047.51 306.951 1049.6 310.575C1051.81 314.406 1054.27 318.782 1055.96 321.721C1057.75 324.837 1059.11 327.076 1060 328.296C1060.99 329.313 1062.79 331.196 1064.1 332.549C1064.9 333.365 1065.65 334.12 1066.26 334.719C1066.57 335.018 1066.83 335.261 1067.03 335.443C1067.26 335.648 1067.33 335.698 1067.29 335.668C1069.3 337.123 1069.75 339.936 1068.3 341.951C1066.84 343.965 1064.03 344.419 1062.02 342.964C1061.39 342.508 1060.62 341.782 1059.99 341.175C1059.29 340.49 1058.47 339.665 1057.66 338.83C1055.87 336.996 1054.46 335.499 1053.33 334.348L1053.14 334.145L1052.97 333.92C1051.67 332.21 1049.98 329.377 1048.16 326.212C1046.14 322.706 1044.26 319.333 1041.8 315.073C1039.96 311.886 1036.51 306.626 1032.23 297.988C1030.08 293.64 1028.76 290.053 1027.11 280.21C1025.49 270.553 1023.55 254.952 1022.81 244.803C1022.07 234.468 1022.54 229.667 1023.68 223.862C1024.74 218.478 1026.21 211.965 1028.13 206.817C1031.15 198.696 1034.21 191.239 1038.66 186.69C1042.57 182.694 1044.99 181.127 1046.53 180.511Z" fill="#FD5624"/>
<path d="M1073.96 176.021C1074.8 173.682 1077.37 172.466 1079.71 173.306C1080.72 173.666 1081.91 174.376 1083.2 175.281C1084.58 176.251 1086.35 177.64 1088.54 179.582C1090.48 181.302 1094.8 186.032 1098.77 190.619C1100.8 192.963 1102.81 195.359 1104.47 197.441C1106.07 199.441 1107.54 201.386 1108.32 202.732C1116.22 216.391 1119.43 223.006 1125.56 240.041C1130.3 253.227 1131.78 266.066 1132.91 271.134C1133.83 275.266 1134.11 281.103 1134.09 286.712C1134.08 292.419 1133.77 298.273 1133.38 302.629C1133.12 305.545 1131.6 311.8 1130.12 317.551C1128.58 323.499 1126.91 329.515 1126.16 332.261C1125.49 334.657 1123.01 336.061 1120.62 335.399C1118.22 334.737 1116.82 332.259 1117.48 329.864C1118.24 327.104 1119.89 321.163 1121.41 315.301C1122.97 309.242 1124.23 303.833 1124.41 301.829C1124.78 297.711 1125.08 292.118 1125.09 286.691C1125.11 281.167 1124.81 276.182 1124.13 273.09C1122.71 266.722 1121.59 255.603 1117.09 243.089C1111.15 226.567 1108.17 220.44 1100.53 207.24C1100.13 206.558 1099.08 205.107 1097.44 203.059C1095.87 201.095 1093.94 198.792 1091.96 196.506C1087.92 191.833 1083.98 187.573 1082.57 186.319C1080.57 184.544 1079.07 183.378 1078.03 182.647C1076.9 181.853 1076.51 181.716 1076.67 181.776C1074.33 180.936 1073.12 178.36 1073.96 176.021Z" fill="#FD5624"/>
<path d="M1127.33 129.054C1129.76 128.53 1132.16 130.075 1132.68 132.504C1133.21 134.934 1131.66 137.328 1129.23 137.852C1125.53 138.65 1122.64 139.179 1120.59 139.669C1118.92 140.068 1118.18 140.36 1117.49 140.632C1114.14 142.229 1108.75 144.763 1100.02 151.908C1097.36 154.09 1095.56 156.162 1092.86 159.098C1089.98 162.232 1087.63 164.923 1085.94 166.92C1085.1 167.921 1084.44 168.73 1083.98 169.325C1083.42 170.046 1083.35 170.189 1083.45 170.007C1082.27 172.194 1079.54 173.011 1077.35 171.832C1075.16 170.652 1074.35 167.923 1075.52 165.736C1075.85 165.124 1076.43 164.369 1076.89 163.786C1077.44 163.077 1078.17 162.176 1079.06 161.124C1080.83 159.015 1083.28 156.227 1086.23 153.011C1088.75 150.273 1091.05 147.627 1094.32 144.944C1103.94 137.07 1110.05 134.206 1113.78 132.435L1113.92 132.368L1114.06 132.312C1114.96 131.959 1116.12 131.483 1118.5 130.915C1120.61 130.41 1124.09 129.753 1127.33 129.054Z" fill="#FD5624"/>
<path d="M1110.08 156.4C1117.38 155.113 1123.81 157.566 1126.79 158.413C1137.04 161.327 1145.7 169.17 1152.02 175.918C1157.59 181.869 1159.97 185.697 1162.46 189.55C1171.14 203.026 1178.78 215.655 1185.05 230.926C1189.75 242.365 1191.09 255.811 1192.95 266.85C1193.46 269.822 1193 274.514 1192.33 278.644C1191.64 282.925 1190.56 287.552 1189.35 290.635C1186.97 296.721 1182.42 303.547 1178.58 308.904C1176.63 311.62 1174.77 314.086 1173.39 315.944C1172.69 316.889 1172.12 317.657 1171.71 318.251C1171.22 318.961 1171.17 319.105 1171.24 318.938C1170.26 321.219 1167.61 322.269 1165.33 321.283C1163.04 320.297 1161.99 317.647 1162.98 315.366C1163.32 314.582 1163.9 313.728 1164.32 313.122C1164.82 312.399 1165.46 311.529 1166.16 310.581C1167.59 308.65 1169.37 306.296 1171.26 303.658C1175.1 298.308 1179.04 292.287 1180.97 287.356C1181.84 285.131 1182.8 281.218 1183.45 277.208C1184.12 273.047 1184.31 269.694 1184.08 268.347C1182.06 256.371 1180.92 244.559 1176.73 234.347C1170.78 219.857 1163.5 207.785 1154.89 194.426C1152.48 190.681 1150.45 187.409 1145.45 182.069C1139.31 175.507 1132.07 169.271 1124.33 167.07C1120.45 165.969 1116.42 164.421 1111.64 165.263C1106.03 166.252 1102.02 166.981 1098.98 167.737C1095.94 168.495 1094.27 169.191 1093.18 169.925C1091.29 171.19 1089.12 172.729 1087.3 174.031C1086.4 174.673 1085.57 175.265 1084.92 175.718C1084.41 176.081 1083.69 176.582 1083.22 176.837C1081.04 178.02 1078.31 177.207 1077.12 175.021C1075.94 172.836 1076.75 170.105 1078.94 168.922C1078.83 168.981 1079.01 168.874 1079.75 168.354C1080.36 167.924 1081.15 167.357 1082.07 166.702C1083.89 165.409 1086.15 163.798 1088.16 162.45C1090.55 160.85 1093.41 159.85 1096.81 159.003C1100.21 158.156 1104.56 157.373 1110.08 156.4Z" fill="#FD5624"/>
<path d="M1197.32 162.887C1197.93 160.086 1200.22 156.353 1204.37 153.595C1207.93 151.224 1211.57 149.817 1213.68 149.107C1214.02 148.994 1214.49 148.767 1214.95 148.48C1215.1 148.387 1215.23 148.298 1215.34 148.223C1217.73 145.659 1220.1 143.22 1221.48 141.838C1222.71 140.601 1223.29 140.076 1224.02 139.538L1224.34 139.304L1224.43 139.242L1224.52 139.185C1228.09 136.925 1231.54 134.843 1235.11 132.906C1237.59 131.558 1239.87 130.472 1242.22 129.886C1245.47 129.079 1250.21 128.334 1255.44 130.325C1257.92 131.271 1260.09 132.291 1261.51 133.025C1262.19 133.376 1262.81 133.718 1263.23 133.986C1263.33 134.048 1263.52 134.177 1263.73 134.344C1263.81 134.406 1264.07 134.616 1264.35 134.934C1264.47 135.075 1264.8 135.456 1265.06 136.03C1265.27 136.497 1265.91 138.115 1264.98 139.94C1264.04 141.797 1262.32 142.235 1261.78 142.335C1261.14 142.454 1260.63 142.402 1260.44 142.381C1260.01 142.332 1259.68 142.231 1259.59 142.202C1259.33 142.123 1259.11 142.031 1259 141.984C1258.4 141.733 1257.3 141.349 1255.52 141.083C1254.86 140.984 1254.22 140.929 1253.43 140.996C1252.62 141.063 1251.51 141.269 1249.97 141.817C1249.08 142.137 1248.19 142.478 1247.33 142.832C1249.03 143.769 1250.25 144.343 1251.06 144.678C1251.1 144.695 1251.14 144.71 1251.18 144.726C1251.48 144.779 1251.76 144.839 1252.01 144.906C1252.28 144.977 1252.61 145.077 1252.95 145.219C1253.09 145.28 1253.39 145.414 1253.73 145.633C1253.89 145.734 1254.22 145.962 1254.57 146.33C1254.79 146.56 1255.77 147.61 1255.81 149.331C1255.83 150.319 1255.53 151.272 1254.98 152.053C1254.46 152.773 1253.86 153.186 1253.44 153.41C1252.68 153.821 1251.99 153.904 1251.77 153.928C1251.23 153.987 1250.8 153.935 1250.65 153.917C1250.26 153.87 1249.91 153.784 1249.65 153.714C1249.45 153.66 1249.24 153.594 1249.01 153.518C1248.4 153.478 1247.45 153.5 1246.23 153.754C1246.2 153.775 1246.15 153.8 1246.1 153.832C1245.79 154.032 1245.35 154.346 1244.81 154.779C1244.07 155.368 1243.24 156.092 1242.4 156.865C1242.55 156.888 1242.69 156.911 1242.83 156.934C1244.19 157.159 1245.63 157.408 1246.66 157.673C1246.99 157.758 1247.98 158.004 1248.84 158.561C1249.1 158.732 1249.57 159.072 1250.01 159.633C1250.47 160.224 1251.05 161.276 1250.99 162.684C1250.92 164.096 1250.24 165.096 1249.71 165.649C1249.21 166.172 1248.7 166.467 1248.42 166.613C1248.02 166.815 1247.67 166.921 1247.62 166.936C1247.5 166.974 1247.39 167.006 1247.32 167.024C1247.12 167.079 1247.06 167.092 1246.86 167.15C1246.54 167.24 1246.09 167.372 1245.53 167.577C1244.41 167.985 1242.75 168.71 1240.67 170.007C1236.46 172.629 1233.57 175.202 1231.47 178.144C1229.37 181.079 1227.89 184.632 1226.85 189.464C1226.84 189.534 1226.81 189.69 1226.78 190.1C1226.76 190.419 1226.73 191.063 1226.66 191.657C1226.5 192.972 1226.11 194.828 1224.72 196.594C1224.17 197.285 1223.01 198.894 1221.97 199.987C1221.41 200.571 1220.61 201.323 1219.6 201.879C1218.56 202.455 1216.89 203.021 1214.97 202.474C1213.04 201.926 1211.88 200.51 1211.16 199.439C1208.75 195.864 1207.66 193.831 1207.16 190.584C1206.69 187.557 1206.89 185.365 1207.13 183.798C1205.71 183.278 1204.14 182.586 1202.76 181.72C1201.48 180.913 1199.33 179.34 1198.58 176.782L1198.29 175.859C1197.51 173.374 1196.09 168.616 1197.32 162.887ZM1209.35 161.086C1208.17 161.872 1207.36 162.733 1206.83 163.467C1206.57 163.834 1206.39 164.158 1206.27 164.41C1206.16 164.641 1206.12 164.771 1206.12 164.787C1205.34 168.421 1206.29 171.192 1207.07 173.759C1207.17 173.843 1207.33 173.958 1207.55 174.097C1208.3 174.57 1209.37 175.053 1210.53 175.455C1212.89 176.277 1214.53 177.559 1215.49 179.165C1216.35 180.59 1216.4 181.999 1216.35 182.913C1216.3 183.648 1216.12 184.578 1216.06 184.956C1215.9 185.948 1215.74 187.217 1216.05 189.205C1216.18 190.039 1216.31 190.629 1217.01 191.853C1217.01 191.851 1217.01 191.849 1217.01 191.847C1217.21 191.588 1217.42 191.308 1217.64 191.035C1217.65 190.99 1217.69 190.87 1217.72 190.607C1217.76 190.293 1217.77 190.032 1217.81 189.474C1217.84 189.008 1217.89 188.312 1218.05 187.577C1219.27 181.874 1221.16 177.094 1224.15 172.914C1226.52 169.588 1229.48 166.803 1233.05 164.268C1232.95 164.241 1232.86 164.215 1232.76 164.188C1231.77 163.899 1230.71 163.221 1230.03 162.03C1229.42 160.958 1229.4 159.93 1229.44 159.352C1229.52 158.304 1229.94 157.506 1230.08 157.243C1230.45 156.54 1230.97 155.857 1231.4 155.335C1232.32 154.202 1233.62 152.829 1234.96 151.519C1236.13 150.382 1237.41 149.215 1238.62 148.212C1238.53 148.162 1238.44 148.112 1238.35 148.062C1237.77 147.741 1236.88 147.249 1236.24 146.747C1235.69 146.323 1234.95 145.563 1234.57 144.372C1234.49 144.134 1234.44 143.898 1234.4 143.668C1232.78 144.637 1231.13 145.651 1229.45 146.718C1229.29 146.834 1229.2 146.9 1229.06 147.025C1228.84 147.214 1228.51 147.535 1227.84 148.2C1226.62 149.421 1224.53 151.574 1222.36 153.889C1222.24 154.061 1222.1 154.228 1221.95 154.386C1221.34 155.031 1220.44 155.664 1219.69 156.131C1218.86 156.647 1217.75 157.238 1216.55 157.64C1214.82 158.22 1212 159.325 1209.35 161.086ZM1249.7 153.604C1249.71 153.606 1249.71 153.607 1249.71 153.607C1249.71 153.607 1249.71 153.606 1249.7 153.605C1249.7 153.605 1249.7 153.604 1249.7 153.604L1249.7 153.604ZM1262.5 133.692C1262.49 133.692 1262.49 133.69 1262.48 133.687C1262.48 133.686 1262.48 133.686 1262.48 133.685C1262.48 133.688 1262.49 133.69 1262.5 133.692Z" fill="#FD5624"/>
<path d="M1256.08 135.859C1256.01 133.375 1257.96 131.3 1260.44 131.225C1261.98 131.179 1263.42 131.376 1264.15 131.445C1266.07 131.57 1268.05 131.804 1270.15 132.299L1271.07 132.532L1271.33 132.603L1271.59 132.707C1278.03 135.323 1287.06 139.372 1291.99 142.223C1298.04 145.725 1304.45 149.629 1310.42 151.863C1313.45 153 1319.17 154.554 1327.16 156.773C1335.01 158.954 1344.75 161.703 1355.47 165.16C1368.58 169.391 1377.46 172.989 1386.02 177.598C1395.17 182.514 1408.32 191.932 1422.25 208.909C1429.47 217.705 1436.47 227.644 1440.09 233.566C1444.6 240.952 1448.11 248.376 1450.67 262.389C1452.23 270.943 1453.33 278.381 1453.84 284.323C1454.09 287.293 1454.2 289.961 1454.13 292.249C1454.06 294.472 1453.82 296.623 1453.2 298.411C1452.97 299.107 1452.74 300.035 1452.44 301.327C1452.17 302.547 1451.84 304.068 1451.44 305.647C1450.63 308.847 1449.44 312.646 1447.28 316.41C1442.45 324.846 1430.76 339.917 1410.22 346.804C1398.94 350.589 1387.64 352.168 1376.21 349.095C1363.34 345.634 1350.18 341.651 1337.18 333.673C1328.69 328.463 1316.41 320.334 1305.1 311.255C1293.77 302.159 1283.78 292.451 1274.62 282.341C1265.46 272.231 1257.31 261.959 1249.75 250.374C1242.22 238.843 1235.52 226.39 1230.89 218.005C1227.33 211.552 1224.47 206.71 1222.35 203.318C1220.14 199.788 1218.9 198.114 1218.54 197.723C1216.84 195.905 1216.94 193.058 1218.76 191.363C1220.58 189.668 1223.43 189.767 1225.12 191.584C1226.17 192.707 1227.84 195.117 1229.98 198.544C1232.21 202.109 1235.15 207.099 1238.77 213.656C1243.47 222.171 1249.98 234.27 1257.28 245.453C1264.55 256.581 1272.4 266.48 1281.29 276.298C1290.19 286.117 1299.83 295.485 1310.73 304.237C1321.65 313.006 1333.61 320.919 1341.89 326.003C1353.72 333.263 1365.81 336.98 1378.55 340.404C1387.67 342.854 1397.05 341.73 1407.36 338.271C1425.1 332.322 1435.3 319.223 1439.47 311.936C1441.05 309.181 1442 306.268 1442.71 303.438C1443.08 302.003 1443.36 300.68 1443.67 299.335C1443.96 298.062 1444.28 296.704 1444.69 295.503C1444.87 294.969 1445.07 293.861 1445.13 291.972C1445.19 290.148 1445.1 287.849 1444.87 285.083C1444.4 279.551 1443.36 272.432 1441.82 264.009C1439.46 251.153 1436.38 244.763 1432.41 238.259C1429.03 232.739 1422.28 223.139 1415.29 214.618C1402.09 198.537 1389.85 189.878 1381.76 185.524C1373.83 181.26 1365.5 177.856 1352.7 173.725C1342.17 170.327 1332.57 167.618 1324.75 165.444C1317.06 163.308 1310.78 161.608 1307.26 160.293C1300.4 157.724 1293.16 153.301 1287.48 150.012C1283.18 147.524 1274.81 143.741 1268.48 141.161C1266.84 140.74 1265.23 140.53 1263.48 140.419L1263.42 140.415L1263.36 140.409C1262.06 140.291 1261.55 140.197 1260.71 140.222C1258.23 140.297 1256.16 138.343 1256.08 135.859Z" fill="#FD5624"/>
<path d="M1280.1 211.191C1280.04 208.706 1282.01 206.645 1284.49 206.586C1285.34 206.566 1285.98 206.795 1286.16 206.864C1286.43 206.963 1286.64 207.068 1286.74 207.126C1286.96 207.242 1287.12 207.353 1287.18 207.397C1287.33 207.498 1287.45 207.59 1287.49 207.629C1287.61 207.721 1287.72 207.82 1287.81 207.896C1288 208.06 1288.24 208.282 1288.53 208.543C1289.11 209.071 1289.95 209.844 1291 210.823C1293.13 212.789 1296.19 215.628 1300.03 219.154C1304.01 222.811 1306.13 223.548 1307.52 224.221C1309.42 225.141 1313.63 227.251 1319.01 229.575C1321.89 230.825 1325.5 231.375 1329.05 231.48C1332.56 231.585 1335.68 231.245 1337.41 230.939C1338.3 230.781 1339.73 230.215 1341.7 228.927C1343.62 227.671 1345.82 225.887 1348.24 223.598C1349.29 222.604 1350.38 220.66 1351.43 217.837C1352.43 215.112 1353.18 212.179 1353.89 209.549C1354.5 207.249 1353.75 204.796 1352.77 203.079C1352.79 203.111 1352.39 202.578 1350.56 201.913C1348.91 201.314 1347.02 200.921 1345.13 200.507C1345.22 200.525 1344.83 200.466 1343.51 200.782C1342.93 200.919 1342.33 201.087 1341.64 201.28C1340.98 201.463 1340.22 201.675 1339.48 201.844C1339.51 201.836 1339.34 201.871 1338.98 202.175C1338.62 202.474 1338.22 202.927 1337.81 203.52C1337.21 204.382 1336.77 205.289 1336.51 205.946C1336.71 207.017 1337.12 208.586 1337.71 210.423C1337.74 210.441 1337.77 210.462 1337.8 210.484C1339.88 211.85 1340.46 214.64 1339.09 216.716C1337.72 218.792 1334.93 219.368 1332.86 218.002C1332.18 217.557 1331.37 216.974 1330.67 216.126C1329.94 215.237 1329.57 214.34 1329.32 213.702L1329.29 213.609L1329.25 213.514C1328.38 210.87 1327.62 208.042 1327.43 205.983L1327.35 205.215L1327.54 204.466C1327.97 202.76 1328.99 200.437 1330.41 198.391C1331.74 196.468 1334.07 193.845 1337.47 193.069C1337.97 192.955 1338.53 192.801 1339.22 192.609C1339.87 192.428 1340.65 192.212 1341.41 192.029C1342.78 191.703 1344.96 191.254 1347.06 191.716C1348.72 192.08 1351.29 192.604 1353.64 193.454C1355.8 194.239 1358.92 195.687 1360.59 198.627C1362.18 201.415 1364.05 206.385 1362.58 211.87C1361.92 214.337 1361.05 217.747 1359.87 220.957C1358.72 224.069 1357.04 227.653 1354.43 230.13C1351.76 232.662 1349.13 234.823 1346.62 236.461C1344.17 238.067 1341.57 239.343 1338.98 239.801C1336.69 240.208 1332.95 240.601 1328.78 240.476C1324.65 240.353 1319.78 239.715 1315.43 237.835C1309.84 235.415 1305.41 233.199 1303.6 232.321C1302.11 231.598 1298.96 230.392 1293.94 225.783C1290.09 222.243 1287.01 219.39 1284.89 217.429C1283.83 216.445 1283.02 215.695 1282.47 215.193C1282.2 214.949 1282.01 214.782 1281.9 214.681C1280.84 213.881 1280.14 212.623 1280.1 211.191ZM1284.36 215.576C1284.38 215.577 1284.4 215.578 1284.42 215.579C1284.4 215.578 1284.38 215.577 1284.36 215.576ZM1284.1 215.555C1284.11 215.556 1284.12 215.557 1284.14 215.559C1284.12 215.557 1284.11 215.556 1284.1 215.555Z" fill="#FD5624"/>
<path d="M828 182.91H1440V245.687H1145.32H1018.06H954.435H898.84L1036.14 528.91H990.859L839.32 214.298L828 182.91Z" fill="#356859"/>
<path d="M502 279.957L1440 260.91V323.91L502 316.585V279.957Z" fill="#82AFA2"/>
<path d="M864 348.91H1440V404.91H883.005L864 348.91Z" fill="#82AFA2"/>
<path d="M1291 448.41C1291 528.215 1226.31 592.91 1146.5 592.91C1066.69 592.91 1002 528.215 1002 448.41C1002 368.605 1066.69 303.91 1146.5 303.91C1226.31 303.91 1291 368.605 1291 448.41Z" fill="#356859"/>
<path d="M1274.49 448.41C1274.49 377.726 1217.18 320.425 1146.5 320.425C1075.82 320.425 1018.51 377.726 1018.51 448.41C1018.51 519.095 1075.82 576.396 1146.5 576.396V592.91C1066.69 592.91 1002 528.215 1002 448.41C1002 368.605 1066.69 303.91 1146.5 303.91C1226.31 303.91 1291 368.605 1291 448.41C1291 528.215 1226.31 592.91 1146.5 592.91V576.396C1217.18 576.396 1274.49 519.095 1274.49 448.41Z" fill="#356859"/>
<path d="M1240.16 472.299C1239.92 472.255 1239.58 472.174 1239.13 472.056L1240.93 462.286C1239.94 462.279 1239.13 462.529 1238.51 463.035C1237.88 463.549 1237.48 464.288 1237.3 465.252C1237.06 466.555 1237.37 467.509 1238.24 468.115L1237.62 471.49C1236.35 470.864 1235.46 469.947 1234.94 468.741C1234.42 467.544 1234.31 466.172 1234.59 464.624C1234.94 462.755 1235.85 461.327 1237.34 460.34C1238.82 459.362 1240.55 459.055 1242.53 459.419C1244.51 459.783 1246.02 460.686 1247.06 462.127C1248.09 463.577 1248.44 465.237 1248.09 467.106C1247.75 468.976 1246.84 470.399 1245.35 471.377C1243.87 472.355 1242.14 472.662 1240.16 472.299ZM1244.21 468.688C1244.81 468.204 1245.2 467.51 1245.37 466.605C1245.53 465.699 1245.42 464.909 1245.03 464.234C1244.64 463.56 1244.01 463.054 1243.13 462.717L1241.9 469.43C1242.84 469.428 1243.61 469.181 1244.21 468.688Z" fill="#FFFBE6"/>
<path d="M1235.98 450.85C1236 449.276 1236.66 447.966 1237.96 446.92L1229.69 446.79L1229.74 443.616L1249.56 443.928L1249.51 447.102L1247.84 447.075C1249.11 448.162 1249.73 449.492 1249.7 451.066C1249.67 452.889 1249.01 454.393 1247.7 455.576C1246.4 456.76 1244.74 457.336 1242.74 457.305C1240.74 457.273 1239.1 456.645 1237.83 455.421C1236.57 454.197 1235.95 452.673 1235.98 450.85ZM1240.02 447.959C1239.28 448.627 1238.9 449.477 1238.89 450.509C1238.87 451.541 1239.22 452.398 1239.94 453.08C1240.66 453.762 1241.61 454.113 1242.79 454.131C1243.97 454.15 1244.93 453.83 1245.67 453.17C1246.41 452.511 1246.79 451.665 1246.81 450.633C1246.82 449.601 1246.47 448.74 1245.74 448.049C1245.02 447.366 1244.07 447.016 1242.9 446.998C1241.73 446.979 1240.77 447.3 1240.02 447.959Z" fill="#FFFBE6"/>
<path d="M1234.38 437.725C1233.47 437.546 1232.68 437.34 1232.03 437.108C1231.37 436.876 1230.75 436.565 1230.18 436.174C1229.61 435.792 1229.15 435.308 1228.81 434.72C1228.47 434.133 1228.24 433.434 1228.13 432.625C1228.03 431.883 1228.04 431.197 1228.14 430.567L1230.91 430.189C1230.81 430.828 1230.8 431.42 1230.87 431.966C1230.97 432.69 1231.27 433.266 1231.77 433.692C1232.27 434.127 1233.01 434.474 1233.99 434.731L1247.74 427.845L1248.17 430.99L1238.54 435.634L1249.07 437.561L1249.5 440.706L1234.38 437.725Z" fill="#FFFBE6"/>
<path d="M1248.46 415.921L1251.26 415.167L1254.1 425.731L1251.3 426.486L1250.29 422.736L1233.96 427.134L1233.14 424.081L1249.47 419.684L1248.46 415.921Z" fill="#FFFBE6"/>
<path d="M1232.29 402.918L1225.78 406.137L1224.38 403.292L1236.22 397.436L1237.63 400.281L1235.93 401.122C1236.73 401.176 1237.44 401.413 1238.06 401.835C1238.68 402.257 1239.18 402.839 1239.54 403.579C1240.19 404.889 1240.28 406.163 1239.82 407.4C1239.37 408.64 1238.34 409.659 1236.73 410.455L1229.65 413.955L1228.24 411.11L1234.75 407.891C1235.74 407.403 1236.39 406.807 1236.71 406.105C1237.02 405.402 1236.98 404.662 1236.6 403.883C1236.21 403.104 1235.65 402.627 1234.9 402.45C1234.15 402.274 1233.28 402.43 1232.29 402.918Z" fill="#FFFBE6"/>
<path d="M1223.67 399.057C1221.89 398.772 1220.43 397.84 1219.29 396.262C1218.16 394.684 1217.74 393.004 1218.04 391.222C1218.34 389.436 1219.31 387.957 1220.93 386.787C1222.56 385.617 1224.27 385.174 1226.05 385.459C1227.84 385.74 1229.3 386.669 1230.44 388.247C1231.57 389.825 1231.99 391.507 1231.68 393.294C1231.39 395.076 1230.43 396.552 1228.8 397.722C1227.17 398.892 1225.46 399.337 1223.67 399.057ZM1221.04 391.842C1220.84 392.821 1221.05 393.729 1221.65 394.567C1222.25 395.405 1223.05 395.883 1224.03 396.001C1225.02 396.118 1225.99 395.833 1226.94 395.145C1227.9 394.457 1228.48 393.627 1228.68 392.656C1228.88 391.684 1228.68 390.78 1228.08 389.942C1227.48 389.104 1226.68 388.625 1225.68 388.505C1224.7 388.387 1223.73 388.67 1222.78 389.353C1221.83 390.036 1221.25 390.866 1221.04 391.842Z" fill="#FFFBE6"/>
<path d="M1224.79 377.111C1224.41 376.691 1224.23 376.214 1224.26 375.68C1224.29 375.151 1224.51 374.699 1224.93 374.323C1225.34 373.94 1225.82 373.759 1226.35 373.777C1226.88 373.803 1227.34 374.025 1227.72 374.445C1228.11 374.871 1228.29 375.348 1228.26 375.876C1228.23 376.411 1228.01 376.869 1227.59 377.251C1227.18 377.628 1226.7 377.804 1226.17 377.778C1225.64 377.76 1225.18 377.537 1224.79 377.111ZM1214.14 388.959L1212 386.612L1221.77 377.718L1223.91 380.065L1214.14 388.959Z" fill="#FFFBE6"/>
<path d="M1210.83 379.202C1210.39 379.677 1210.19 380.133 1210.22 380.57C1210.25 381.007 1210.51 381.455 1211.01 381.915C1211.39 382.264 1211.8 382.536 1212.24 382.731L1210.33 384.811C1209.72 384.532 1209.14 384.137 1208.58 383.624C1208.08 383.159 1207.68 382.691 1207.4 382.222C1207.11 381.759 1206.93 381.262 1206.85 380.73C1206.77 380.203 1206.85 379.643 1207.09 379.048C1207.35 378.453 1207.77 377.839 1208.35 377.206L1212.5 372.694L1210.94 371.262L1212.82 369.22L1214.38 370.652L1217.06 367.737L1219.39 369.885L1216.71 372.8L1219.24 375.123L1217.36 377.165L1214.83 374.842L1210.83 379.202Z" fill="#FFFBE6"/>
<path d="M1205.03 370.038C1205.43 369.287 1205.5 368.554 1205.26 367.838C1205.02 367.12 1204.55 366.513 1203.84 366.017C1203.01 365.443 1202.12 365.27 1201.17 365.497C1200.21 365.724 1199.4 366.322 1198.73 367.289C1198.05 368.257 1197.78 369.227 1197.9 370.201C1198.02 371.174 1198.49 371.948 1199.32 372.522C1200.03 373.018 1200.78 373.238 1201.58 373.182C1202.38 373.123 1203.1 372.747 1203.73 372.053L1206.42 373.923C1205.37 375.299 1204.02 376.072 1202.39 376.243C1200.76 376.412 1199.18 375.966 1197.66 374.906C1196.08 373.812 1195.15 372.38 1194.85 370.611C1194.56 368.839 1194.99 367.131 1196.13 365.485C1197.27 363.84 1198.72 362.847 1200.48 362.506C1202.25 362.163 1203.92 362.539 1205.49 363.634C1206.96 364.655 1207.91 365.934 1208.32 367.471C1208.76 369.007 1208.57 370.496 1207.77 371.938L1205.03 370.038Z" fill="#FFFBE6"/>
<path d="M1187.76 368.6L1188.57 366.914C1187.92 367.355 1187.22 367.602 1186.48 367.656C1185.74 367.71 1185 367.563 1184.28 367.217C1182.98 366.59 1182.13 365.651 1181.73 364.4C1181.34 363.144 1181.54 361.706 1182.32 360.086L1185.74 352.97L1188.6 354.345L1185.45 360.891C1184.97 361.884 1184.82 362.752 1185 363.495C1185.18 364.239 1185.65 364.795 1186.42 365.164C1187.18 365.529 1187.9 365.547 1188.58 365.217C1189.27 364.891 1189.86 364.232 1190.33 363.24L1193.48 356.694L1196.33 358.064L1190.6 369.97L1187.76 368.6Z" fill="#FFFBE6"/>
<path d="M1174.41 363.028L1174.87 361.43C1174.22 361.878 1173.52 362.168 1172.78 362.302C1172.03 362.435 1171.28 362.393 1170.53 362.176C1168.78 361.669 1167.5 360.633 1166.7 359.068C1165.91 357.496 1165.79 355.748 1166.35 353.823C1166.91 351.897 1167.94 350.485 1169.44 349.586C1170.96 348.681 1172.59 348.482 1174.34 348.989C1175.1 349.206 1175.75 349.57 1176.31 350.081C1176.87 350.592 1177.3 351.211 1177.61 351.936L1179.91 343.991L1182.96 344.873L1177.46 363.91L1174.41 363.028ZM1176.07 353.652C1175.63 352.763 1174.91 352.175 1173.92 351.889C1172.93 351.602 1172 351.719 1171.15 352.241C1170.3 352.757 1169.71 353.577 1169.39 354.701C1169.06 355.824 1169.12 356.835 1169.56 357.732C1170.01 358.623 1170.73 359.212 1171.72 359.498C1172.71 359.785 1173.63 359.671 1174.48 359.155C1175.33 358.639 1175.91 357.815 1176.24 356.683C1176.57 355.551 1176.51 354.54 1176.07 353.652Z" fill="#FFFBE6"/>
<path d="M1161.81 358.098C1160.4 359.228 1158.73 359.683 1156.8 359.464C1154.86 359.244 1153.34 358.426 1152.22 357.009C1151.1 355.584 1150.65 353.875 1150.88 351.884C1151.1 349.893 1151.92 348.332 1153.33 347.202C1154.74 346.064 1156.41 345.605 1158.34 345.824C1160.28 346.043 1161.8 346.866 1162.92 348.291C1164.04 349.708 1164.49 351.412 1164.26 353.404C1164.04 355.395 1163.22 356.96 1161.81 358.098ZM1154.7 355.2C1155.29 356.003 1156.1 356.463 1157.12 356.579C1158.15 356.696 1159.04 356.429 1159.79 355.778C1160.53 355.127 1160.98 354.216 1161.11 353.046C1161.24 351.875 1161.02 350.888 1160.43 350.086C1159.85 349.284 1159.04 348.825 1158.02 348.708C1156.99 348.592 1156.1 348.863 1155.34 349.521C1154.59 350.172 1154.15 351.078 1154.02 352.241C1153.89 353.403 1154.11 354.389 1154.7 355.2Z" fill="#FFFBE6"/>
<path d="M1144.35 351.75L1144.48 358.483L1141.31 358.549L1141.04 345.34L1144.21 345.275L1144.26 347.416C1145.2 345.796 1146.67 344.966 1148.64 344.925C1148.98 344.918 1149.2 344.931 1149.3 344.963L1149.37 348.42C1148.98 348.291 1148.52 348.231 1148 348.242C1146.82 348.266 1145.91 348.582 1145.27 349.189C1144.63 349.796 1144.32 350.649 1144.35 351.75Z" fill="#FFFBE6"/>
<path d="M1128.04 360.299L1125.17 340.691L1130.9 339.851C1132.56 339.608 1133.96 339.881 1135.1 340.67C1136.25 341.458 1136.95 342.703 1137.2 344.405L1137.39 345.707C1137.65 347.485 1137.35 348.942 1136.48 350.078C1135.61 351.214 1134.35 351.902 1132.7 352.144L1130.11 352.524L1131.18 359.839L1128.04 360.299ZM1131.05 342.763L1128.73 343.103L1129.69 349.639L1132.01 349.299C1133.77 349.04 1134.51 347.911 1134.22 345.912L1134.1 345.12C1133.83 343.29 1132.82 342.505 1131.05 342.763Z" fill="#FFFBE6"/>
<path d="M1052.84 424.522C1053.08 424.565 1053.42 424.646 1053.87 424.764L1052.07 434.535C1053.06 434.541 1053.87 434.292 1054.49 433.786C1055.12 433.272 1055.52 432.532 1055.7 431.568C1055.94 430.265 1055.63 429.311 1054.76 428.705L1055.38 425.33C1056.65 425.956 1057.54 426.873 1058.06 428.079C1058.58 429.276 1058.69 430.648 1058.41 432.196C1058.06 434.066 1057.15 435.494 1055.66 436.48C1054.18 437.458 1052.45 437.765 1050.47 437.401C1048.49 437.037 1046.98 436.135 1045.95 434.693C1044.91 433.243 1044.56 431.584 1044.91 429.714C1045.25 427.845 1046.16 426.421 1047.65 425.443C1049.13 424.465 1050.86 424.158 1052.84 424.522ZM1048.79 428.133C1048.19 428.616 1047.8 429.311 1047.63 430.216C1047.47 431.121 1047.58 431.911 1047.97 432.587C1048.36 433.261 1048.99 433.766 1049.87 434.103L1051.1 427.391C1050.16 427.392 1049.39 427.639 1048.79 428.133Z" fill="#FFFBE6"/>
<path d="M1057.02 445.97C1057 447.544 1056.34 448.854 1055.04 449.901L1063.31 450.031L1063.26 453.204L1043.44 452.892L1043.49 449.719L1045.16 449.745C1043.89 448.658 1043.27 447.328 1043.3 445.754C1043.33 443.931 1043.99 442.428 1045.3 441.244C1046.6 440.06 1048.26 439.484 1050.26 439.516C1052.26 439.547 1053.9 440.175 1055.17 441.399C1056.43 442.624 1057.05 444.147 1057.02 445.97ZM1052.98 448.862C1053.72 448.194 1054.1 447.344 1054.11 446.312C1054.13 445.28 1053.78 444.423 1053.06 443.74C1052.34 443.058 1051.39 442.708 1050.21 442.689C1049.03 442.67 1048.07 442.991 1047.33 443.65C1046.59 444.309 1046.21 445.155 1046.19 446.187C1046.18 447.219 1046.53 448.081 1047.26 448.772C1047.98 449.454 1048.93 449.804 1050.1 449.823C1051.27 449.841 1052.23 449.521 1052.98 448.862Z" fill="#FFFBE6"/>
<path d="M1058.62 459.095C1059.53 459.275 1060.32 459.481 1060.97 459.712C1061.63 459.944 1062.25 460.255 1062.82 460.646C1063.39 461.028 1063.85 461.513 1064.19 462.1C1064.53 462.687 1064.76 463.386 1064.87 464.196C1064.97 464.937 1064.96 465.623 1064.86 466.254L1062.09 466.631C1062.19 465.992 1062.2 465.4 1062.13 464.855C1062.03 464.13 1061.73 463.555 1061.23 463.128C1060.73 462.693 1059.99 462.347 1059.01 462.09L1045.26 468.975L1044.83 465.83L1054.46 461.186L1043.93 459.259L1043.51 456.115L1058.62 459.095Z" fill="#FFFBE6"/>
<path d="M1044.54 480.899L1041.74 481.654L1038.9 471.089L1041.7 470.335L1042.71 474.084L1059.04 469.687L1059.86 472.739L1043.53 477.137L1044.54 480.899Z" fill="#FFFBE6"/>
<path d="M1060.71 493.903L1067.22 490.683L1068.62 493.528L1056.78 499.384L1055.37 496.539L1057.07 495.698C1056.27 495.645 1055.56 495.407 1054.94 494.985C1054.32 494.563 1053.82 493.982 1053.46 493.242C1052.81 491.931 1052.72 490.657 1053.18 489.421C1053.63 488.18 1054.66 487.162 1056.27 486.365L1063.35 482.865L1064.76 485.71L1058.25 488.93C1057.26 489.418 1056.61 490.013 1056.29 490.715C1055.98 491.418 1056.02 492.159 1056.4 492.937C1056.79 493.716 1057.35 494.194 1058.1 494.37C1058.85 494.547 1059.72 494.391 1060.71 493.903Z" fill="#FFFBE6"/>
<path d="M1069.33 497.763C1071.11 498.049 1072.57 498.98 1073.71 500.558C1074.84 502.136 1075.26 503.816 1074.96 505.598C1074.66 507.385 1073.69 508.863 1072.07 510.033C1070.44 511.204 1068.73 511.646 1066.95 511.361C1065.16 511.081 1063.7 510.152 1062.56 508.574C1061.43 506.995 1061.01 505.313 1061.32 503.526C1061.61 501.745 1062.58 500.269 1064.2 499.098C1065.83 497.928 1067.54 497.483 1069.33 497.763ZM1071.96 504.978C1072.16 503.999 1071.95 503.091 1071.35 502.253C1070.75 501.415 1069.95 500.937 1068.97 500.82C1067.98 500.702 1067.01 500.987 1066.06 501.675C1065.1 502.363 1064.52 503.193 1064.32 504.164C1064.12 505.136 1064.32 506.041 1064.92 506.879C1065.52 507.717 1066.32 508.195 1067.32 508.315C1068.3 508.433 1069.27 508.15 1070.22 507.467C1071.17 506.784 1071.75 505.954 1071.96 504.978Z" fill="#FFFBE6"/>
<path d="M1068.21 519.709C1068.59 520.129 1068.77 520.606 1068.74 521.141C1068.71 521.669 1068.49 522.121 1068.07 522.498C1067.66 522.88 1067.18 523.062 1066.65 523.043C1066.12 523.018 1065.66 522.796 1065.28 522.376C1064.89 521.95 1064.71 521.472 1064.74 520.944C1064.77 520.41 1064.99 519.951 1065.41 519.569C1065.82 519.193 1066.3 519.017 1066.83 519.042C1067.36 519.061 1067.82 519.283 1068.21 519.709ZM1078.86 507.861L1081 510.208L1071.23 519.102L1069.09 516.755L1078.86 507.861Z" fill="#FFFBE6"/>
<path d="M1082.17 517.618C1082.61 517.143 1082.81 516.687 1082.78 516.25C1082.75 515.813 1082.49 515.365 1081.99 514.905C1081.61 514.556 1081.2 514.284 1080.76 514.089L1082.67 512.009C1083.28 512.288 1083.86 512.684 1084.42 513.196C1084.92 513.662 1085.32 514.129 1085.6 514.598C1085.89 515.061 1086.07 515.558 1086.15 516.091C1086.23 516.617 1086.15 517.177 1085.91 517.772C1085.65 518.367 1085.23 518.981 1084.65 519.614L1080.5 524.126L1082.06 525.558L1080.18 527.6L1078.62 526.168L1075.94 529.084L1073.61 526.936L1076.29 524.02L1073.76 521.697L1075.64 519.655L1078.17 521.978L1082.17 517.618Z" fill="#FFFBE6"/>
<path d="M1087.97 526.782C1087.57 527.533 1087.5 528.267 1087.74 528.982C1087.98 529.7 1088.45 530.307 1089.16 530.803C1089.99 531.377 1090.88 531.551 1091.83 531.323C1092.79 531.096 1093.6 530.499 1094.27 529.531C1094.95 528.563 1095.22 527.593 1095.1 526.619C1094.98 525.646 1094.51 524.872 1093.68 524.298C1092.97 523.802 1092.22 523.582 1091.43 523.639C1090.62 523.697 1089.9 524.073 1089.27 524.767L1086.58 522.897C1087.63 521.522 1088.98 520.748 1090.61 520.577C1092.24 520.408 1093.82 520.854 1095.34 521.914C1096.92 523.009 1097.85 524.441 1098.15 526.21C1098.44 527.981 1098.01 529.689 1096.87 531.335C1095.73 532.981 1094.28 533.974 1092.52 534.314C1090.75 534.657 1089.08 534.281 1087.51 533.187C1086.04 532.166 1085.09 530.886 1084.68 529.349C1084.24 527.813 1084.43 526.325 1085.23 524.882L1087.97 526.782Z" fill="#FFFBE6"/>
<path d="M1105.24 528.22L1104.43 529.906C1105.08 529.465 1105.78 529.218 1106.52 529.164C1107.26 529.111 1108 529.257 1108.72 529.604C1110.02 530.23 1110.87 531.169 1111.27 532.421C1111.66 533.677 1111.46 535.115 1110.68 536.735L1107.26 543.85L1104.4 542.475L1107.55 535.929C1108.03 534.937 1108.18 534.069 1108 533.325C1107.82 532.582 1107.35 532.025 1106.58 531.656C1105.82 531.291 1105.1 531.273 1104.42 531.603C1103.73 531.929 1103.14 532.588 1102.67 533.58L1099.52 540.126L1096.67 538.757L1102.4 526.85L1105.24 528.22Z" fill="#FFFBE6"/>
<path d="M1118.59 533.792L1118.13 535.391C1118.78 534.943 1119.48 534.652 1120.22 534.518C1120.97 534.385 1121.72 534.427 1122.47 534.644C1124.22 535.151 1125.5 536.187 1126.3 537.753C1127.09 539.324 1127.21 541.072 1126.65 542.998C1126.09 544.923 1125.06 546.335 1123.56 547.234C1122.04 548.139 1120.41 548.338 1118.66 547.832C1117.9 547.614 1117.25 547.25 1116.69 546.739C1116.13 546.228 1115.7 545.61 1115.39 544.885L1113.09 552.829L1110.04 551.947L1115.54 532.91L1118.59 533.792ZM1116.93 543.169C1117.37 544.057 1118.09 544.645 1119.08 544.932C1120.07 545.218 1121 545.101 1121.85 544.579C1122.7 544.063 1123.29 543.243 1123.61 542.12C1123.94 540.996 1123.88 539.985 1123.44 539.089C1122.99 538.197 1122.27 537.609 1121.28 537.322C1120.29 537.035 1119.37 537.15 1118.52 537.666C1117.67 538.182 1117.09 539.006 1116.76 540.138C1116.43 541.27 1116.49 542.28 1116.93 543.169Z" fill="#FFFBE6"/>
<path d="M1131.19 538.722C1132.6 537.593 1134.27 537.137 1136.2 537.357C1138.14 537.576 1139.66 538.394 1140.78 539.811C1141.9 541.237 1142.35 542.945 1142.12 544.936C1141.9 546.928 1141.08 548.488 1139.67 549.618C1138.26 550.756 1136.59 551.216 1134.66 550.997C1132.72 550.777 1131.2 549.955 1130.08 548.529C1128.96 547.112 1128.51 545.408 1128.74 543.417C1128.96 541.425 1129.78 539.861 1131.19 538.722ZM1138.3 541.62C1137.71 540.817 1136.9 540.358 1135.88 540.241C1134.85 540.125 1133.96 540.392 1133.21 541.042C1132.47 541.693 1132.02 542.604 1131.89 543.775C1131.76 544.946 1131.98 545.932 1132.57 546.734C1133.15 547.536 1133.96 547.996 1134.98 548.112C1136.01 548.229 1136.9 547.958 1137.66 547.299C1138.41 546.649 1138.85 545.742 1138.98 544.58C1139.11 543.418 1138.89 542.431 1138.3 541.62Z" fill="#FFFBE6"/>
<path d="M1148.65 545.07L1148.52 538.337L1151.69 538.271L1151.96 551.48L1148.79 551.546L1148.74 549.404C1147.8 551.024 1146.33 551.854 1144.36 551.895C1144.02 551.902 1143.8 551.889 1143.7 551.857L1143.63 548.4C1144.02 548.53 1144.48 548.589 1145 548.578C1146.18 548.554 1147.09 548.238 1147.73 547.632C1148.37 547.025 1148.68 546.171 1148.65 545.07Z" fill="#FFFBE6"/>
<path d="M1164.96 536.521L1167.83 556.129L1162.1 556.969C1160.44 557.212 1159.04 556.939 1157.9 556.15C1156.75 555.363 1156.05 554.118 1155.8 552.416L1155.61 551.114C1155.35 549.335 1155.65 547.878 1156.52 546.742C1157.39 545.607 1158.65 544.918 1160.3 544.676L1162.89 544.296L1161.82 536.982L1164.96 536.521ZM1161.95 554.058L1164.27 553.717L1163.31 547.181L1160.99 547.522C1159.23 547.78 1158.49 548.909 1158.78 550.909L1158.9 551.7C1159.17 553.53 1160.18 554.316 1161.95 554.058Z" fill="#FFFBE6"/>
<path d="M1170 441.91C1170 454.613 1159.7 464.91 1147 464.91C1134.3 464.91 1124 454.613 1124 441.91C1124 429.208 1134.3 418.91 1147 418.91C1159.7 418.91 1170 429.208 1170 441.91Z" fill="#82AFA2"/>
<path d="M1226.9 68.3566C1228.97 68.3431 1230.44 68.3503 1231.76 68.4728C1233.17 68.6033 1234.3 68.8541 1235.71 69.2032C1239.39 70.1205 1242.62 71.0774 1245.12 72.0275C1246.37 72.5005 1247.53 73.0061 1248.51 73.5489C1249.32 73.9926 1250.44 74.6949 1251.29 75.7462L1251.46 75.962L1251.68 76.2618C1253.89 79.4094 1255.42 83.8525 1256.55 87.92C1257.79 92.3966 1257.87 96.645 1257.55 100.667C1257.34 103.364 1256.39 106.087 1255.46 108.65C1254.44 111.458 1253.07 114.635 1251.76 117.306C1250.42 120.045 1249.19 122.161 1247.18 125.403C1245.19 128.617 1242.38 133.011 1240.55 135.727C1237.75 139.888 1235.04 142.182 1231.43 144.754C1229.1 146.42 1226.17 147.798 1223.16 148.931C1220.01 150.119 1216.58 150.975 1213.37 151.439C1207.21 152.329 1202.43 151.52 1199.31 150.3C1195.72 148.894 1189.22 145.912 1185.83 144.407C1181.48 142.476 1173.91 138.602 1172.01 137.366C1170.94 136.674 1169.85 135.825 1169.3 135.424C1169.14 135.304 1169 135.208 1168.89 135.132C1168.72 135.227 1168.46 135.379 1168.1 135.621C1167.68 135.908 1166.71 136.62 1165.94 137.079C1165.15 137.552 1163.69 138.337 1161.86 138.345C1159.66 138.354 1158.03 137.284 1157.03 136.381C1156.05 135.496 1155.31 134.44 1154.81 133.682C1154.65 133.429 1154.48 133.176 1154.34 132.942C1154.32 132.949 1154.3 132.958 1154.27 132.966C1153.08 133.381 1151.95 133.32 1151.01 133.108C1148.58 132.56 1147.06 130.15 1147.61 127.726C1148.05 125.783 1149.68 124.421 1151.56 124.238C1152.96 123.574 1154.51 123.404 1155.79 123.424L1156.41 123.448L1157.39 123.51L1158.26 123.976C1159.11 124.432 1159.71 125.032 1160.07 125.439C1160.45 125.872 1160.78 126.325 1161.03 126.694C1161.28 127.07 1161.53 127.466 1161.74 127.796C1161.95 128.133 1162.12 128.419 1162.3 128.694C1162.5 128.556 1162.73 128.392 1163.03 128.19C1163.45 127.901 1164.09 127.461 1164.91 127.05C1164.93 124.618 1164.99 120.405 1165.15 114.719C1165.28 110.205 1166.07 107.329 1166.94 104.35C1168.8 97.9914 1171 93.148 1172.7 90.4142C1173.68 88.8379 1174.78 87.663 1176.89 85.5294C1182.42 79.9295 1187.16 75.6685 1188.87 74.5001C1190.66 73.2742 1193.58 72.3116 1196.14 71.547C1198.92 70.7175 1202.21 69.8727 1205.2 69.0763C1206.83 68.6439 1207.88 68.6715 1211.42 68.5948C1215.28 68.5112 1222.66 68.3841 1226.9 68.3566ZM1226.96 77.3566C1222.79 77.3837 1215.46 77.5096 1211.62 77.5929C1209.62 77.6361 1208.7 77.6528 1208.12 77.6866C1207.87 77.7015 1207.77 77.7151 1207.74 77.7198C1207.72 77.7231 1207.68 77.7301 1207.52 77.7736C1204.4 78.6028 1201.32 79.3923 1198.71 80.171C1195.89 81.0147 1194.38 81.6341 1193.95 81.9308C1193.06 82.5372 1188.89 86.1823 1183.29 91.8556C1181.14 94.0283 1180.73 94.5535 1180.35 95.1671C1179.19 97.024 1177.28 101.063 1175.58 106.873C1174.79 109.594 1174.25 111.603 1174.15 114.972C1173.98 121.033 1173.92 125.391 1173.9 127.658C1174.17 127.837 1174.4 128.005 1174.59 128.146C1175.54 128.836 1176.1 129.294 1176.92 129.822C1178.2 130.657 1185.24 134.298 1189.49 136.181C1193.13 137.798 1199.25 140.611 1202.6 141.92C1204.12 142.519 1207.32 143.22 1212.08 142.531C1214.68 142.155 1217.48 141.454 1219.99 140.51C1222.64 139.51 1224.76 138.456 1226.21 137.428C1229.32 135.204 1231.11 133.642 1233.09 130.699C1234.83 128.113 1237.57 123.823 1239.53 120.662C1241.47 117.531 1242.52 115.702 1243.68 113.35C1244.86 110.928 1246.1 108.049 1247 105.581C1247.98 102.867 1248.48 101.255 1248.58 99.9571C1248.85 96.5555 1248.74 93.446 1247.88 90.3273C1246.79 86.4145 1245.61 83.3461 1244.41 81.5724C1244.35 81.5354 1244.27 81.485 1244.16 81.4269C1243.69 81.1659 1242.96 80.8322 1241.93 80.4425C1239.89 79.6671 1237.03 78.8093 1233.53 77.9366C1232.26 77.6215 1231.65 77.5016 1230.93 77.4347C1230.12 77.3597 1229.08 77.3427 1226.96 77.3566Z" fill="#FD5624"/>
<path d="M1243.63 77.8223C1243.63 77.7336 1243.63 77.6403 1243.65 73.8994C1243.67 70.1463 1243.71 62.7828 1243.49 55.128C1243.42 52.6438 1245.37 50.5727 1247.86 50.502C1250.34 50.4313 1252.41 52.3879 1252.48 54.8721C1252.71 62.6936 1252.67 70.1922 1252.65 73.9453C1252.63 77.71 1252.63 77.7639 1252.63 77.8223C1252.63 80.3075 1250.62 82.3223 1248.13 82.3223C1245.64 82.322 1243.63 80.3074 1243.63 77.8223Z" fill="#FD5624"/>
<path d="M1262.48 62.1993C1264.79 61.2814 1267.4 62.4095 1268.32 64.7188C1269.24 67.0282 1268.11 69.6444 1265.8 70.5625C1264.74 70.9858 1264.3 71.2429 1262.89 72.3624C1259.08 75.5216 1256 78.5065 1254.53 80.3262C1254.39 80.5468 1254.29 80.7323 1254.2 80.8858C1254.12 81.027 1254.07 81.1354 1254.03 81.2129C1253.51 83.1264 1251.76 84.5342 1249.68 84.5342C1247.2 84.5342 1245.18 82.5195 1245.18 80.0342C1245.18 79.2284 1245.4 78.5835 1245.47 78.3526C1245.59 78.0185 1245.73 77.7007 1245.86 77.417C1246.13 76.8454 1246.52 76.1658 1247.02 75.3575L1247.15 75.1524L1247.3 74.961C1249.32 72.3785 1253.09 68.7959 1257.18 65.4073L1257.21 65.3819L1257.24 65.3575C1259.09 63.8795 1260.31 63.0622 1262.48 62.1993Z" fill="#FD5624"/>
<path d="M1276.9 74.7237C1279.38 74.6683 1281.44 76.6376 1281.5 79.1221C1281.55 81.6067 1279.59 83.6663 1277.1 83.7217C1274.23 83.7856 1271.71 83.8455 1268.77 84.2686C1267.27 84.4834 1265.65 84.7914 1264.02 85.1163C1262.43 85.4309 1260.76 85.7753 1259.34 86.0157L1259.23 86.0352L1259.12 86.0479C1254.75 86.563 1252.81 86.6504 1252.43 86.6504C1249.94 86.6504 1247.93 84.6356 1247.93 82.1504C1247.93 79.6652 1249.94 77.6504 1252.43 77.6504C1252.25 77.6504 1253.72 77.6197 1257.94 77.125C1259.17 76.9133 1260.61 76.617 1262.27 76.2881C1263.92 75.9604 1265.73 75.612 1267.49 75.3604C1271.04 74.8508 1274.06 74.787 1276.9 74.7237Z" fill="#FD5624"/>
<path d="M1248.86 84.7812C1249.55 82.4504 1251.96 81.0977 1254.29 81.6963C1254.25 81.6864 1254.27 81.6911 1254.42 81.7207C1254.57 81.7531 1254.82 81.8033 1255.13 81.875C1255.76 82.02 1256.61 82.2417 1257.77 82.6074C1259.78 83.2429 1262.71 84.3118 1267.01 86.167L1268.93 87.0117L1269.1 87.0839L1269.25 87.1689C1271.99 88.6566 1273.64 89.5189 1274.67 90.0517C1275.54 90.4993 1276.19 90.8201 1276.62 91.0517L1276.93 91.2119C1277.03 91.258 1277.12 91.2986 1277.23 91.3408C1279.54 92.2537 1280.68 94.8681 1279.76 97.1797C1278.85 99.4908 1276.24 100.624 1273.93 99.7119C1273.31 99.4672 1272.82 99.2267 1272.37 98.9873L1272.34 98.9707L1272.31 98.9531C1272.04 98.8039 1271.78 98.6854 1270.55 98.0537C1269.47 97.4966 1267.81 96.6278 1265.13 95.1709C1260.06 92.9221 1256.93 91.7802 1255.06 91.1894C1254.12 90.8939 1253.5 90.7358 1253.11 90.6455C1252.91 90.5996 1252.75 90.5674 1252.61 90.5371C1252.55 90.5255 1252.21 90.4597 1251.91 90.3711C1249.52 89.6678 1248.16 87.1649 1248.86 84.7812Z" fill="#FD5624"/>
<path d="M825.318 -106.063C825.906 -108.478 828.339 -109.959 830.754 -109.372C833.169 -108.785 834.651 -106.351 834.063 -103.936C823.857 -61.9726 789.305 -22.452 767.867 -2.56043C762.788 2.15257 756.359 7.31743 749.114 12.6857L756.553 123.192L667.035 65.0157C662.816 67.4446 658.935 69.6477 655.504 71.5675C651.202 73.9746 646.652 76.3131 641.92 78.5978L634.402 187.178L551.997 115.971C546.325 118.487 540.916 121.034 535.871 123.639C534.347 124.426 532.803 125.2 531.24 125.966L512.835 231.248L442.773 156.676C434.977 158.697 427.13 160.623 419.296 162.469L396.6 264.791L326.252 182.782C320.858 183.972 315.433 185.168 309.982 186.345L271.097 290.366L213.357 200.194C212.48 200.216 211.602 200.235 210.725 200.248C204.906 200.334 199.009 200.384 193.049 200.401L144.789 290.915L101.058 197.408C59.1235 193.622 18.5737 183.022 -15.8115 155.514C-17.7519 153.961 -18.066 151.129 -16.5137 149.189C-14.9611 147.248 -12.129 146.934 -10.1885 148.486C26.2416 177.63 70.3444 187.007 116.904 189.52C148.932 191.248 180.778 191.688 210.592 191.249C255.023 190.596 300.084 179.106 344.283 169.63C380.903 161.779 422.427 153.484 460.871 142.412L473.36 138.677C494.543 132.095 514.477 124.557 531.741 115.643C549.187 106.635 570.742 98.3392 591.933 89.9972C613.266 81.5989 634.259 73.1431 651.108 63.714C665.108 55.8796 686.717 43.293 707.895 29.8126C729.152 16.2817 749.689 2.02807 761.745 -9.15809C782.839 -28.7308 815.756 -66.7461 825.318 -106.063Z" fill="#FD5624"/>
<path d="M616.449 -27.7646C617.976 -29.7255 620.804 -30.0775 622.765 -28.5508C622.632 -28.6542 622.891 -28.4613 624.04 -27.9092C625.036 -27.431 626.436 -26.8047 628.26 -26.0361C631.9 -24.5015 637.105 -22.4498 643.877 -19.9531C657.415 -14.9621 677.134 -8.2237 702.984 -0.320284C731.28 8.33071 767.899 15.6946 800.523 21.6534C832.908 27.5683 860.94 31.1442 924.915 34.2032C988.964 37.2656 1088 39.6916 1166.13 37.875C1244.19 36.06 1298.41 29.9356 1337.2 24.7715C1376 19.6061 1397.66 15.5951 1418.19 11.2266C1438.76 6.84829 1457.57 2.22657 1468.34 -0.54294C1473.85 -1.95929 1476.72 -2.76695 1478.68 -3.60739C1480.33 -4.31925 1481.28 -5.03369 1482.75 -6.56442C1484.47 -8.35873 1487.32 -8.41946 1489.11 -6.70017C1490.91 -4.98079 1490.97 -2.13238 1489.25 -0.337862C1487.17 1.83219 1485.26 3.36064 1482.23 4.66116C1479.51 5.83315 1475.89 6.80827 1470.58 8.17288C1459.72 10.9653 1440.79 15.6185 1420.06 20.0293C1399.29 24.4501 1377.4 28.499 1338.39 33.6924C1299.37 38.8873 1244.81 45.0486 1166.34 46.8731C1087.93 48.696 988.674 46.2625 924.485 43.1934C860.224 40.1208 831.781 36.5112 798.906 30.5069C766.271 24.5462 729.196 17.1046 700.353 8.28616C674.366 0.340909 654.484 -6.45076 640.764 -11.5088C633.907 -14.0366 628.568 -16.1397 624.764 -17.7431C622.865 -18.5433 621.319 -19.2322 620.144 -19.7968C619.122 -20.2874 617.985 -20.8653 617.235 -21.4492C615.274 -22.976 614.922 -25.8037 616.449 -27.7646Z" fill="#82AFA2"/>
</g>
<defs>
<clipPath id="clip0_298_835">
<rect width="1440" height="593" fill="white"/>
</clipPath>
</defs>
</svg>
