<svg width="221" height="239" viewBox="0 0 221 239" fill="none" xmlns="http://www.w3.org/2000/svg">
<path d="M174.863 33.2212L32.7405 43.8418C32.7405 43.8418 52.3089 66.0463 61.4076 82.4877C70.5064 98.929 72.7204 233.873 72.7204 233.873L208.541 223.724C213.221 223.374 216.821 219.489 216.736 214.796C216.203 185.186 213.809 85.8068 205.554 71.7158C195.835 55.127 174.863 33.2212 174.863 33.2212Z" fill="#FFFBE6"/>
<path d="M17.8712 29.7967C17.2491 21.4726 23.4929 14.2203 31.8169 13.5983L170.125 3.26274C178.449 2.64069 185.702 8.88442 186.324 17.2085C186.946 25.5326 180.702 32.7848 172.378 33.4069L34.0696 43.7424C25.7455 44.3645 18.4932 38.1208 17.8712 29.7967Z" fill="#FFFBE6"/>
<path d="M61.505 81.5867C52.2021 63.9406 32.4996 43.6183 32.4996 43.6183C32.4996 43.6183 15.9945 66.6463 9.41754 85.4791C3.83915 101.453 15.1007 199.775 18.6489 229.262C19.2145 233.962 23.376 237.336 28.0968 236.983L46.2698 235.625L72.8675 233.637C72.8675 233.637 70.808 99.2329 61.505 81.5867Z" fill="#FFFBE6"/>
<mask id="mask0_168_1685" style="mask-type:alpha" maskUnits="userSpaceOnUse" x="7" y="43" width="66" height="195">
<path d="M61.5053 81.585C52.2024 63.9388 32.5006 43.6165 32.5006 43.6165C32.5006 43.6165 15.9947 66.6446 9.41779 85.4774C3.8394 101.451 15.101 199.773 18.6491 229.26C19.2147 233.96 23.3762 237.334 28.0971 236.981L46.27 235.623L72.8678 233.636C72.8678 233.636 70.8082 99.2312 61.5053 81.585Z" fill="#F3EEEC"/>
<path d="M61.5053 81.585C52.2024 63.9388 32.5006 43.6165 32.5006 43.6165C32.5006 43.6165 15.9947 66.6446 9.41779 85.4774C3.8394 101.451 15.101 199.773 18.6491 229.26C19.2147 233.96 23.3762 237.334 28.0971 236.981L46.27 235.623L72.8678 233.636C72.8678 233.636 70.8082 99.2312 61.5053 81.585Z" fill="url(#paint0_linear_168_1685)"/>
</mask>
<g mask="url(#mask0_168_1685)">
<path d="M-6.37776 72.673C-7.41704 72.7343 -8.61803 72.8425 -9.77686 73.1202C-10.9307 73.3968 -12.1403 73.8635 -13.1277 74.7095C-14.016 75.4706 -14.9501 76.7012 -14.775 78.4272C-14.6493 79.6658 -14.4257 80.9707 -13.9615 82.1132C-13.4927 83.2668 -12.7293 84.3714 -11.4636 85.0021C-11.1455 85.1606 -10.8192 85.3206 -10.4861 85.4845C-12.0666 86.4277 -13.9459 87.5371 -16.163 88.8846C-23.6825 93.4547 -32.8705 98.8657 -44.8715 104.758C-54.4672 109.469 -61.7006 114.267 -67.3597 120.44C-72.5066 126.055 -76.2874 132.738 -79.4001 141.377C-79.8394 141.153 -80.2886 140.929 -80.7475 140.708C-86.3874 137.987 -93.7993 135.304 -101.217 132.314C-108.698 129.299 -116.269 125.943 -122.487 121.814C-128.703 117.687 -133.409 112.89 -135.408 107.058C-136.339 103.84 -136.845 100.903 -137.378 97.7935L-140.2 98.2775C-139.667 101.385 -139.138 104.483 -138.149 107.89L-138.14 107.922L-138.128 107.953C-135.843 114.655 -130.539 119.906 -124.072 124.2C-117.596 128.499 -109.795 131.944 -102.287 134.97C-94.7147 138.022 -87.5187 140.621 -81.9915 143.287C-81.4192 143.563 -80.8698 143.84 -80.3426 144.114C-80.7516 145.391 -80.9719 147.338 -80.9966 149.388C-81.0221 151.499 -80.8427 153.871 -80.3726 155.979C-79.9184 158.016 -79.1306 160.101 -77.7241 161.323C-76.9747 161.974 -76.0408 162.386 -74.9513 162.378C-73.8927 162.37 -72.8342 161.968 -71.7938 161.278C-69.82 159.97 -69.3067 157.769 -69.2597 155.851C-69.2125 153.921 -69.6254 151.865 -69.9031 150.401C-70.2997 148.31 -71.7111 146.546 -73.5679 145.024C-74.5178 144.245 -75.6252 143.495 -76.8559 142.768C-73.807 134.181 -70.1591 127.731 -65.2493 122.375C-59.9235 116.565 -53.037 111.957 -43.6102 107.329C-31.5004 101.383 -22.2308 95.923 -14.6762 91.3316C-11.7448 89.5499 -9.23923 88.0875 -7.36064 86.9429C-1.41844 89.5252 6.59308 91.7237 17.7997 88.8116C21.4368 87.8664 24.7102 85.7498 27.7372 83.361C29.2567 82.1617 30.7409 80.871 32.1909 79.5999C33.6497 78.321 35.0693 77.0656 36.497 75.8968C39.3663 73.5481 42.1294 71.6703 44.9832 70.8002C47.764 69.9523 50.6979 70.0406 54.0217 71.7776L55.3481 69.2395C51.3433 67.1467 47.6312 66.9991 44.1479 68.0611C40.7378 69.1009 37.6183 71.2787 34.6834 73.6813C33.2089 74.8883 31.7457 76.1835 30.3038 77.4475C28.8532 78.7191 27.4185 79.9644 25.9635 81.1128C23.0412 83.419 20.1415 85.2452 17.0798 86.0408C7.7801 88.4575 0.921395 87.1107 -4.44293 85.0465C-4.37288 84.9953 -4.30286 84.9472 -4.23669 84.8972C-3.63063 84.4389 -3.03326 83.918 -2.68835 83.3297C-1.6611 81.5773 -1.38762 78.2633 -2.9028 75.0426C-3.22498 74.3578 -3.6499 73.725 -4.25648 73.2792C-4.89927 72.807 -5.62958 72.6289 -6.37776 72.673ZM-77.7661 145.566C-76.8649 146.123 -76.0669 146.678 -75.3839 147.238C-73.7601 148.569 -72.9331 149.794 -72.7166 150.935C-72.4228 152.484 -72.084 154.217 -72.1223 155.781C-72.1609 157.357 -72.5708 158.358 -73.3754 158.891C-74.1158 159.382 -74.6369 159.511 -74.9728 159.514C-75.2775 159.516 -75.5538 159.417 -75.8465 159.162C-76.5244 158.573 -77.1506 157.27 -77.5773 155.356C-77.9881 153.514 -78.1566 151.371 -78.1331 149.423C-78.114 147.844 -77.9677 146.488 -77.7661 145.566ZM-9.10922 75.9039C-8.19998 75.686 -7.19999 75.5897 -6.20859 75.5313C-6.04891 75.5219 -5.99703 75.5536 -5.95242 75.5864C-5.87181 75.6456 -5.703 75.8143 -5.49297 76.2606C-4.30433 78.787 -4.69149 81.0854 -5.15812 81.8816C-5.15813 81.8816 -5.16127 81.8873 -5.16912 81.8983C-5.17715 81.9096 -5.18984 81.9252 -5.20663 81.9454C-5.2408 81.9866 -5.2898 82.041 -5.35903 82.1083C-5.4994 82.2446 -5.6965 82.4116 -5.96304 82.6131C-6.37576 82.9252 -6.90998 83.2859 -7.57268 83.7076C-8.48906 83.2807 -9.35828 82.8512 -10.1861 82.4387C-10.6211 82.222 -10.9999 81.7953 -11.3085 81.036C-11.6216 80.2656 -11.8111 79.2749 -11.9264 78.1378C-11.9683 77.7253 -11.7912 77.3351 -11.2646 76.8839C-10.7507 76.4436 -10.0236 76.123 -9.10922 75.9039Z" fill="#FFFBE6"/>
<path d="M-6.37776 72.673C-7.41704 72.7343 -8.61803 72.8425 -9.77686 73.1202C-10.9307 73.3968 -12.1403 73.8635 -13.1277 74.7095C-14.016 75.4706 -14.9501 76.7012 -14.775 78.4272C-14.6493 79.6658 -14.4257 80.9707 -13.9615 82.1132C-13.4927 83.2668 -12.7293 84.3714 -11.4636 85.0021C-11.1455 85.1606 -10.8192 85.3206 -10.4861 85.4845C-12.0666 86.4277 -13.9459 87.5371 -16.163 88.8846C-23.6825 93.4547 -32.8705 98.8657 -44.8715 104.758C-54.4672 109.469 -61.7006 114.267 -67.3597 120.44C-72.5066 126.055 -76.2874 132.738 -79.4001 141.377C-79.8394 141.153 -80.2886 140.929 -80.7475 140.708C-86.3874 137.987 -93.7993 135.304 -101.217 132.314C-108.698 129.299 -116.269 125.943 -122.487 121.814C-128.703 117.687 -133.409 112.89 -135.408 107.058C-136.339 103.84 -136.845 100.903 -137.378 97.7935L-140.2 98.2775C-139.667 101.385 -139.138 104.483 -138.149 107.89L-138.14 107.922L-138.128 107.953C-135.843 114.655 -130.539 119.906 -124.072 124.2C-117.596 128.499 -109.795 131.944 -102.287 134.97C-94.7147 138.022 -87.5187 140.621 -81.9915 143.287C-81.4192 143.563 -80.8698 143.84 -80.3426 144.114C-80.7516 145.391 -80.9719 147.338 -80.9966 149.388C-81.0221 151.499 -80.8427 153.871 -80.3726 155.979C-79.9184 158.016 -79.1306 160.101 -77.7241 161.323C-76.9747 161.974 -76.0408 162.386 -74.9513 162.378C-73.8927 162.37 -72.8342 161.968 -71.7938 161.278C-69.82 159.97 -69.3067 157.769 -69.2597 155.851C-69.2125 153.921 -69.6254 151.865 -69.9031 150.401C-70.2997 148.31 -71.7111 146.546 -73.5679 145.024C-74.5178 144.245 -75.6252 143.495 -76.8559 142.768C-73.807 134.181 -70.1591 127.731 -65.2493 122.375C-59.9235 116.565 -53.037 111.957 -43.6102 107.329C-31.5004 101.383 -22.2308 95.923 -14.6762 91.3316C-11.7448 89.5499 -9.23923 88.0875 -7.36064 86.9429C-1.41844 89.5252 6.59308 91.7237 17.7997 88.8116C21.4368 87.8664 24.7102 85.7498 27.7372 83.361C29.2567 82.1617 30.7409 80.871 32.1909 79.5999C33.6497 78.321 35.0693 77.0656 36.497 75.8968C39.3663 73.5481 42.1294 71.6703 44.9832 70.8002C47.764 69.9523 50.6979 70.0406 54.0217 71.7776L55.3481 69.2395C51.3433 67.1467 47.6312 66.9991 44.1479 68.0611C40.7378 69.1009 37.6183 71.2787 34.6834 73.6813C33.2089 74.8883 31.7457 76.1835 30.3038 77.4475C28.8532 78.7191 27.4185 79.9644 25.9635 81.1128C23.0412 83.419 20.1415 85.2452 17.0798 86.0408C7.7801 88.4575 0.921395 87.1107 -4.44293 85.0465C-4.37288 84.9953 -4.30286 84.9472 -4.23669 84.8972C-3.63063 84.4389 -3.03326 83.918 -2.68835 83.3297C-1.6611 81.5773 -1.38762 78.2633 -2.9028 75.0426C-3.22498 74.3578 -3.6499 73.725 -4.25648 73.2792C-4.89927 72.807 -5.62958 72.6289 -6.37776 72.673ZM-77.7661 145.566C-76.8649 146.123 -76.0669 146.678 -75.3839 147.238C-73.7601 148.569 -72.9331 149.794 -72.7166 150.935C-72.4228 152.484 -72.084 154.217 -72.1223 155.781C-72.1609 157.357 -72.5708 158.358 -73.3754 158.891C-74.1158 159.382 -74.6369 159.511 -74.9728 159.514C-75.2775 159.516 -75.5538 159.417 -75.8465 159.162C-76.5244 158.573 -77.1506 157.27 -77.5773 155.356C-77.9881 153.514 -78.1566 151.371 -78.1331 149.423C-78.114 147.844 -77.9677 146.488 -77.7661 145.566ZM-9.10922 75.9039C-8.19998 75.686 -7.19999 75.5897 -6.20859 75.5313C-6.04891 75.5219 -5.99703 75.5536 -5.95242 75.5864C-5.87181 75.6456 -5.703 75.8143 -5.49297 76.2606C-4.30433 78.787 -4.69149 81.0854 -5.15812 81.8816C-5.15813 81.8816 -5.16127 81.8873 -5.16912 81.8983C-5.17715 81.9096 -5.18984 81.9252 -5.20663 81.9454C-5.2408 81.9866 -5.2898 82.041 -5.35903 82.1083C-5.4994 82.2446 -5.6965 82.4116 -5.96304 82.6131C-6.37576 82.9252 -6.90998 83.2859 -7.57268 83.7076C-8.48906 83.2807 -9.35828 82.8512 -10.1861 82.4387C-10.6211 82.222 -10.9999 81.7953 -11.3085 81.036C-11.6216 80.2656 -11.8111 79.2749 -11.9264 78.1378C-11.9683 77.7253 -11.7912 77.3351 -11.2646 76.8839C-10.7507 76.4436 -10.0236 76.123 -9.10922 75.9039Z" fill="url(#paint1_radial_168_1685)"/>
</g>
<mask id="mask1_168_1685" style="mask-type:alpha" maskUnits="userSpaceOnUse" x="32" y="33" width="185" height="201">
<path d="M174.862 33.2212L32.7395 43.8418C32.7395 43.8418 52.3079 66.0463 61.4066 82.4877C70.5054 98.929 72.7194 233.873 72.7194 233.873L208.54 223.724C213.22 223.374 216.82 219.489 216.735 214.796C216.202 185.186 213.809 85.8068 205.553 71.7158C195.834 55.127 174.862 33.2212 174.862 33.2212Z" fill="#F3EEEC"/>
<path d="M174.862 33.2212L32.7395 43.8418C32.7395 43.8418 52.3079 66.0463 61.4066 82.4877C70.5054 98.929 72.7194 233.873 72.7194 233.873L208.54 223.724C213.22 223.374 216.82 219.489 216.735 214.796C216.202 185.186 213.809 85.8068 205.553 71.7158C195.834 55.127 174.862 33.2212 174.862 33.2212Z" fill="url(#paint2_linear_168_1685)"/>
</mask>
<g mask="url(#mask1_168_1685)">
<path d="M100.549 59.7205C101.586 59.6266 102.789 59.5552 103.977 59.6576C105.159 59.7595 106.424 60.0413 107.527 60.7312C108.518 61.3517 109.625 62.4299 109.708 64.1627C109.768 65.4063 109.741 66.7298 109.451 67.9287C109.159 69.1392 108.569 70.3449 107.411 71.1568C107.12 71.3608 106.821 71.5675 106.516 71.779C108.219 72.4769 110.242 73.2947 112.635 74.2977C120.75 77.6995 130.641 81.6847 143.385 85.7277C153.574 88.9603 161.439 92.6297 167.953 97.8934C173.877 102.681 178.609 108.728 182.971 116.808C183.373 116.521 183.783 116.233 184.204 115.946C189.377 112.418 196.308 108.663 203.199 104.604C210.149 100.51 217.137 96.0659 222.672 91.0591C228.206 86.0535 232.146 80.6104 233.256 74.5459C233.699 71.2252 233.762 68.246 233.828 65.0918L236.69 65.151C236.625 68.3029 236.561 71.4452 236.09 74.962L236.086 74.9951L236.08 75.0272C234.816 81.9944 230.351 87.9748 224.594 93.1823C218.829 98.3968 211.626 102.963 204.652 107.071C197.617 111.214 190.887 114.854 185.818 118.312C185.293 118.67 184.791 119.025 184.31 119.375C184.905 120.577 185.412 122.47 185.741 124.493C186.08 126.577 186.255 128.949 186.103 131.104C185.957 133.185 185.488 135.365 184.279 136.782C183.634 137.537 182.772 138.083 181.693 138.237C180.645 138.386 179.539 138.146 178.407 137.619C176.261 136.619 175.426 134.519 175.095 132.629C174.761 130.727 174.864 128.633 174.921 127.143C175.003 125.017 176.136 123.063 177.746 121.281C178.57 120.37 179.553 119.464 180.662 118.562C176.371 110.523 171.805 104.687 166.154 100.12C160.023 95.1667 152.529 91.6332 142.519 88.4574C129.66 84.3778 119.681 80.3561 111.528 76.9384C108.365 75.6123 105.67 74.5385 103.642 73.6859C98.1493 77.1226 90.5535 80.4874 79.0385 79.2732C71.9487 78.5256 65.4175 76.1654 59.1057 73.7379C52.7435 71.2911 46.6357 68.7916 40.16 67.5638L40.6928 64.75C47.4827 66.0373 53.8732 68.6585 60.1338 71.0662C66.4449 73.4934 72.6621 75.7222 79.3387 76.4263C88.8942 77.4339 95.4766 75.0826 100.475 72.2441C100.398 72.2039 100.321 72.1667 100.248 72.1271C99.5809 71.764 98.9128 71.3377 98.4843 70.8071C97.208 69.2269 96.445 65.9903 97.4647 62.5802C97.6816 61.855 98.0084 61.1663 98.5422 60.6353C99.1077 60.0728 99.8024 59.7881 100.549 59.7205ZM181.978 121.194C181.17 121.879 180.463 122.545 179.871 123.201C178.463 124.759 177.827 126.093 177.783 127.253C177.722 128.829 177.645 130.593 177.915 132.134C178.188 133.687 178.742 134.616 179.617 135.023C180.422 135.398 180.956 135.449 181.289 135.402C181.591 135.359 181.849 135.219 182.101 134.924C182.683 134.241 183.109 132.859 183.247 130.903C183.379 129.02 183.227 126.877 182.914 124.954C182.661 123.395 182.315 122.075 181.978 121.194ZM103.73 62.5095C102.799 62.4292 101.795 62.4826 100.806 62.5721C100.647 62.5866 100.6 62.6257 100.561 62.6647C100.49 62.7353 100.349 62.9273 100.208 63.3998C99.4081 66.0747 100.132 68.29 100.711 69.0081C100.711 69.0081 100.715 69.0133 100.725 69.023C100.734 69.0329 100.749 69.0465 100.769 69.064C100.809 69.0996 100.865 69.1462 100.944 69.2024C101.103 69.3164 101.323 69.4521 101.617 69.6119C102.072 69.8591 102.653 70.1364 103.371 70.4549C104.213 69.8965 105.009 69.3427 105.766 68.8117C106.164 68.5327 106.475 68.0545 106.668 67.2578C106.863 66.4493 106.903 65.4415 106.848 64.2999C106.828 63.8858 106.595 63.5262 106.007 63.1583C105.434 62.7992 104.667 62.5903 103.73 62.5095Z" fill="#FFFBE6"/>
<path d="M100.549 59.7205C101.586 59.6266 102.789 59.5552 103.977 59.6576C105.159 59.7595 106.424 60.0413 107.527 60.7312C108.518 61.3517 109.625 62.4299 109.708 64.1627C109.768 65.4063 109.741 66.7298 109.451 67.9287C109.159 69.1392 108.569 70.3449 107.411 71.1568C107.12 71.3608 106.821 71.5675 106.516 71.779C108.219 72.4769 110.242 73.2947 112.635 74.2977C120.75 77.6995 130.641 81.6847 143.385 85.7277C153.574 88.9603 161.439 92.6297 167.953 97.8934C173.877 102.681 178.609 108.728 182.971 116.808C183.373 116.521 183.783 116.233 184.204 115.946C189.377 112.418 196.308 108.663 203.199 104.604C210.149 100.51 217.137 96.0659 222.672 91.0591C228.206 86.0535 232.146 80.6104 233.256 74.5459C233.699 71.2252 233.762 68.246 233.828 65.0918L236.69 65.151C236.625 68.3029 236.561 71.4452 236.09 74.962L236.086 74.9951L236.08 75.0272C234.816 81.9944 230.351 87.9748 224.594 93.1823C218.829 98.3968 211.626 102.963 204.652 107.071C197.617 111.214 190.887 114.854 185.818 118.312C185.293 118.67 184.791 119.025 184.31 119.375C184.905 120.577 185.412 122.47 185.741 124.493C186.08 126.577 186.255 128.949 186.103 131.104C185.957 133.185 185.488 135.365 184.279 136.782C183.634 137.537 182.772 138.083 181.693 138.237C180.645 138.386 179.539 138.146 178.407 137.619C176.261 136.619 175.426 134.519 175.095 132.629C174.761 130.727 174.864 128.633 174.921 127.143C175.003 125.017 176.136 123.063 177.746 121.281C178.57 120.37 179.553 119.464 180.662 118.562C176.371 110.523 171.805 104.687 166.154 100.12C160.023 95.1667 152.529 91.6332 142.519 88.4574C129.66 84.3778 119.681 80.3561 111.528 76.9384C108.365 75.6123 105.67 74.5385 103.642 73.6859C98.1493 77.1226 90.5535 80.4874 79.0385 79.2732C71.9487 78.5256 65.4175 76.1654 59.1057 73.7379C52.7435 71.2911 46.6357 68.7916 40.16 67.5638L40.6928 64.75C47.4827 66.0373 53.8732 68.6585 60.1338 71.0662C66.4449 73.4934 72.6621 75.7222 79.3387 76.4263C88.8942 77.4339 95.4766 75.0826 100.475 72.2441C100.398 72.2039 100.321 72.1667 100.248 72.1271C99.5809 71.764 98.9128 71.3377 98.4843 70.8071C97.208 69.2269 96.445 65.9903 97.4647 62.5802C97.6816 61.855 98.0084 61.1663 98.5422 60.6353C99.1077 60.0728 99.8024 59.7881 100.549 59.7205ZM181.978 121.194C181.17 121.879 180.463 122.545 179.871 123.201C178.463 124.759 177.827 126.093 177.783 127.253C177.722 128.829 177.645 130.593 177.915 132.134C178.188 133.687 178.742 134.616 179.617 135.023C180.422 135.398 180.956 135.449 181.289 135.402C181.591 135.359 181.849 135.219 182.101 134.924C182.683 134.241 183.109 132.859 183.247 130.903C183.379 129.02 183.227 126.877 182.914 124.954C182.661 123.395 182.315 122.075 181.978 121.194ZM103.73 62.5095C102.799 62.4292 101.795 62.4826 100.806 62.5721C100.647 62.5866 100.6 62.6257 100.561 62.6647C100.49 62.7353 100.349 62.9273 100.208 63.3998C99.4081 66.0747 100.132 68.29 100.711 69.0081C100.711 69.0081 100.715 69.0133 100.725 69.023C100.734 69.0329 100.749 69.0465 100.769 69.064C100.809 69.0996 100.865 69.1462 100.944 69.2024C101.103 69.3164 101.323 69.4521 101.617 69.6119C102.072 69.8591 102.653 70.1364 103.371 70.4549C104.213 69.8965 105.009 69.3427 105.766 68.8117C106.164 68.5327 106.475 68.0545 106.668 67.2578C106.863 66.4493 106.903 65.4415 106.848 64.2999C106.828 63.8858 106.595 63.5262 106.007 63.1583C105.434 62.7992 104.667 62.5903 103.73 62.5095Z" fill="url(#paint3_radial_168_1685)"/>
</g>
<defs>
<linearGradient id="paint0_linear_168_1685" x1="112.53" y1="135.054" x2="9.01996" y2="142.789" gradientUnits="userSpaceOnUse">
<stop stop-color="#E2BA9A"/>
<stop offset="1" stop-color="#F3EEEC"/>
</linearGradient>
<radialGradient id="paint1_radial_168_1685" cx="0" cy="0" r="1" gradientTransform="matrix(-17.3521 57.9155 141.335 -17.0234 -11.0048 95.1905)" gradientUnits="userSpaceOnUse">
<stop stop-color="#FF815C"/>
<stop offset="1" stop-color="#FD5624"/>
</radialGradient>
<linearGradient id="paint2_linear_168_1685" x1="-86.2752" y1="149.358" x2="215.825" y2="126.782" gradientUnits="userSpaceOnUse">
<stop stop-color="#90745E"/>
<stop offset="1" stop-color="#F3EEEC"/>
</linearGradient>
<radialGradient id="paint3_radial_168_1685" cx="0" cy="0" r="1" gradientTransform="matrix(25.7672 54.6933 -142.295 4.17183 108.472 81.2997)" gradientUnits="userSpaceOnUse">
<stop stop-color="#FF8B68"/>
<stop offset="1" stop-color="#FD5624"/>
</radialGradient>
</defs>
</svg>
