<svg width="401" height="322" viewBox="0 0 401 322" fill="none" xmlns="http://www.w3.org/2000/svg">
<path d="M229.933 141.973C222.864 168.958 194.321 184.581 167.392 175.423C144.73 167.718 130.991 144.174 135.457 120.723C137.622 109.348 143.528 99.7564 151.601 92.9028C159.826 85.9074 165.657 76.6019 168.224 66.1068C168.457 65.1066 168.758 64.1049 169.106 63.1061C174.07 49.0605 188.863 40.6303 203.524 43.4576C204.756 43.6943 205.94 44.0044 207.11 44.3682C207.933 42.2509 208.976 40.172 210.282 38.6976C212.037 36.7191 215.085 39.3152 213.504 41.4348L210.366 45.6227C223.692 51.6092 231.156 66.4722 227.338 81.0473L227.218 81.5037C224.307 91.9947 224.891 103.047 228.629 113.292C231.864 122.199 232.529 132.136 229.946 141.996L229.933 141.973Z" fill="#356859" stroke="#356859" stroke-width="24" stroke-miterlimit="10" stroke-linecap="round"/>
<path d="M207.846 77.1937C199.554 71.4933 201.902 61.9066 196.249 67.3864C189.658 66.6064 172.975 65.4582 173.157 57.264C175.676 52.7704 177.417 50.8074 181.369 47.7218C188.308 45.3804 205.305 47.0887 209.682 40.6246C207.855 48.6939 214.185 52.0444 218.249 58.0809C224.617 67.5416 225.718 73.1459 226.328 85.0472C225.713 88.3853 225.537 90.0795 225.467 93.4555C225.766 96.4881 225.307 96.4827 224.092 93.4393C219.832 86.9406 214.42 81.5164 207.851 77.1758L207.846 77.1937ZM199.407 57.199C206.128 49.5419 205.64 63.1152 214.179 71.787C219.729 77.4192 220.595 78.8699 220.897 77.1704C221.05 76.2927 221.136 75.8562 221.316 74.9855C216.769 68.268 211.553 62.1304 205.658 56.5704C205.462 48.3157 201.242 46.7895 192.98 51.9873C192.428 52.9613 192.164 53.4562 191.661 54.4622C190.861 56.0885 194.898 62.3378 199.409 57.19L199.407 57.199Z" fill="#FFFBE6"/>
<path d="M163.871 80.4175C168.584 79.8449 171.313 79.8905 176.96 80.8726C177.877 78.9807 178.312 78.0143 179.116 76.0448C173.706 74.7806 171.097 74.6421 166.621 75.1525C167.973 72.1888 168.54 70.6451 169.44 67.4673C177.198 66.3158 184.626 67.449 191.702 70.8801C198.196 66.7969 201.471 68.5632 201.523 76.197C213.18 84.0888 221.526 95.3678 227.044 108C228.081 112.345 229.009 114.328 229.732 118.629C221.916 108.55 208.956 100.288 197.227 95.4851C194.323 89.2267 189.66 87.785 183.236 91.1601C175.525 88.251 167.556 86.8422 159.323 86.9134C161.33 84.4465 162.246 83.1469 163.862 80.4152L163.871 80.4175ZM193.533 82.0015C202.438 91.1421 214.1 96.7117 223.458 105.445C214.491 95.9535 202.179 89.0568 194.814 78.2068C194.317 79.7401 194.059 80.5044 193.533 82.0015Z" fill="#FFFBE6"/>
<path d="M162.041 104.31C175.281 109.929 184.584 112.759 196.31 119.913C206.781 126.299 218.884 130.55 229.563 136.837C229.148 139.08 228.877 140.224 228.219 142.442C199.751 129.534 172.895 116.036 143.731 104.906C146.19 100.789 147.654 98.8964 150.901 95.5399C162.47 97.8057 178.108 99.4643 188.963 103.761C191.736 109.239 196.34 112.3 202.775 112.944C209.25 115.702 215.494 118.905 221.515 122.557C211.244 116.214 199.873 107.556 188.967 102.615C178.666 97.9564 165.04 95.4958 153.463 93.0751C155.359 91.3631 156.379 90.3587 158.118 88.3666C166.248 88.8708 174.053 90.7624 181.512 94.0455C188.182 91.4519 192.942 93.3299 195.79 99.6886C208.089 105.425 220.992 113.834 230.341 123.694C230.605 127.625 230.557 129.64 230.051 133.695C219.473 127.386 207.626 123.805 196.983 117.929C184.968 111.291 175.532 109.297 162.045 104.33L162.041 104.31Z" fill="#FFFBE6"/>
<path d="M226.252 151.669C223.841 157.071 209.804 158.26 201.517 156.233C198.859 155.623 197.485 155.272 194.676 154.508C195.863 151.511 196.458 149.974 197.642 146.842C200.324 147.726 201.63 148.155 204.167 148.934C208.979 150.434 211.188 149.903 211.619 148.917C212.05 147.93 210.408 146.697 207.235 145.932C192.363 142.371 172.035 144.418 159.564 140.032C152.273 137.462 133.611 125.135 136.451 116.451C139.25 107.891 159.564 115.153 167.211 118.161C169.709 119.379 170.634 119.363 172.757 119.489C171.28 122.86 170.569 124.586 169.252 128.075C166.783 127.696 165.606 127.359 162.786 125.903C156.645 122.784 153.508 122.794 153.204 124.101C152.9 125.407 155.315 127.388 159.091 129.362C164.572 132.222 173.551 130.616 179.879 131.05C188.785 131.662 199.446 133.738 207.468 136.7C214.057 139.133 228.743 146.04 226.237 151.656L226.252 151.669Z" fill="#FFFBE6"/>
<path d="M177.417 161.776C188.509 166.01 199.647 170.544 211.755 168.046C209.59 169.907 208.448 170.755 206.064 172.282C195.309 177.334 184.789 172.819 174.629 168.799C161.172 164.519 149.364 160.422 139.56 149.698C138.326 146.43 137.843 144.725 137.183 141.244C149.301 150.089 160.803 155.205 174.746 160.56C161.603 152.518 148.752 147.316 136.585 137.273C136.222 133.975 136.172 132.298 136.359 128.914C160.059 144.436 189.182 161.76 218.642 160.891C216.926 163.052 216 164.062 214.046 165.959C201.36 168.287 189.559 165.186 177.415 161.785L177.417 161.776Z" fill="#FFFBE6"/>
<path d="M79.6033 96.5769C127.969 -32.5528 310.536 -31.8045 359.977 96.4965C361.794 101.212 359.444 106.508 354.729 108.325C350.013 110.141 344.718 107.791 342.901 103.076C299.37 -9.88614 139.064 -10.0049 96.7399 102.996C94.9674 107.728 89.6944 110.127 84.9622 108.355C80.23 106.582 77.8309 101.309 79.6033 96.5769Z" fill="#356859"/>
<path d="M79.5313 56.5828C94.9949 50.6792 120.94 81.0039 137.475 124.315C154.01 167.626 175.208 199.764 139.411 213.43C107.015 225.798 97.9946 189.011 81.4596 145.7C64.9246 102.389 64.0602 62.4893 79.5313 56.5828Z" fill="#FD5624" stroke="#FD5624" stroke-width="14" stroke-miterlimit="10"/>
<path d="M157.069 198.661C150.659 210.96 131.019 220.629 117.632 213.518C113.768 211.352 112.044 209.744 108.824 205.74C111.492 206.183 112.883 206.283 115.813 206.229C117.683 209.174 118.644 210.485 120.618 212.724C125.416 213.202 128.022 212.96 133.857 211.268C132.678 208.769 132.055 207.389 130.74 204.397C134.223 203.318 136.273 202.527 139.71 201.007C140.806 204.083 141.292 205.515 142.123 208.147C148.4 205.249 150.764 203.577 154.364 199.824C154.375 196.853 154.205 195.248 153.61 191.851C155.844 190.021 156.817 189.069 158.535 187.09C158.853 192.15 158.64 194.48 157.072 198.669L157.069 198.661Z" fill="#FFFBE6"/>
<path d="M97.0217 184.599C116.23 182.05 136.299 174.05 152.702 163.835C154.034 167.461 154.644 169.218 155.658 172.602C143.68 184.544 126.694 194.688 110.058 198.384C126.296 196.804 144.968 189.623 157.246 178.578C157.652 180.369 157.822 181.247 158.084 182.955C145.455 195.284 124.032 203.827 106.335 202.357C104.558 199.748 103.712 198.307 102.061 195.209C119.099 192.657 135.099 182.431 148.679 172.524C133.286 180.728 116.783 187.954 99.1926 189.445C98.3184 187.564 97.8803 186.598 97.0217 184.599Z" fill="#FFFBE6"/>
<path d="M116.896 159.159C114.777 153.723 113.684 150.905 111.465 145.161C121.216 141.499 130.983 137.9 140.863 134.621C141.821 136.971 142.301 138.137 143.251 140.421C141.267 141.179 140.237 141.572 138.087 142.393C142.726 142.386 145.482 144.128 146.87 147.491C148.206 150.717 147.967 153.75 145.977 156.879C143.977 160.004 140.24 162.988 133.627 165.824C125.872 169.148 120.641 171.197 112.611 173.821C105.76 176.056 100.84 176.101 97.0846 174.81C93.3218 173.522 90.9104 171.069 89.5209 167.361C88.136 163.643 88.3631 160.26 90.4251 157.025C92.4871 153.79 96.3738 150.948 102.982 148.417C103.906 148.064 104.368 147.888 105.314 147.526C106.392 150.393 106.923 151.808 107.979 154.597C107.022 154.953 106.549 155.125 105.623 155.47C101.4 157.022 98.8482 158.498 97.585 160.053C96.3218 161.607 96.0779 163.309 96.7891 165.218C97.4916 167.103 98.8051 168.271 100.817 168.723C102.832 169.182 105.817 168.82 110.118 167.36C118.086 164.638 123.243 162.626 131.019 159.424C135.219 157.699 137.689 156.056 138.875 154.435C140.061 152.815 140.236 151.113 139.462 149.246C137.899 145.492 134.171 144.658 126.984 147.402C125.598 147.931 124.894 148.2 123.455 148.749C124.575 151.522 125.132 152.892 126.223 155.589C122.686 156.983 120.697 157.751 116.9 159.192L116.896 159.159Z" fill="#FFFBE6"/>
<path d="M122.167 109.149C125.3 108.515 126.829 108.269 129.791 107.891C133.234 115.182 134.777 119.178 137.887 127.142C119.044 132.286 100.642 139.493 82.8426 147.482C81.8126 144.761 81.2833 143.397 80.3189 140.712C95.5137 132.991 111.428 127.063 127.755 122.239C125.581 116.841 124.455 114.209 122.175 109.146L122.167 109.149Z" fill="#FFFBE6"/>
<path d="M124.804 97.9874C126.034 100.277 126.64 101.456 127.833 103.854C109.199 105.658 90.2979 112.943 74.8866 123.506C74.1807 120.93 73.8576 119.652 73.2545 117.14C89.3824 106.113 105.407 100.021 124.804 97.9874Z" fill="#FFFBE6"/>
<path d="M81.8729 103.738C79.8768 104.941 78.1379 105.795 76.6342 106.266C75.1334 106.744 73.9352 106.855 72.9903 106.584C72.0529 106.311 71.3333 105.79 70.805 104.997C70.2767 104.204 69.9272 103.152 69.7434 101.83C69.4919 100.057 69.6097 98.1612 70.0398 96.1287C70.4698 94.0961 71.2663 91.9324 72.4788 89.7222C73.6914 87.5121 75.2814 85.4951 77.4583 83.8337C78.4598 83.0707 78.9805 82.7076 80.0516 82.0132C80.6401 84.2364 80.9549 85.3791 81.6151 87.722C80.5267 88.3711 80.0002 88.7191 78.968 89.4246C77.2733 90.5992 76.1729 91.8756 75.5314 93.1499C74.8928 94.4316 74.6883 95.6688 74.9331 96.8555C75.1671 97.9684 75.7107 98.574 76.6056 98.6908C77.5109 98.8122 78.6724 98.3775 80.1254 97.4335C81.4461 96.5747 82.5667 95.5327 83.4151 94.3006C84.2636 93.0684 85.049 91.5576 85.7451 89.8128C86.7662 87.2605 87.2837 86.025 88.2954 83.6752C89.3711 81.1973 90.7382 79.1876 92.3414 77.7278C93.9446 76.2681 96.0873 75.3809 98.8518 75.1904C101.616 75 104.205 75.5081 106.654 76.424C109.111 77.3371 111.215 78.5062 112.968 79.8262C114.719 81.1387 116.125 82.5482 117.152 84.1023C118.737 86.4813 118.89 88.4294 117.512 90.2272C116.133 92.0251 113.26 93.2259 108.844 94.0466C107.134 94.3621 106.278 94.5507 104.542 94.98C103.432 92.5059 102.884 91.2967 101.799 88.934C103.286 88.6001 104.029 88.4549 105.501 88.2214C107.544 87.8912 108.966 87.3657 109.764 86.5682C110.554 85.7736 110.617 84.8497 109.962 83.7245C109.301 82.5842 108.305 81.7017 106.99 81.0533C105.671 80.4152 104.219 80.1131 102.599 80.2558C100.895 80.4048 99.5524 80.9345 98.5476 81.8025C97.5428 82.6705 96.7009 83.8742 95.9991 85.4223C95.0411 87.5267 94.5421 88.6513 93.4716 91.0062C92.7211 92.6767 91.8524 94.2193 90.9325 95.5825C90.0126 96.9457 88.7401 98.3398 87.1701 99.7955C85.6002 101.251 83.8085 102.558 81.8672 103.723L81.8729 103.738Z" fill="#FFFBE6"/>
<path d="M99.3531 63.3219C92.4408 59.3524 89.0442 58.478 83.0941 59.8241C84.352 62.5962 85.0215 64.1224 86.4458 67.3759C93.5502 65.4854 97.3602 65.9424 104.957 68.8636C106.252 70.2805 106.894 71.0301 108.2 72.6078C90.4679 69.7068 80.1984 73.6707 68.8479 87.3025C68.7754 85.2715 68.7544 84.2848 68.782 82.38C72.3339 75.6611 74.7105 72.9546 80.7449 69.6475C79.7097 66.2541 79.2324 64.6631 78.3986 61.7291C73.4933 64.7436 71.6831 67.502 69.2871 74.5667C69.4942 72.9047 69.6221 72.1034 69.9229 70.5959C76.3392 55.4485 81.4306 53.6259 96.226 60.7444C97.4682 61.6801 98.0976 62.1923 99.3578 63.3114L99.3531 63.3219Z" fill="#FFFBE6"/>
<path d="M249.271 78.5972C249.271 78.5972 247.15 52.7159 261.83 39.5C264.633 36.9695 268.522 36.0386 272.176 37.0089C272.294 37.0351 272.412 37.0613 272.517 37.1006C278.763 38.7657 282.195 45.3213 280.256 51.4835C278.213 58.0259 277.755 67.5708 285.089 78.5841C284.748 78.2825 276.315 70.9797 249.271 78.5841V78.5972Z" fill="#FD5624" stroke="#FD5624" stroke-width="28" stroke-miterlimit="10"/>
<path d="M364.464 152.174C364.464 191.062 341.14 222.594 312.355 222.594C304.589 222.594 297.216 220.3 290.589 216.183C283.963 220.3 276.59 222.594 268.824 222.594C261.058 222.594 253.685 220.3 247.071 216.183C240.444 220.3 233.071 222.594 225.305 222.594C196.52 222.594 173.183 191.062 173.183 152.174C173.183 113.287 196.52 81.7549 225.305 81.7549C233.071 81.7549 240.444 84.0493 247.071 88.1662C253.685 84.0493 261.058 81.7549 268.824 81.7549C276.59 81.7549 283.963 84.0493 290.589 88.1662C297.216 84.0493 304.589 81.7549 312.355 81.7549C341.14 81.7549 364.464 113.287 364.464 152.174Z" fill="#FD5624" stroke="#FD5624" stroke-width="28" stroke-miterlimit="10"/>
<path d="M249.502 77.2862C249.502 77.2862 247.381 51.4049 262.061 38.1889C264.864 35.6585 268.753 34.7276 272.407 35.6978C272.525 35.724 272.643 35.7503 272.748 35.7896C278.995 37.4547 282.426 44.0102 280.488 50.1725C278.445 56.7149 277.986 66.2597 285.32 77.2731C284.979 76.9715 276.546 69.6686 249.502 77.2731V77.2862Z" fill="#FFFBE6"/>
<path d="M190.509 204.606C167.185 175.525 167.185 128.811 190.509 99.7434C194.687 95.2988 197.005 93.3846 201.968 90.3952C205.687 88.1532 207.482 89.3201 207.914 94.4597C208.346 99.5992 207.207 108.462 205.308 121.704C204.889 124.654 204.692 126.162 204.378 129.204C202.911 143.049 201.575 154.849 199.153 162.467C196.73 170.084 193.521 173.257 189.003 172.602C187.222 172.339 186.331 172.208 184.616 171.907C187.641 185.936 190.614 199.27 198.38 211.607C195.04 209.182 193.456 207.766 190.509 204.632V204.606ZM193.089 110.744C191.622 111.242 190.902 111.504 189.475 112.068C185.258 124.563 183.856 131.734 183.254 146.694C184.799 146.629 185.585 146.589 187.183 146.524C190.496 146.393 192.159 139.968 193.809 128.404C194.019 126.949 194.124 126.215 194.359 124.786C195.302 119.069 195.826 115.241 195.617 113.117C195.407 110.993 194.582 110.232 193.076 110.744H193.089Z" fill="#FFFBE6"/>
<path d="M242.946 208.565C241.414 216.012 238.768 220.522 234.08 221.597C229.378 222.672 224.493 219.696 219.805 212.629C215.117 205.562 210.756 194.602 208.948 178.2C207.049 160.919 207.049 143.416 208.948 126.136C210.756 109.747 215.117 98.7858 219.805 91.719C224.493 84.6521 229.378 81.6759 234.08 82.751C238.781 83.8261 241.414 88.3363 242.946 95.7965C244.478 103.244 244.674 112.67 243.928 127.906C243.142 144.072 243.142 160.29 243.928 176.456C244.674 191.691 244.491 201.118 242.946 208.565ZM224.755 194.929C226.104 197.879 227.65 199.204 229.352 198.994C231.055 198.784 232.089 197.132 232.574 194.064C233.058 190.983 232.914 185.961 232.377 178.541C231.12 160.998 231.12 143.364 232.377 125.834C232.914 118.413 233.058 113.392 232.574 110.31C232.089 107.229 231.055 105.59 229.352 105.381C227.676 105.171 226.13 106.495 224.782 109.445C223.42 112.395 222.202 117.495 221.507 125.126C219.884 143.128 219.884 161.273 221.507 179.262C222.202 186.892 223.42 191.993 224.768 194.943L224.755 194.929Z" fill="#FFFBE6"/>
<path d="M277.1 196.542C276.812 206.703 276.629 211.436 276.21 219.762C266.912 221.427 261.673 220.824 252.912 217.31C248.132 174.437 247.804 129.912 252.912 87.0386C256.906 85.439 258.988 84.8621 263.271 84.2983C261.883 121.757 261.974 159.254 262.603 196.726C268.352 197.145 271.417 197.106 277.1 196.555V196.542Z" fill="#FFFBE6"/>
<path d="M280.27 115.411C280.073 109.104 280.243 103.912 280.741 99.7562C281.239 95.6 281.998 92.6238 283.007 90.6965C284.015 88.7692 285.154 87.6678 286.438 87.2876C287.721 86.9205 289.162 89.0183 290.786 88.0218C292.41 87.0254 294.06 86.7238 295.762 87.1958C297.465 87.6678 299.167 88.9003 300.843 90.9718C302.52 93.0434 304.131 96.0589 305.571 100.136C307.012 104.227 308.164 109.209 308.845 115.162C309.304 119.161 309.5 121.206 309.84 125.402C305.296 125.729 303.07 125.965 298.8 126.595C298.565 122.819 298.434 120.957 298.12 117.351C297.779 113.47 297.163 110.743 296.365 109.065C295.553 107.387 294.623 106.771 293.575 107.138C292.632 107.466 291.925 107.439 291.441 108.777C290.956 110.114 290.812 112.199 291.021 115.07C291.165 117.063 291.375 118.898 291.676 120.55C291.977 122.216 292.449 123.92 293.091 125.664C293.732 127.408 294.309 128.837 294.819 129.964C295.33 131.092 296.155 132.481 297.281 134.527C299.73 139.011 300.974 141.41 303.41 146.419C306.016 151.637 308.02 157.773 309.238 164.302C310.443 170.831 310.692 178.501 309.801 186.814C308.884 195.31 307.077 201.957 304.812 206.939C302.546 211.922 300.136 214.976 297.753 216.366C295.369 217.756 293.078 217.704 290.838 216.327C287.407 214.229 284.788 217.271 282.64 212.721C280.479 208.159 279.405 200.423 279.733 189.161C279.877 184.454 279.929 182.028 280.034 177.059C284.683 176.758 286.949 176.522 291.323 175.932C291.139 180.167 291.035 182.238 290.786 186.263C290.55 190.039 290.694 192.858 291.205 194.785C291.716 196.7 292.514 196.818 293.641 197.211C294.793 197.617 295.801 197.106 296.653 195.624C297.504 194.143 298.106 191.862 298.395 188.741C298.591 186.617 298.643 184.69 298.565 182.985C298.486 181.281 298.198 179.498 297.714 177.649C297.229 175.801 296.758 174.293 296.325 173.139C295.893 171.985 295.186 170.215 294.125 167.921C292.095 163.62 291.008 161.326 288.769 156.54C286.281 151.309 284.264 145.16 282.81 138.578C281.357 131.996 280.531 124.064 280.256 115.411H280.27Z" fill="#FFFBE6"/>
<path d="M326.158 218.333C332.3 198.076 331.056 176.482 329.485 155.701C328.45 177.754 326.132 198.981 318.929 219.998C314.869 220.575 312.682 220.627 308.439 220.155C320.055 177.243 320.92 127.014 308.439 84.167C312.682 83.695 314.869 83.7474 318.929 84.3243C326.486 104.896 328.45 126.712 329.485 148.424C331.069 127.735 332.353 106.22 326.263 86.0419C330.349 87.3792 332.326 88.3232 336.059 90.6176C343.327 109.117 341.9 128.207 340.42 147.572C342.882 169.087 345.554 192.976 336.412 213.495C332.51 215.946 330.441 216.93 326.145 218.333H326.158Z" fill="#FFFBE6"/>
<path d="M347.138 204.606C344.1 207.844 342.463 209.286 339.005 211.777C358.872 177.335 360.457 126.923 339.005 92.5715C342.476 95.0495 344.113 96.5049 347.138 99.7433C370.462 128.824 370.462 175.538 347.138 204.606Z" fill="#FFFBE6"/>
<path d="M153.31 62.4331C112.911 114.433 135.667 174.114 158.12 183.414C197.641 209.022 201.316 166.975 176.404 130.594C163.42 111.632 154.479 91.8303 153.31 62.4331Z" fill="#82AFA2"/>
<path d="M35.1105 140.81C100.193 130.788 141.282 179.69 138.492 203.832C141.655 250.818 103.126 233.587 83.4459 194.13C73.1886 173.565 60.2312 156.124 35.1105 140.81Z" fill="#82AFA2"/>
<path d="M58 200.851H380.742C380.742 267.463 326.742 321.463 260.129 321.463H178.612C112 321.463 58 267.463 58 200.851Z" fill="#356859"/>
<path d="M96 233.475C96.0968 233.475 98.5406 235.042 108.57 243.083C116.38 249.344 129.008 260.889 138.23 268.768C147.452 276.647 152.704 280.729 158.463 285.816C164.223 290.902 170.331 296.869 177.643 304.053" stroke="#82AFA2" stroke-width="9" stroke-linecap="round"/>
<path d="M127.762 210.421C129.439 211.181 138.992 217.395 151.754 228.472C157.904 233.81 164.288 239.89 169.685 245.45C172.43 248.278 179.519 255.482 189.664 266.258C194.977 271.901 196.435 274.3 198.975 276.928C204.796 282.951 210.533 287.694 213.979 291.129C219.045 295.901 222.544 299.24 223.941 300.699C224.855 301.612 226.187 302.873 227.559 304.173" stroke="#82AFA2" stroke-width="9" stroke-linecap="round"/>
<path d="M182.258 207.623C183.189 208.079 186.703 210.584 192.342 214.666C198.559 219.167 206.275 226.405 213.389 232.663C216.194 235.13 217.226 236.311 221.913 241.346C226.599 246.382 234.874 255.275 239.864 260.513C248.059 269.115 250.171 270.861 257.636 277.436C262.623 281.46 271.596 288.426 276.885 292.682C282.174 296.938 283.508 298.272 285.034 299.647" stroke="#82AFA2" stroke-width="9" stroke-linecap="round"/>
<path d="M238.416 206.376C240.041 206.726 245.704 209.339 252.879 215.231C257.537 219.056 263.699 225.241 269.297 230.262C274.896 235.282 279.602 239.121 285.437 244.309C298.274 255.722 305.565 263.052 306.716 264.287C309.908 267.238 312.854 269.381 316.001 271.701C317.243 272.681 317.764 273.259 318.659 274.034" stroke="#82AFA2" stroke-width="9" stroke-linecap="round"/>
<path d="M294.984 206.391C296.291 206.749 299.483 209.214 310.671 220.473C314.355 224.552 319.891 230.209 326.945 236.894C329.556 239.312 330.202 239.752 331.547 240.707" stroke="#82AFA2" stroke-width="9" stroke-linecap="round"/>
<path d="M104.239 238.441C105.22 238.148 107.775 237.276 110.582 234.89C113.256 232.618 115.275 229.967 118.015 227.743C121.304 225.075 124.051 221.703 128.398 216.998C130.075 215.347 132.319 213.286 133.922 211.711C135.525 210.137 136.42 209.113 138.649 206.728" stroke="#82AFA2" stroke-width="9" stroke-linecap="round"/>
<path d="M117.678 278.399C118.601 277.864 124.396 274.755 128.701 272.078C133.426 269.141 140.183 263.208 148.246 255.439C150.997 252.788 153.103 250.549 169.949 234.005C177.147 227.536 180.54 224.565 184.6 220.616C188.127 217.277 194.631 211.23 201.333 205" stroke="#82AFA2" stroke-width="9" stroke-linecap="round"/>
<path d="M149.948 302.545C151.075 302.097 155.079 299.533 173.121 282.326C178.227 277.455 182.715 274.231 189.632 268.257C196.549 262.283 205.901 253.81 211.288 249.005C217.746 243.245 219.876 241.456 221.405 239.727C222.504 238.484 230.021 230.201 241.289 218.397C247.309 212.548 249.991 210.204 252.481 209.19C253.145 208.81 253.837 208.161 255.019 207.178" stroke="#82AFA2" stroke-width="9" stroke-linecap="round"/>
<path d="M209.159 300.712C209.256 300.468 209.353 300.225 214.255 296.195C219.157 292.165 228.862 284.357 234.298 279.825C239.734 275.294 240.608 274.276 252.838 263.56C265.068 252.844 288.629 232.461 313.939 210.771" stroke="#82AFA2" stroke-width="9" stroke-linecap="round"/>
<path d="M266.089 300.248C266.417 299.203 272.081 292.145 277.268 286.904C280.986 283.149 282.867 281.867 290.078 275.323C296.65 269.359 309.253 258.156 316.687 251.621C331.492 239.331 339.078 233.413 340.101 232.622C340.623 232.23 341.149 231.859 342.013 231.312" stroke="#82AFA2" stroke-width="9" stroke-linecap="round"/>
<rect x="39.095" y="167.579" width="361.005" height="33.2723" rx="16.6362" fill="#356859"/>
</svg>
