<svg width="221" height="122" viewBox="0 0 221 122" fill="none" xmlns="http://www.w3.org/2000/svg">
<path d="M217.252 22.5113C218.665 23.2208 219.814 24.4954 220.265 26.1071L220.351 26.4576L220.393 26.6762C220.771 28.9191 219.62 30.5889 219.015 31.2935C218.419 31.9861 217.782 32.4203 217.098 32.8133C216.488 33.1638 215.583 33.6256 214.215 34.2976C212.581 35.1002 210.415 36.1491 208.484 37.1328C209.411 38.3305 210 39.6146 210.364 40.6148C210.639 41.3679 210.836 42.0965 210.965 42.736C211.059 43.2051 211.168 43.8677 211.164 44.5447L211.154 44.8354L211.133 45.1062C210.844 47.8677 208.661 49.2074 207.944 49.6113C207.025 50.1283 205.898 50.5232 205.358 50.7252C204.104 51.1941 202.826 51.3081 201.723 51.286C201.714 51.3581 201.705 51.4303 201.693 51.5013L201.609 51.9204L201.519 52.2701C200.522 55.8157 197.54 57.259 196.102 57.7346C194.373 58.3064 192.8 57.7607 192.363 57.6146C191.659 57.3789 190.887 57.0285 190.139 56.6709C188.68 55.9736 186.303 54.7473 183.275 53.2585C178.908 51.1113 171.775 48.0919 167.451 46.3533C165.954 45.7511 164.636 45.3415 163.423 45.0629C163.493 45.1968 163.561 45.333 163.626 45.4724C164.879 48.169 164.138 50.6603 163.63 51.8834C162.94 53.5451 161.655 54.3595 161.16 54.6402L161 54.7289L160.686 54.8921C159.121 55.648 157.58 55.5543 156.537 55.356C155.453 55.1498 154.396 54.7313 153.543 54.3644C151.459 53.4682 150.009 52.6718 147.199 51.549C146.155 51.1319 145.27 50.8674 144.558 50.705C143.956 51.5243 143.256 52.1109 142.695 52.5077C141.821 53.1254 140.906 53.5519 140.27 53.8277C138.152 54.7456 136.209 54.4225 135.221 54.2202C134.972 54.1691 134.728 54.1131 134.568 54.0763C134.419 54.0422 134.322 54.0204 134.248 54.0052C133.494 54.0496 132.844 53.9429 132.38 53.8361C131.848 53.7136 131.352 53.5417 130.973 53.4022C130.237 53.1314 129.863 52.9703 129.271 52.7472C129.171 52.7635 129.051 52.782 128.905 52.8054C128.489 52.872 127.943 52.9541 127.309 53.0111C127.576 55.2337 127.43 57.6045 126.803 60.1549C126.218 62.5348 125.574 64.7162 124.815 66.5696C124.08 68.3646 123.094 70.2129 121.645 71.6091C119.877 73.313 117.348 75.1577 115.219 76.5946C113.11 78.0181 110.995 79.3072 109.946 79.8187L109.846 79.8673L109.744 79.9118C108.719 80.3503 106.694 81.4743 103.955 82.9526C101.42 84.3205 98.4118 85.9103 95.9192 86.9271C92.8086 88.196 87.1856 90.5369 81.1478 93.3005C75.0256 96.1028 68.7411 99.0921 65.6194 100.767C61.8999 102.762 60.6618 103.827 56.0184 108.184C55.1547 108.994 54.5022 109.763 53.3593 110.981C52.2925 112.117 51.008 113.402 49.296 114.702C48.6233 115.213 48.0533 115.697 47.4959 116.184C46.978 116.636 46.3398 117.209 45.7298 117.705C44.3476 118.827 42.7695 119.846 40.4522 120.534C38.2594 121.185 34.4477 122.744 30.4516 121.087C28.65 120.34 25.1712 118.626 23.9293 114.659C23.8084 114.273 23.5703 113.532 23.4361 112.764C23.3048 112.012 23.1678 110.701 23.6827 109.282C24.0031 108.399 24.7497 106.562 25.7711 104.529C26.7699 102.541 28.1739 100.074 29.8574 98.1358C30.3206 97.6025 30.8914 96.7433 31.6947 95.4552C32.4234 94.2866 33.3335 92.7818 34.2927 91.4289C34.7121 90.8375 35.1609 90.255 35.5392 89.7628C35.9012 89.2918 36.2055 88.8922 36.4738 88.5165C34.4859 87.9701 33.0468 87.6923 31.5361 87.4566C28.245 86.9429 23.7141 86.0249 18.8298 84.2305C16.8326 83.4968 15.1705 82.6618 13.6748 81.874C12.1346 81.0628 10.8833 80.3654 9.37176 79.6732C8.80273 79.4127 8.24714 79.2571 7.17735 78.9199C6.24994 78.6276 4.89703 78.1836 3.58346 77.3576C2.21137 76.4945 1.42474 75.2416 1.04419 74.0581C0.934989 73.7185 0.644557 72.7751 0.768192 71.6159C0.920891 70.1861 1.68418 68.6776 3.22517 67.7296C5.07311 66.5931 7.2477 66.0725 8.81511 65.6546C11.2959 64.993 12.8086 64.7238 15.0063 63.8926C18.2595 62.6622 23.7402 61.7656 27.958 61.5997C30.1402 61.5138 32.3917 61.3278 34.9563 61.1823C37.3609 61.0459 39.9561 60.9528 42.1945 61.1483C43.9036 61.2975 44.5435 61.5277 46.1838 61.4847C47.547 61.4489 49.3611 61.1669 51.7166 60.0781C55.6425 58.2635 62.6258 54.9897 66.2733 52.9902C68.4039 51.8222 69.5647 51.0476 70.2763 50.5035C70.9679 49.9745 71.2845 49.6351 71.9358 49.0023C72.9603 48.0068 74.1851 47.0792 75.3612 46.205C76.5992 45.2848 77.9163 44.3291 79.4357 43.118C83.9995 39.4801 86.9544 37.1132 87.9432 36.2204C89.432 34.8763 93.1623 31.8672 98.5613 30.1534C100.825 29.4348 103.912 29.26 106.89 29.672C109.887 30.0869 113.438 31.1869 116.234 33.6399C116.376 33.7643 116.527 33.8976 116.686 34.0409C117.829 29.8723 119.389 24.1971 120.288 20.6029C121.131 17.2357 121.275 15.0928 121.27 13.8696C121.267 13.2593 121.226 12.8241 121.191 12.4803C121.179 12.3655 121.144 12.0377 121.13 11.7736C121.123 11.6325 121.11 11.331 121.144 10.971C121.171 10.6927 121.264 9.83865 121.821 8.93773C122.413 7.98051 123.823 6.60303 126.042 6.73969C127.701 6.84207 128.73 7.78405 129.003 8.04168C129.679 8.68118 130.081 9.43583 130.214 9.68338C130.598 10.3992 130.929 11.2369 131.105 11.6991C131.782 13.4798 131.814 15.3248 131.82 16.6304C131.982 16.4406 132.149 16.2439 132.322 16.0421C134.432 13.5821 138.046 10.5463 140.747 8.20476C143.702 5.64297 146.312 3.58762 147.858 2.42378C148.205 2.16304 148.656 1.82514 149.09 1.55476C149.316 1.41417 150.452 0.666151 151.963 0.644302C152.949 0.630194 154.058 0.920808 155.016 1.6872C155.883 2.3803 156.306 3.20789 156.51 3.72173C156.871 4.63045 156.92 5.5396 156.94 5.8998C157.052 7.90367 157.109 9.52021 157.134 10.8287C158.729 10.2171 160.747 9.44459 163.14 8.57922C167.17 7.12135 171.587 6.67058 175.614 6.33216C179.877 5.97396 183.326 5.93554 185.841 6.09329C187.081 6.17107 188.208 6.30285 189.138 6.5072C189.59 6.60658 190.143 6.75461 190.69 6.99053C190.989 7.11997 192.345 7.69081 193.17 9.16306L193.326 9.4636C194.04 10.9604 193.814 12.3653 193.652 13.0209C193.464 13.7878 193.15 14.3973 192.972 14.7195C192.552 15.4766 192.01 15.976 191.751 16.2032C191.435 16.4793 191.11 16.7144 190.836 16.8998C190.287 17.2707 189.627 17.655 188.957 18.0294C188.357 18.3643 187.629 18.7567 186.82 19.1902C187.318 19.1811 187.83 19.1763 188.352 19.1779C193.916 19.1942 202.116 20.0131 206.723 20.4413C212.818 21.0079 215.279 21.6446 216.946 22.3672L217.252 22.5113ZM110.298 40.4047C109.289 39.5198 107.641 38.8618 105.655 38.5869C103.65 38.3095 101.967 38.5138 101.283 38.7307C97.5658 39.9108 94.942 42.0272 93.9744 42.9008C92.7188 44.0345 89.444 46.6503 85.0461 50.1559C83.3738 51.4889 81.8869 52.5687 80.7299 53.4288C79.5107 54.335 78.7472 54.9337 78.208 55.4575C77.7065 55.9448 76.9556 56.7256 75.7436 57.6525C74.5515 58.5641 72.9705 59.5817 70.5998 60.8814C66.6287 63.0584 59.3448 66.4676 55.4929 68.2481C51.9837 69.8701 48.9597 70.4142 46.4197 70.4809C44.1577 70.5402 41.8298 70.1512 41.4121 70.1146C39.876 69.9805 37.8467 70.0319 35.4662 70.167C33.2466 70.2929 30.5518 70.5051 28.3114 70.5932C24.6768 70.7362 20.2365 71.5366 18.1908 72.3102C17.4917 72.5746 16.8144 72.8043 16.1629 73.0071C16.7698 73.3271 17.3407 73.6324 17.8694 73.9109C19.2533 74.6398 20.4996 75.2555 21.9334 75.7823C26.0813 77.3061 29.9915 78.1064 32.9245 78.5641C35.3482 78.9424 37.6365 79.4253 41.2113 80.5272C41.3944 80.5836 41.9262 80.7379 42.291 80.8719C42.7788 81.051 43.55 81.3834 44.2949 82.0677C45.7865 83.4383 46.1082 85.1935 46.1953 86.1006C46.2674 86.8526 46.228 87.5765 46.1645 88.1649L46.0964 88.7047L46.0318 89.0886C45.6596 90.9856 44.6248 92.5741 43.9246 93.5713C43.5068 94.1663 43.0583 94.7499 42.676 95.2473C42.2718 95.7733 41.9352 96.2121 41.6351 96.6353C40.8751 97.707 40.1619 98.8871 39.332 100.218C38.5767 101.429 37.6529 102.885 36.653 104.037C35.7041 105.129 34.6972 106.809 33.8133 108.569C33.203 109.784 32.7204 110.898 32.4188 111.642C32.446 111.732 32.476 111.833 32.5141 111.955C32.5307 111.978 32.5734 112.029 32.6687 112.106C32.9017 112.296 33.2915 112.521 33.899 112.773C34.0198 112.823 34.1568 112.879 34.6743 112.794C34.9822 112.743 35.3717 112.651 35.9276 112.492C36.5312 112.32 37.063 112.152 37.8906 111.906C38.7887 111.639 39.3308 111.307 40.0552 110.718C40.4984 110.358 40.9112 109.986 41.5749 109.406C42.1992 108.861 42.943 108.225 43.8509 107.535C45 106.662 45.8973 105.779 46.7969 104.82C47.6205 103.943 48.7206 102.69 49.8598 101.621C54.6597 97.1176 56.5867 95.3983 61.3655 92.8349C64.7679 91.0099 71.2914 87.9145 77.4024 85.1173C83.5981 82.2814 89.3472 79.8877 92.5191 78.5938C94.4946 77.788 97.0908 76.4293 99.6796 75.0321C101.965 73.7985 104.467 72.4105 106.01 71.7243C106.475 71.4949 108.149 70.5087 110.186 69.1342C112.217 67.763 114.215 66.271 115.4 65.1284C115.535 64.9981 115.944 64.4839 116.486 63.1586C117.006 61.8907 117.525 60.1902 118.063 58.0048C118.63 55.6973 118.492 53.9855 118.05 52.5683C115.821 45.422 112.064 41.9544 110.298 40.4047ZM204.154 29.2405C199.361 28.7917 192.809 28.1917 188.327 28.1785C184.53 28.1673 181.72 28.487 179.28 28.6381C178.212 28.7041 176.856 28.7657 175.653 28.5628C174.489 28.3663 171.848 27.6067 170.96 24.6761C170.531 23.2582 170.729 21.8997 171.02 20.9394C171.338 19.8923 171.897 18.8627 172.682 17.9616C173.261 17.2977 174.161 16.4047 175.557 15.371C171.843 15.7 168.79 16.1057 166.201 17.0422C162.958 18.2149 160.517 19.1768 158.652 19.8834C157.752 20.2243 156.921 20.5301 156.238 20.7465C155.896 20.8546 155.506 20.9683 155.112 21.0516C154.803 21.1168 154.102 21.2522 153.287 21.1695C152.713 21.1113 150.379 20.8421 148.984 18.6863C148.161 17.415 148.14 16.0932 148.128 15.7177C148.112 15.2366 148.132 14.5534 148.141 13.962C148.142 13.8854 148.142 13.8058 148.143 13.723C147.658 14.132 147.156 14.5601 146.643 15.0047C143.604 17.6403 140.706 20.0912 139.153 21.9017C137.451 23.8865 135.69 26.0225 134.236 27.3251C133.562 27.9286 132.354 28.9264 130.768 29.3106C129.853 29.5323 128.722 29.5723 127.55 29.1411C127.488 29.1183 127.428 29.0925 127.368 29.068C126.393 32.6842 125.346 36.4832 124.687 38.9022C124.142 40.9014 123.961 42.1335 123.885 42.8112C123.882 42.8352 123.879 42.858 123.877 42.8796C124.197 43.4039 124.473 43.6467 124.631 43.7586C124.866 43.9256 125.154 44.0331 125.612 44.0672C126.126 44.1055 126.702 44.0426 127.48 43.9179C127.779 43.87 128.33 43.7747 128.773 43.7251C129.028 43.6966 130.224 43.533 131.464 43.9681C132.068 44.1802 132.595 44.3818 133.036 44.5532C133.508 44.7363 133.803 44.8538 134.08 44.9558C134.124 44.9718 134.163 44.9834 134.197 44.9954C134.904 44.9842 135.503 45.0827 135.883 45.1551C136.146 45.2053 136.397 45.2627 136.574 45.3033C136.665 45.3241 136.742 45.3396 136.809 45.3547C137.091 44.24 137.75 43.4051 138.316 42.9096C139.071 42.2491 139.875 41.9474 140.349 41.8032C141.355 41.4976 142.423 41.4446 143.349 41.4806C145.183 41.5518 147.466 42.0178 150.05 43.0001C149.811 42.642 149.524 42.1224 149.354 41.4684C149.007 40.1367 149.2 38.3487 150.565 36.9888C151.535 36.0234 152.645 35.7731 152.901 35.7144C153.277 35.6282 153.627 35.5956 153.675 35.5904L154.091 35.5495C154.537 35.5127 155.118 35.4874 156.234 35.4828C160.075 35.4669 164.426 35.4365 170.809 38.0029C175.19 39.7647 182.573 42.884 187.247 45.1822C188.116 45.6096 188.892 45.9941 189.59 46.3426C189.552 46.2333 189.514 46.1172 189.482 45.9937C189.311 45.3395 189.162 44.1262 189.813 42.8258C190.481 41.492 191.587 40.8642 192.308 40.601C192.982 40.3549 193.558 40.328 193.83 40.3249C194.384 40.3187 194.826 40.4162 194.973 40.4492L195.279 40.5261C195.582 40.6091 195.868 40.7062 196.047 40.7666C196.327 40.8616 196.711 40.9954 197.036 41.1073C197.748 41.353 198.545 41.6189 199.365 41.8408C199.896 41.9845 200.393 42.0929 200.839 42.1697C200.541 41.938 200.326 41.8151 200.066 41.7156C200.052 41.7104 199.462 41.5009 198.948 41.213C198.526 40.9765 196.939 40.0442 196.452 37.9749C195.929 35.7457 197.086 34.1039 197.629 33.4673C198.236 32.7555 198.992 32.1938 199.659 31.754C200.738 31.0429 202.406 30.1393 204.154 29.2405Z" fill="#356859"/>
</svg>
