<svg width="118" height="173" viewBox="0 0 118 173" fill="none" xmlns="http://www.w3.org/2000/svg">
<path d="M70.0306 91.3871C69.7457 94.6061 68.0996 100.032 67.5858 101.243C66.6351 103.206 64.7335 109.112 63.0189 112.505C61.8134 114.891 59.656 119.237 57.4661 124.063C55.2763 128.89 53.0418 134.009 52.0067 136.735C50.6583 140.287 50.4365 141.932 49.919 147.006C49.6995 149.159 49.9249 151.221 49.3471 153.992C48.7086 157.055 49.0008 158.621 47.5825 160.851C46.3049 162.86 45.546 164.303 43.7903 164.89C42.4953 165.323 40.921 165.613 39.5719 164.782C38.9434 164.395 38.304 164 38.0956 163.459C37.6624 162.333 36.2441 158.074 36.2428 154.911C36.242 153.153 35.6276 150.613 35.3966 148.283C35.2033 146.333 35.302 144.08 34.4983 142.832C34.0532 142.141 33.4887 141.458 32.8797 141.442C32.5898 141.434 32.3315 141.574 31.7821 141.817C29.2411 142.941 27.7818 143.757 26.291 144.693C24.1895 146.013 21.236 147.684 17.6931 149.032C15.0013 150.056 12.7352 150.31 9.9741 151.123C8.48586 151.561 7.23693 152.411 5.7924 152.635C5.48892 152.682 5.20746 152.608 4.95655 152.456C4.70564 152.304 4.4052 152.059 4.53045 151.66C4.84072 150.67 5.46741 149.744 6.24976 148.588L6.33487 148.462C7.32911 146.992 8.30066 145.749 9.29094 143.908C10.3483 141.943 12.8584 138.875 15.1132 136.754C17.6532 134.364 20.5855 131.167 23 129.412C24.3596 128.424 27.1725 127.083 29.2585 122.44C30.6417 119.361 33.1561 113.687 34.3417 110.477C35.743 106.682 35.7478 105.511 35.8544 104.249C35.9988 102.537 36.6431 100.381 37.2259 97.2185C38.0441 92.7784 38.6087 89.6872 38.7522 88.5049C38.9093 87.2109 39.4734 84.0453 41.4359 80.8288C42.7049 78.7489 46.7159 75.4482 50.7034 75.4667C52.8907 75.4768 57.6528 75.646 63.4449 79.22C65.0294 80.1978 66.4256 81.6454 67.5543 83.8433C69.2464 87.1382 70.1833 89.6614 70.0306 91.3871Z" stroke="#356859" stroke-width="9" stroke-linecap="round"/>
<path d="M55.2734 72.2212C56.8486 75.4852 57.7521 76.1614 57.6517 76.3027C63.3506 79.167 65.4415 73.8755 66.4231 73.4856C68.091 72.8231 69.0987 72.6059 69.5192 72.1438C70.1762 71.4218 71.6484 71.2243 72.248 69.9712C72.6514 69.128 73.0411 68.1069 72.7624 67.2938C72.6537 66.9765 72.4067 66.8699 72.2102 66.6963C71.8142 66.3465 73.3487 64.5674 77.2208 63.2174C81.6249 61.682 84.4288 61.4288 84.9028 60.1176C84.9837 59.8939 85.0584 59.6666 84.9671 59.393C84.7673 58.7939 84.3783 58.061 83.5678 57.699C81.9442 56.9736 80.0414 57.2135 76.6987 56.612C76.2385 56.5292 76.3982 56.3453 76.5861 56.1433C76.774 55.9412 76.9783 55.7224 77.7924 55.0087L77.8214 54.9834C79.9861 53.0858 82.1416 51.1962 86.5843 49.6583C90.0769 48.4492 95.9782 46.5222 99.8149 45.5073C105.224 44.0765 107.291 43.7003 107.613 43.157C107.981 42.5371 108.382 41.4322 107.794 40.3157C107.503 39.7638 106.606 38.9165 105.167 38.5606C104.128 38.3036 102.217 38.6745 102.738 38.3936C103.528 37.9675 108.238 36.5136 109.426 34.3239C109.998 33.271 110.585 32.2608 110.14 31.6867C109.769 31.2074 107.763 29.7089 105.868 29.7085C105.145 29.7083 104.396 29.7456 103.526 30.0623C102.968 30.2655 102.214 30.5996 102.763 28.6345C103.311 26.6693 105.108 22.5304 106.05 20.2939C106.992 18.0575 107.075 17.7334 107.074 17.4231C107.072 17.1129 106.987 16.8253 106.774 16.6641C106.561 16.5029 106.212 16.4291 105.845 16.5453C105.035 16.8018 103.616 17.4205 99.769 20.1837C96.7375 22.3613 91.6075 25.9958 88.4435 28.7299C83.6867 32.8404 81.6845 36.0412 80.5129 35.3046C80.1052 35.0483 79.7238 34.3161 79.7251 33.4285C79.7262 32.6966 79.8503 31.0394 80.8971 28.2466C82.2605 24.6093 83.2232 22.3288 83.0993 21.7448C83.0345 21.4392 82.9021 21.0428 82.615 20.9397C82.0575 20.7394 78.9799 22.81 74.4532 27.4654C72.2183 29.764 70.1409 32.0114 68.7538 34.5021C66.0758 39.3103 64.8065 42.0753 64.2621 42.4595C64.0065 42.6399 63.7078 42.7725 63.4467 42.6972C62.9481 42.5534 62.5103 41.453 58.0441 36.8592C57.2733 36.0664 57.1586 36.3364 56.8565 37.7544C56.5543 39.1723 56.079 41.6627 55.6587 44.626C55.2383 47.5893 54.7211 50.9033 54.7358 53.1195C54.7658 57.622 54.9172 60.4241 53.3552 60.1081C52.6814 59.9718 52.0184 59.7317 51.351 59.1098C48.9813 56.9017 48.0037 55.0944 46.5479 54.3145C45.8973 53.9659 44.7095 53.3806 44.7739 53.7759C44.8219 54.0708 46.8315 55.1165 49.5526 60.4675C51.1892 63.6858 53.8497 69.2712 55.2734 72.2212Z" stroke="#356859" stroke-width="9" stroke-linecap="round"/>
</svg>
