<svg width="169" height="298" viewBox="0 0 169 298" fill="none" xmlns="http://www.w3.org/2000/svg">
<path d="M156.003 283.307C168.765 244.637 166.642 211.733 148.552 177.145C142.768 166.086 140.949 161.385 135.89 151.128C133.644 146.576 129.635 138.758 125.746 125.624C123.672 118.621 120.997 110.89 121.018 105.745C121.082 89.7492 123.545 74.7428 125.175 70.3346C126.874 65.74 129.095 61.1713 131.901 52.1057C134.631 43.2864 138.552 31.2413 138.84 20.52C138.972 15.6055 138.46 13.1086 136.567 11.275C132.518 7.35276 124.608 3.99412 117.86 5.04838C114.166 5.62545 109.99 5.36511 107.471 7.61431C104.232 10.5062 100.445 15.4124 98.187 19.4034C96.2046 22.9072 94.7109 26.5855 92.1134 31.2112C90.1651 34.6807 83.2097 51.59 80.8143 62.2222C80.2194 64.8627 76.212 77.6497 76.1735 98.756C76.1553 108.742 77.8886 117.415 79.9499 125.286C82.0112 133.156 83.9952 140.165 86.5116 145.289C93.15 158.806 97.992 169.083 102.303 180.268C107.632 194.093 112.33 205.895 114.165 212.643C116.33 220.599 118.87 227.703 118.663 232.861C117.447 263.119 85.8615 294.303 54.2831 267.551C47.7147 261.986 38.3996 251.679 35.0354 240.788C32.0063 230.982 30.4821 224.637 32.6776 215.08C33.8893 209.806 36.1974 202.977 38.6632 199.056C43.9605 190.633 62.5971 163.742 45.384 158.067C33.4128 154.12 21.3562 168.369 18.0866 177.813C15.9683 183.932 13.6192 190.975 13.176 193.043C3.09967 219.185 1.56821 265.678 13.1763 293.306" stroke="#FFFBE6" stroke-width="9" stroke-linecap="round"/>
</svg>
