<svg width="227" height="294" viewBox="0 0 227 294" fill="none" xmlns="http://www.w3.org/2000/svg">
<path d="M35.3175 244.401L50.2206 55.9724L207.439 86.261L150.859 266.66C141.831 272.054 116.266 281.394 86.2248 275.606C56.184 269.819 39.7696 252.391 35.3175 244.401Z" fill="#FFFBE6"/>
<path d="M41.2032 47.2419L49.4768 25.519C57.675 38.1432 69.5276 52.6987 133.058 64.938C194.951 76.8619 210.777 65.4571 218.206 58.025L217.816 81.2669C212.587 87.8954 187.403 98.6427 128.499 88.6037C69.5947 78.5647 45.4956 56.7956 41.2032 47.2419Z" fill="#FD5624"/>
<ellipse cx="133.921" cy="41.3584" rx="85.7281" ry="24.7939" transform="rotate(10.9046 133.921 41.3584)" fill="#FD5624"/>
<path d="M45.9163 111.635C90.2188 135.494 140.76 145.231 190.756 139.538L165.127 221.477C121.498 227.505 76.753 218.801 38.4438 197.071L45.9163 111.635Z" fill="#FD5624"/>
<path d="M161.816 187.81L161.799 187.9" stroke="#FFFBE6" stroke-width="9.54412"/>
<mask id="mask0_168_1672" style="mask-type:alpha" maskUnits="userSpaceOnUse" x="38" y="111" width="153" height="113">
<path d="M46.3279 112.394C90.3481 135.936 140.466 145.591 190.082 140.091L164.762 221.044C121.434 226.963 77.0184 218.323 38.9459 196.805L46.3279 112.394Z" fill="#F3EEEC" stroke="#FFFBE6" stroke-width="0.954412"/>
</mask>
<g mask="url(#mask0_168_1672)">
<path d="M37.036 171.089C40.4319 153.462 67.739 161.632 74.5782 172.793C78.4199 179.062 78.7755 183.643 78.8114 189.938C78.8338 193.869 72.281 194.822 70.9811 191.464C69.3255 187.189 75.5557 186.302 78.3622 185.842C85.8404 184.617 92.3974 189.032 95.8206 195.107C100.004 202.53 103.152 211.385 109.815 217.003C115.52 221.812 123.588 223.343 129.603 227.743C130.208 228.252 130.574 228.719 130.951 229.2" stroke="#FFFBE6" stroke-width="2.86324"/>
<path d="M163.78 136.207C165.694 136.575 170.648 137.728 172.675 139.136C178.878 143.444 177.835 166.662 170.548 159.416C167.053 155.94 173.914 153.703 176.728 154.6C179.752 155.565 183.743 159.797 188.927 164.28C191.224 166.161 192.842 167.241 194.019 167.954C195.196 168.667 195.884 168.98 196.592 169.303" stroke="#FFFBE6" stroke-width="2.86324"/>
</g>
<path d="M149.101 154.31L151.298 154.249C151.325 155.219 151.059 155.985 150.502 156.547C149.951 157.11 149.164 157.405 148.143 157.433C147.134 157.461 146.336 157.21 145.748 156.679C145.166 156.148 144.862 155.398 144.835 154.428L147.042 154.367C147.052 154.738 147.154 155.012 147.348 155.189C147.548 155.366 147.795 155.45 148.087 155.442C148.406 155.433 148.658 155.335 148.841 155.147C149.025 154.96 149.112 154.681 149.101 154.31ZM146.516 159.383L146.702 166.08L149.435 159.303L153.457 159.191L153.734 169.187L150.59 169.274L150.403 162.519L147.672 169.355L143.63 169.467L143.353 159.471L146.516 159.383Z" fill="url(#paint0_radial_168_1672)"/>
<path d="M149.101 154.31L151.298 154.249C151.325 155.219 151.059 155.985 150.502 156.547C149.951 157.11 149.164 157.405 148.143 157.433C147.134 157.461 146.336 157.21 145.748 156.679C145.166 156.148 144.862 155.398 144.835 154.428L147.042 154.367C147.052 154.738 147.154 155.012 147.348 155.189C147.548 155.366 147.795 155.45 148.087 155.442C148.406 155.433 148.658 155.335 148.841 155.147C149.025 154.96 149.112 154.681 149.101 154.31ZM146.516 159.383L146.702 166.08L149.435 159.303L153.457 159.191L153.734 169.187L150.59 169.274L150.403 162.519L147.672 169.355L143.63 169.467L143.353 159.471L146.516 159.383Z" fill="#FFFBE6"/>
<path d="M137.39 165.799C137.352 166.905 136.978 167.755 136.267 168.35C135.556 168.945 134.573 169.221 133.317 169.178L128.154 169.002L128.494 159.008L131.793 159.12L131.686 162.263L133.511 162.325C134.722 162.366 135.678 162.698 136.38 163.322C137.088 163.945 137.425 164.771 137.39 165.799ZM141.633 169.461L138.236 169.345L138.576 159.351L141.973 159.466L141.633 169.461ZM132.714 164.516L131.611 164.479L131.529 166.879L132.632 166.917C133.576 166.949 134.061 166.565 134.088 165.765C134.115 164.964 133.657 164.548 132.714 164.516Z" fill="url(#paint1_radial_168_1672)"/>
<path d="M137.39 165.799C137.352 166.905 136.978 167.755 136.267 168.35C135.556 168.945 134.573 169.221 133.317 169.178L128.154 169.002L128.494 159.008L131.793 159.12L131.686 162.263L133.511 162.325C134.722 162.366 135.678 162.698 136.38 163.322C137.088 163.945 137.425 164.771 137.39 165.799ZM141.633 169.461L138.236 169.345L138.576 159.351L141.973 159.466L141.633 169.461ZM132.714 164.516L131.611 164.479L131.529 166.879L132.632 166.917C133.576 166.949 134.061 166.565 134.088 165.765C134.115 164.964 133.657 164.548 132.714 164.516Z" fill="#FFFBE6"/>
<path d="M122.787 168.538L123.152 164.835L120.168 164.541L119.804 168.244L116.412 167.91L117.392 157.958L120.784 158.292L120.419 161.995L123.403 162.289L123.767 158.586L127.15 158.919L126.169 168.871L122.787 168.538Z" fill="url(#paint2_radial_168_1672)"/>
<path d="M122.787 168.538L123.152 164.835L120.168 164.541L119.804 168.244L116.412 167.91L117.392 157.958L120.784 158.292L120.419 161.995L123.403 162.289L123.767 158.586L127.15 158.919L126.169 168.871L122.787 168.538Z" fill="#FFFBE6"/>
<path d="M111.523 167.211L109.396 161.596L108.599 166.76L105.23 166.24L106.756 156.357L110.124 156.877L109.477 161.065L112.788 157.288L116.658 157.885L112.69 161.828L115.316 167.796L111.523 167.211Z" fill="url(#paint3_radial_168_1672)"/>
<path d="M111.523 167.211L109.396 161.596L108.599 166.76L105.23 166.24L106.756 156.357L110.124 156.877L109.477 161.065L112.788 157.288L116.658 157.885L112.69 161.828L115.316 167.796L111.523 167.211Z" fill="#FFFBE6"/>
<path d="M101.632 159.573C101.672 159.109 101.558 158.725 101.29 158.421C101.023 158.117 100.656 157.915 100.192 157.815C99.6253 157.694 99.12 157.798 98.6761 158.129C98.2335 158.454 97.9424 158.94 97.8029 159.59C97.658 160.264 97.715 160.836 97.9739 161.304C98.2406 161.768 98.6667 162.063 99.2523 162.188C99.7297 162.291 100.16 162.24 100.544 162.036C100.933 161.834 101.216 161.478 101.392 160.97L104.676 161.676C104.318 163.004 103.582 163.981 102.468 164.607C101.361 165.235 100.076 165.392 98.6117 165.077C97.135 164.76 96.0147 164.023 95.251 162.867C94.495 161.706 94.2763 160.383 94.5949 158.9C94.9135 157.417 95.6553 156.305 96.8202 155.563C97.9928 154.816 99.3175 154.601 100.794 154.918C102.214 155.223 103.298 155.866 104.046 156.846C104.801 157.827 105.104 158.974 104.955 160.287L101.632 159.573Z" fill="url(#paint4_radial_168_1672)"/>
<path d="M101.632 159.573C101.672 159.109 101.558 158.725 101.29 158.421C101.023 158.117 100.656 157.915 100.192 157.815C99.6253 157.694 99.12 157.798 98.6761 158.129C98.2335 158.454 97.9424 158.94 97.8029 159.59C97.658 160.264 97.715 160.836 97.9739 161.304C98.2406 161.768 98.6667 162.063 99.2523 162.188C99.7297 162.291 100.16 162.24 100.544 162.036C100.933 161.834 101.216 161.478 101.392 160.97L104.676 161.676C104.318 163.004 103.582 163.981 102.468 164.607C101.361 165.235 100.076 165.392 98.6117 165.077C97.135 164.76 96.0147 164.023 95.251 162.867C94.495 161.706 94.2763 160.383 94.5949 158.9C94.9135 157.417 95.6553 156.305 96.8202 155.563C97.9928 154.816 99.3175 154.601 100.794 154.918C102.214 155.223 103.298 155.866 104.046 156.846C104.801 157.827 105.104 158.974 104.955 160.287L101.632 159.573Z" fill="#FFFBE6"/>
<path d="M93.9069 158.731C93.8582 158.906 93.7743 159.16 93.6552 159.492L86.8327 157.6C86.7077 158.781 87.2004 159.526 88.3108 159.834C89.1201 160.058 89.7111 159.925 90.0838 159.434L93.2363 160.308C92.6226 161.327 91.8288 162.009 90.8549 162.354C89.881 162.698 88.7792 162.7 87.5496 162.359C86.0942 161.955 85.0287 161.156 84.3532 159.962C83.684 158.77 83.553 157.44 83.9602 155.972C84.3674 154.504 85.1649 153.431 86.3526 152.754C87.5467 152.079 88.8714 151.943 90.3269 152.346C91.7823 152.75 92.8447 153.548 93.5139 154.74C94.1831 155.933 94.3141 157.263 93.9069 158.731ZM89.6221 154.887C88.5933 154.602 87.8211 154.962 87.3057 155.967L91.0416 157.004C91.1304 155.88 90.6573 155.174 89.6221 154.887Z" fill="url(#paint5_radial_168_1672)"/>
<path d="M93.9069 158.731C93.8582 158.906 93.7743 159.16 93.6552 159.492L86.8327 157.6C86.7077 158.781 87.2004 159.526 88.3108 159.834C89.1201 160.058 89.7111 159.925 90.0838 159.434L93.2363 160.308C92.6226 161.327 91.8288 162.009 90.8549 162.354C89.881 162.698 88.7792 162.7 87.5496 162.359C86.0942 161.955 85.0287 161.156 84.3532 159.962C83.684 158.77 83.553 157.44 83.9602 155.972C84.3674 154.504 85.1649 153.431 86.3526 152.754C87.5467 152.079 88.8714 151.943 90.3269 152.346C91.7823 152.75 92.8447 153.548 93.5139 154.74C94.1831 155.933 94.3141 157.263 93.9069 158.731ZM89.6221 154.887C88.5933 154.602 87.8211 154.962 87.3057 155.967L91.0416 157.004C91.1304 155.88 90.6573 155.174 89.6221 154.887Z" fill="#FFFBE6"/>
<path d="M75.8093 150.67L76.6377 148.229L85.1549 151.119L84.3265 153.56L81.6816 152.663L79.2968 159.691L76.0693 158.596L78.4542 151.567L75.8093 150.67Z" fill="url(#paint6_radial_168_1672)"/>
<path d="M75.8093 150.67L76.6377 148.229L85.1549 151.119L84.3265 153.56L81.6816 152.663L79.2968 159.691L76.0693 158.596L78.4542 151.567L75.8093 150.67Z" fill="#FFFBE6"/>
<path d="M72.0228 155.785C70.7276 156.291 69.3733 156.251 67.9601 155.665C66.5468 155.079 65.5617 154.149 65.0047 152.875C64.4477 151.601 64.4635 150.254 65.0521 148.835C65.6407 147.415 66.5826 146.453 67.8778 145.947C69.1731 145.441 70.5273 145.481 71.9405 146.067C73.3538 146.653 74.3389 147.583 74.8959 148.857C75.4529 150.131 75.4371 151.478 74.8485 152.897C74.2599 154.317 73.318 155.279 72.0228 155.785ZM67.9672 151.799C68.1589 152.322 68.5343 152.7 69.0936 152.932C69.6529 153.164 70.1855 153.163 70.6914 152.928C71.1998 152.688 71.5812 152.261 71.8356 151.648C72.09 151.034 72.1214 150.466 71.9297 149.943C71.7405 149.413 71.3663 149.032 70.807 148.8C70.2477 148.568 69.7139 148.572 69.2055 148.813C68.6995 149.047 68.3194 149.471 68.065 150.084C67.8106 150.698 67.778 151.269 67.9672 151.799Z" fill="url(#paint7_radial_168_1672)"/>
<path d="M72.0228 155.785C70.7276 156.291 69.3733 156.251 67.9601 155.665C66.5468 155.079 65.5617 154.149 65.0047 152.875C64.4477 151.601 64.4635 150.254 65.0521 148.835C65.6407 147.415 66.5826 146.453 67.8778 145.947C69.1731 145.441 70.5273 145.481 71.9405 146.067C73.3538 146.653 74.3389 147.583 74.8959 148.857C75.4529 150.131 75.4371 151.478 74.8485 152.897C74.2599 154.317 73.318 155.279 72.0228 155.785ZM67.9672 151.799C68.1589 152.322 68.5343 152.7 69.0936 152.932C69.6529 153.164 70.1855 153.163 70.6914 152.928C71.1998 152.688 71.5812 152.261 71.8356 151.648C72.09 151.034 72.1214 150.466 71.9297 149.943C71.7405 149.413 71.3663 149.032 70.807 148.8C70.2477 148.568 69.7139 148.572 69.2055 148.813C68.6995 149.047 68.3194 149.471 68.065 150.084C67.8106 150.698 67.778 151.269 67.9672 151.799Z" fill="#FFFBE6"/>
<path d="M58.1374 151.172C57.0929 150.64 56.4365 149.798 56.1681 148.646L53.3733 154.138L50.3358 152.593L57.139 139.224L60.0807 140.721L59.5005 141.861C60.6194 141.328 61.7359 141.344 62.85 141.911C64.0394 142.517 64.7871 143.43 65.0929 144.652C65.4074 145.872 65.2089 147.18 64.4973 148.579C63.7856 149.977 62.8429 150.911 61.6691 151.38C60.5041 151.846 59.3268 151.777 58.1374 151.172ZM58.7048 148.14C59.2444 148.415 59.7784 148.457 60.3067 148.265C60.8381 148.068 61.2543 147.674 61.5555 147.082C61.8567 146.49 61.9291 145.924 61.7728 145.384C61.6194 144.839 61.2729 144.429 60.7333 144.154C60.2053 143.885 59.6757 143.85 59.1443 144.047C58.6218 144.241 58.2099 144.634 57.9087 145.226C57.6076 145.818 57.5307 146.385 57.6783 146.928C57.8346 147.467 58.1768 147.872 58.7048 148.14Z" fill="url(#paint8_radial_168_1672)"/>
<path d="M58.1374 151.172C57.0929 150.64 56.4365 149.798 56.1681 148.646L53.3733 154.138L50.3358 152.593L57.139 139.224L60.0807 140.721L59.5005 141.861C60.6194 141.328 61.7359 141.344 62.85 141.911C64.0394 142.517 64.7871 143.43 65.0929 144.652C65.4074 145.872 65.2089 147.18 64.4973 148.579C63.7856 149.977 62.8429 150.911 61.6691 151.38C60.5041 151.846 59.3268 151.777 58.1374 151.172ZM58.7048 148.14C59.2444 148.415 59.7784 148.457 60.3067 148.265C60.8381 148.068 61.2543 147.674 61.5555 147.082C61.8567 146.49 61.9291 145.924 61.7728 145.384C61.6194 144.839 61.2729 144.429 60.7333 144.154C60.2053 143.885 59.6757 143.85 59.1443 144.047C58.6218 144.241 58.2099 144.634 57.9087 145.226C57.6076 145.818 57.5307 146.385 57.6783 146.928C57.8346 147.467 58.1768 147.872 58.7048 148.14Z" fill="#FFFBE6"/>
<path d="M46.9626 144.79L54.764 131.979L60.953 135.747L59.4445 138.225L56.1248 136.203L49.8319 146.538L46.9626 144.79Z" fill="url(#paint9_radial_168_1672)"/>
<path d="M46.9626 144.79L54.764 131.979L60.953 135.747L59.4445 138.225L56.1248 136.203L49.8319 146.538L46.9626 144.79Z" fill="#FFFBE6"/>
<path d="M157.221 183.937L157.957 193.91L142.998 195.013L142.262 185.04L145.758 184.782L146.304 192.184L148.593 192.015L148.047 184.614L151.436 184.364L151.982 191.765L154.378 191.589L153.832 184.187L157.221 183.937Z" fill="url(#paint10_radial_168_1672)"/>
<path d="M157.221 183.937L157.957 193.91L142.998 195.013L142.262 185.04L145.758 184.782L146.304 192.184L148.593 192.015L148.047 184.614L151.436 184.364L151.982 191.765L154.378 191.589L153.832 184.187L157.221 183.937Z" fill="#FFFBE6"/>
<path d="M137.611 195.109L137.592 191.388L134.594 191.404L134.613 195.124L131.205 195.142L131.153 185.142L134.561 185.125L134.581 188.845L137.579 188.83L137.56 185.109L140.958 185.092L141.009 195.092L137.611 195.109Z" fill="url(#paint11_radial_168_1672)"/>
<path d="M137.611 195.109L137.592 191.388L134.594 191.404L134.613 195.124L131.205 195.142L131.153 185.142L134.561 185.125L134.581 188.845L137.579 188.83L137.56 185.109L140.958 185.092L141.009 195.092L137.611 195.109Z" fill="#FFFBE6"/>
<path d="M127.458 194.848C127.198 195.715 126.909 196.46 126.59 197.082C126.27 197.704 125.891 198.239 125.45 198.685C125.01 199.139 124.494 199.467 123.903 199.671C123.319 199.876 122.656 199.959 121.915 199.921C121.213 199.884 120.603 199.774 120.084 199.591L120.214 197.075C120.715 197.231 121.205 197.322 121.686 197.347C122.441 197.386 123.076 197.2 123.593 196.79L120.759 184.645L124.075 184.817L125.299 192.908L127.391 184.988L130.668 185.158L127.458 194.848Z" fill="url(#paint12_radial_168_1672)"/>
<path d="M127.458 194.848C127.198 195.715 126.909 196.46 126.59 197.082C126.27 197.704 125.891 198.239 125.45 198.685C125.01 199.139 124.494 199.467 123.903 199.671C123.319 199.876 122.656 199.959 121.915 199.921C121.213 199.884 120.603 199.774 120.084 199.591L120.214 197.075C120.715 197.231 121.205 197.322 121.686 197.347C122.441 197.386 123.076 197.2 123.593 196.79L120.759 184.645L124.075 184.817L125.299 192.908L127.391 184.988L130.668 185.158L127.458 194.848Z" fill="#FFFBE6"/>
<path d="M109.557 193.549L111.072 178.625L120.73 179.606L119.215 194.529L115.834 194.186L117.056 182.148L114.17 181.855L112.948 193.893L109.557 193.549Z" fill="url(#paint13_radial_168_1672)"/>
<path d="M109.557 193.549L111.072 178.625L120.73 179.606L119.215 194.529L115.834 194.186L117.056 182.148L114.17 181.855L112.948 193.893L109.557 193.549Z" fill="#FFFBE6"/>
<defs>
<radialGradient id="paint0_radial_168_1672" cx="0" cy="0" r="1" gradientTransform="matrix(17.1727 13.3053 -100.853 -18.1166 88.1023 153.012)" gradientUnits="userSpaceOnUse">
<stop stop-color="#FF8B68"/>
<stop offset="1" stop-color="#FD5624"/>
</radialGradient>
<radialGradient id="paint1_radial_168_1672" cx="0" cy="0" r="1" gradientTransform="matrix(17.1727 13.3053 -100.853 -18.1166 88.1023 153.012)" gradientUnits="userSpaceOnUse">
<stop stop-color="#FF8B68"/>
<stop offset="1" stop-color="#FD5624"/>
</radialGradient>
<radialGradient id="paint2_radial_168_1672" cx="0" cy="0" r="1" gradientTransform="matrix(17.1727 13.3053 -100.853 -18.1166 88.1023 153.012)" gradientUnits="userSpaceOnUse">
<stop stop-color="#FF8B68"/>
<stop offset="1" stop-color="#FD5624"/>
</radialGradient>
<radialGradient id="paint3_radial_168_1672" cx="0" cy="0" r="1" gradientTransform="matrix(17.1727 13.3053 -100.853 -18.1166 88.1023 153.012)" gradientUnits="userSpaceOnUse">
<stop stop-color="#FF8B68"/>
<stop offset="1" stop-color="#FD5624"/>
</radialGradient>
<radialGradient id="paint4_radial_168_1672" cx="0" cy="0" r="1" gradientTransform="matrix(17.1727 13.3053 -100.853 -18.1166 88.1023 153.012)" gradientUnits="userSpaceOnUse">
<stop stop-color="#FF8B68"/>
<stop offset="1" stop-color="#FD5624"/>
</radialGradient>
<radialGradient id="paint5_radial_168_1672" cx="0" cy="0" r="1" gradientTransform="matrix(17.1727 13.3053 -100.853 -18.1166 88.1023 153.012)" gradientUnits="userSpaceOnUse">
<stop stop-color="#FF8B68"/>
<stop offset="1" stop-color="#FD5624"/>
</radialGradient>
<radialGradient id="paint6_radial_168_1672" cx="0" cy="0" r="1" gradientTransform="matrix(17.1727 13.3053 -100.853 -18.1166 88.1023 153.012)" gradientUnits="userSpaceOnUse">
<stop stop-color="#FF8B68"/>
<stop offset="1" stop-color="#FD5624"/>
</radialGradient>
<radialGradient id="paint7_radial_168_1672" cx="0" cy="0" r="1" gradientTransform="matrix(17.1727 13.3053 -100.853 -18.1166 88.1023 153.012)" gradientUnits="userSpaceOnUse">
<stop stop-color="#FF8B68"/>
<stop offset="1" stop-color="#FD5624"/>
</radialGradient>
<radialGradient id="paint8_radial_168_1672" cx="0" cy="0" r="1" gradientTransform="matrix(17.1727 13.3053 -100.853 -18.1166 88.1023 153.012)" gradientUnits="userSpaceOnUse">
<stop stop-color="#FF8B68"/>
<stop offset="1" stop-color="#FD5624"/>
</radialGradient>
<radialGradient id="paint9_radial_168_1672" cx="0" cy="0" r="1" gradientTransform="matrix(17.1727 13.3053 -100.853 -18.1166 88.1023 153.012)" gradientUnits="userSpaceOnUse">
<stop stop-color="#FF8B68"/>
<stop offset="1" stop-color="#FD5624"/>
</radialGradient>
<radialGradient id="paint10_radial_168_1672" cx="0" cy="0" r="1" gradientTransform="matrix(16.489 13.1736 -97.2386 -17.4202 84.2299 179.087)" gradientUnits="userSpaceOnUse">
<stop stop-color="#FF8B68"/>
<stop offset="1" stop-color="#FD5624"/>
</radialGradient>
<radialGradient id="paint11_radial_168_1672" cx="0" cy="0" r="1" gradientTransform="matrix(16.489 13.1736 -97.2386 -17.4202 84.23 179.087)" gradientUnits="userSpaceOnUse">
<stop stop-color="#FF8B68"/>
<stop offset="1" stop-color="#FD5624"/>
</radialGradient>
<radialGradient id="paint12_radial_168_1672" cx="0" cy="0" r="1" gradientTransform="matrix(16.489 13.1736 -97.2386 -17.4202 84.23 179.087)" gradientUnits="userSpaceOnUse">
<stop stop-color="#FF8B68"/>
<stop offset="1" stop-color="#FD5624"/>
</radialGradient>
<radialGradient id="paint13_radial_168_1672" cx="0" cy="0" r="1" gradientTransform="matrix(16.489 13.1736 -97.2386 -17.4202 84.23 179.087)" gradientUnits="userSpaceOnUse">
<stop stop-color="#FF8B68"/>
<stop offset="1" stop-color="#FD5624"/>
</radialGradient>
</defs>
</svg>
