<svg width="151" height="166" viewBox="0 0 151 166" fill="none" xmlns="http://www.w3.org/2000/svg">
<path d="M25.9603 31.0529C25.9624 31.0525 25.9733 31.0497 25.9926 31.0445C26.0114 31.0394 26.0323 31.0318 26.055 31.0245C27.3717 30.0801 28.6417 29.2034 29.4061 28.6918C30.0417 28.2664 30.446 28.0111 30.8921 27.7847L31.3626 27.5624L31.4612 27.5193L31.5612 27.4799C33.5041 26.7285 35.4001 26.0439 37.3486 25.4379C38.7009 25.0173 40.117 24.6414 41.5991 24.5703C43.4143 24.4832 46.3055 24.5691 49.1948 26.3797C50.3724 27.1177 51.38 27.8612 52.0477 28.3928C52.353 28.6359 52.6855 28.9118 52.9401 29.1572C52.9969 29.2119 53.1453 29.3567 53.3062 29.5468C53.3642 29.6154 53.5777 29.8677 53.7853 30.2294C53.8766 30.3885 54.1183 30.824 54.2635 31.4369C54.3814 31.9347 54.6876 33.6441 53.4263 35.2534C52.1424 36.8915 50.3729 36.9845 49.8237 36.9775C49.3297 36.9711 48.9272 36.8832 48.6847 36.8164C48.7015 37.1295 48.6888 37.4687 48.6261 37.8296C48.4571 38.8026 47.9767 39.6775 47.2797 40.3352C46.6377 40.941 45.9601 41.2266 45.5109 41.3648C45.32 41.4235 45.1361 41.4638 44.9642 41.4939C45.1571 42.1334 45.2608 42.9615 45.0289 43.8974C44.6917 45.2583 43.8387 46.0963 43.2272 46.5263C42.6496 46.9324 42.1071 47.1128 41.8234 47.1939C41.411 47.312 41.0576 47.3459 41.0275 47.3492C40.9229 47.3605 40.8294 47.367 40.7912 47.3697C40.6511 47.3799 40.6766 47.3771 40.5706 47.3853C40.4521 47.3944 40.2904 47.4101 40.0776 47.4432C39.6528 47.5092 38.9474 47.6583 37.9931 48.019C35.9332 48.7978 34.601 49.6113 33.6049 50.5477C32.6273 51.4668 31.7546 52.7108 30.9047 54.6625C30.9001 54.6786 30.8952 54.6991 30.8884 54.7242C30.8637 54.8149 30.7611 55.2129 30.6492 55.5587C30.3867 56.3704 29.8484 57.6743 28.558 58.7758C28.3799 58.9278 27.4714 59.7599 26.7579 60.2632C26.3586 60.5449 25.6821 60.9823 24.8189 61.2562C23.9155 61.5428 22.3903 61.7697 20.799 60.9549C19.1911 60.1316 18.4973 58.7137 18.191 57.9813L17.8894 57.2455C17.2297 55.5808 16.867 54.2384 16.9449 52.3935C16.9802 51.5571 17.0839 50.8358 17.2131 50.2155C16.9409 50.002 16.67 49.7756 16.413 49.533C15.8108 48.9648 14.3676 47.5007 14.1707 45.3075L14.1217 44.8679C13.9762 43.5903 13.6902 40.6203 15.067 37.4409L15.2336 37.0837C16.1342 35.2989 17.9961 33.5103 20.5436 32.4592C22.7042 31.5678 24.7728 31.207 25.9603 31.0529ZM23.9758 40.7789C23.606 40.9316 23.3727 41.1089 23.25 41.2239C23.2455 41.2281 23.2415 41.2325 23.2374 41.2364C22.9785 41.9348 22.967 42.5433 23.0268 43.3249C23.1622 43.4178 23.3103 43.5128 23.4654 43.6038C24.4261 44.1677 25.2307 44.8816 25.8139 45.7402C26.3144 45.1255 26.8535 44.542 27.4394 43.9911C28.4178 43.0712 29.4759 42.2865 30.6103 41.6025C30.2981 40.5211 30.4609 39.5982 30.604 39.0886C30.6363 38.9735 30.6729 38.8632 30.7114 38.7575C30.206 39.0593 29.6743 39.2833 29.2995 39.4238C28.7496 39.6297 27.9854 39.8654 27.1418 39.9735C26.3672 40.0728 25.1412 40.2981 23.9758 40.7789Z" fill="#356859"/>
<path d="M45.468 30.6555C45.8786 28.2044 48.1989 26.55 50.65 26.9605C51.5451 27.1105 52.4148 27.4014 52.6562 27.475C53.7707 27.775 54.9711 28.1727 56.2316 28.7959L56.4788 28.9181L56.7096 29.0697C59.5528 30.9388 63.5849 33.7954 65.7881 35.7309C68.4216 38.0444 70.9225 40.3384 73.3479 41.839C74.5764 42.599 77.0197 43.8162 80.6859 45.6649C84.2259 47.45 88.6456 49.6989 93.4677 52.3845C99.3882 55.6818 103.409 58.3143 107.201 61.4402C111.327 64.8425 116.895 70.8112 122.069 80.4831C124.72 85.4393 127.162 90.936 128.369 94.2145C129.913 98.4109 130.936 102.563 130.827 109.786C130.762 114.045 130.581 117.778 130.247 120.762C130.08 122.254 129.867 123.63 129.59 124.83C129.328 125.966 128.946 127.23 128.315 128.319C128.205 128.509 128.051 128.825 127.787 129.417C127.554 129.942 127.232 130.685 126.876 131.434C126.145 132.971 125.112 134.88 123.532 136.695C120.207 140.515 112.737 147.014 101.545 148.449C95.5461 149.218 89.5099 148.921 83.8019 146.103C77.96 143.219 71.8098 139.955 66.1116 134.683C62.5138 131.355 57.3527 126.247 52.7411 120.753C48.1115 115.237 44.2026 109.563 40.7423 103.792C37.2814 98.0205 34.3104 92.2449 31.7484 85.8774C29.2108 79.5706 27.1694 72.9031 25.7684 68.5058C24.6905 65.1225 23.8019 62.5856 23.13 60.8169C22.7935 59.9313 22.5199 59.2598 22.3113 58.7827C22.0764 58.2456 21.9907 58.1109 22.0378 58.187C20.7291 56.0742 21.3808 53.2999 23.4936 51.9912C25.6064 50.6825 28.3799 51.3348 29.6886 53.4476C30.2168 54.3003 30.8568 55.8144 31.5432 57.6211C32.2873 59.5799 33.2302 62.2769 34.3442 65.7735C35.7904 70.3129 37.7158 76.5955 40.0984 82.5171C42.4566 88.3781 45.2031 93.7296 48.4615 99.1637C51.7202 104.598 55.3594 109.873 59.6348 114.966C63.9286 120.081 68.802 124.912 72.2234 128.077C76.9142 132.417 82.073 135.213 87.7861 138.033C91.3472 139.791 95.4167 140.162 100.4 139.523C108.665 138.463 114.288 133.607 116.744 130.786C117.561 129.848 118.181 128.76 118.749 127.568C119.041 126.953 119.281 126.397 119.567 125.755C119.823 125.18 120.15 124.46 120.528 123.807C120.495 123.864 120.634 123.617 120.821 122.806C120.994 122.058 121.159 121.049 121.303 119.761C121.592 117.185 121.765 113.777 121.827 109.651C121.919 103.604 121.11 100.549 119.923 97.3225C118.879 94.4861 116.616 89.3701 114.133 84.7284C109.505 76.0787 104.684 71.0301 101.474 68.3838C98.2439 65.7203 94.7243 63.3868 89.0884 60.2479C84.4344 57.6559 80.1503 55.4743 76.6334 53.7009C73.2429 51.9911 70.2756 50.5211 68.6133 49.4927C65.3766 47.4902 62.1607 44.5241 59.8476 42.4921C58.1843 41.0309 54.7424 38.5617 52.011 36.7542C51.4822 36.5132 50.9208 36.3242 50.2523 36.1468L50.1926 36.1315L50.1333 36.1135C49.9814 36.0687 49.8315 36.0219 49.726 35.9894C49.6091 35.9533 49.5257 35.9282 49.4489 35.9061C49.3058 35.865 49.2252 35.8479 49.1629 35.8374C46.7119 35.4268 45.0575 33.1065 45.468 30.6555Z" fill="#356859"/>
<path d="M49.7901 68.8165C50.2161 66.368 52.5458 64.7288 54.9943 65.1548C55.8312 65.3004 56.409 65.6491 56.578 65.7528C56.8215 65.9022 57 66.0443 57.0923 66.1205C57.28 66.2756 57.4142 66.4132 57.4659 66.4666C57.5836 66.5882 57.6722 66.6922 57.7034 66.7294C57.7802 66.8212 57.8481 66.9094 57.8875 66.9605C57.9764 67.076 58.0848 67.2213 58.1981 67.3748C58.4304 67.6897 58.7615 68.1447 59.1721 68.7099C59.9998 69.8494 61.187 71.4884 62.6796 73.527C63.3977 74.5078 63.9306 75.0567 64.2762 75.372C64.6589 75.7212 64.7974 75.7921 65.2999 76.1719C66.138 76.8052 67.8966 78.1714 70.1854 79.7519C71.1085 80.3893 72.4609 80.9078 73.9939 81.2599C75.4911 81.6037 76.855 81.72 77.5589 81.7343C77.5589 81.7343 77.9617 81.7192 78.8835 81.348C79.7514 80.9986 80.8431 80.4304 82.1335 79.6166C82.1335 79.6166 82.1749 79.5899 82.2545 79.5171C82.3363 79.4424 82.443 79.3335 82.5723 79.1813C82.8371 78.8695 83.1342 78.4495 83.4591 77.9198C84.1273 76.8299 84.7093 75.6176 85.3122 74.3914C85.3729 74.2679 85.4239 74.0808 85.4205 73.7969C85.4192 73.6918 85.4085 73.5855 85.3942 73.4811C85.3734 73.4682 85.3528 73.4525 85.3294 73.4383C84.8422 73.1435 84.2597 72.8813 83.5259 72.5603C83.4787 72.5609 83.4236 72.5612 83.3599 72.5637C83.1243 72.5728 82.868 72.592 82.5071 72.6193C82.3391 72.6319 82.14 72.6466 81.9267 72.6599C81.9193 72.6668 81.9112 72.6735 81.9034 72.681C81.8632 72.7199 81.8248 72.7632 81.7849 72.8062C81.7955 72.9818 81.8077 73.1702 81.8258 73.3684C83.008 75.1083 82.8396 77.4961 81.3073 79.0516C79.5632 80.822 76.7136 80.8434 74.9432 79.0994C74.6155 78.7766 74.0837 78.2262 73.6639 77.4442C73.2192 76.6156 73.0758 75.8551 73.0078 75.4544L72.9915 75.3548L72.9793 75.256C72.8079 73.8761 72.6865 72.2449 72.8148 70.9764L72.8922 70.209L73.2212 69.5107C73.7164 68.4599 74.5976 67.2257 75.6487 66.2098C76.5621 65.327 78.3679 63.8614 80.8208 63.704L81.0597 63.6923L81.382 63.6769C81.5066 63.6689 81.6526 63.6581 81.8299 63.6448C82.146 63.6209 82.5797 63.5865 83.0141 63.5697C83.6621 63.5448 85.0718 63.5032 86.4715 64.0339L86.751 64.1477L87.3844 64.4233C88.1135 64.744 89.0925 65.1956 89.99 65.7388C91.0236 66.3645 93.017 67.7173 93.8138 70.1112C94.406 71.8903 94.9797 75.1256 93.3891 78.3613C92.8607 79.436 92.0707 81.0932 91.1321 82.624C90.2482 84.0655 88.8831 85.9997 86.9351 87.2284C85.3454 88.231 83.7617 89.0864 82.2454 89.6969C80.7841 90.2853 79.0926 90.768 77.3768 90.7332C76.0993 90.7072 74.119 90.5223 71.98 90.0311C69.8765 89.5479 67.2994 88.6966 65.0713 87.1581C62.5838 85.4404 60.6351 83.9276 59.8744 83.3528C59.2081 82.8493 57.5876 81.8066 55.4183 78.8437C53.913 76.7877 52.7129 75.1317 51.8898 73.9984C51.475 73.4274 51.1642 73.001 50.9554 72.7179C50.8845 72.6219 50.8333 72.553 50.798 72.5062C49.9609 71.5227 49.5514 70.1883 49.7901 68.8165ZM53.1202 73.9483C53.1371 73.9526 53.154 73.9572 53.1712 73.9613C53.1541 73.9572 53.1372 73.9525 53.1202 73.9483ZM52.3992 73.7009C52.4131 73.707 52.4274 73.7126 52.4417 73.7188C52.4275 73.7127 52.4133 73.7071 52.3992 73.7009Z" fill="#356859"/>
</svg>
