<svg width="109" height="175" viewBox="0 0 109 175" fill="none" xmlns="http://www.w3.org/2000/svg">
<path d="M29.1533 0.509766C31.7589 0.581017 34.2663 0.706206 36.79 0.946289C38.5436 1.11311 40.2504 1.35389 41.8623 1.93945C43.9216 2.68757 46.9748 4.08739 49.25 7.31055C49.5552 7.74288 49.8407 8.1692 50.1055 8.57715C50.4092 8.68597 50.706 8.82871 50.9902 9.00781C51.8936 9.57714 52.6843 10.2742 52.9639 10.5039C53.9348 11.2556 54.9295 12.1108 55.8984 13.1582L56.3242 13.6318L56.5049 13.8398L56.6592 14.0684C59.0466 17.6119 62.3034 22.8355 63.8848 26.0791C65.795 29.9973 67.637 33.9945 69.7969 37.0176C70.8928 38.5515 73.1896 41.2091 76.5234 45.1084C79.7656 48.9004 83.7928 53.6475 88.0732 59.0918C93.3216 65.7672 96.6693 70.7185 99.5098 76.1094C102.577 81.9315 106.1 91.4259 107.394 105.027C108.059 112.027 108.222 119.545 108.032 123.879C107.792 129.371 106.99 134.55 103.413 142.748C101.275 147.648 99.2672 151.856 97.4541 155.114C96.548 156.742 95.6562 158.197 94.7861 159.407C93.9542 160.565 92.9761 161.738 91.8506 162.593C91.5752 162.802 91.2012 163.134 90.6084 163.692C90.0695 164.2 89.3547 164.887 88.5908 165.571C87.0315 166.968 84.9946 168.606 82.4121 169.88C76.8467 172.625 65.3119 176.438 51.9814 172.766C44.7672 170.778 38.1372 167.589 33.0801 161.774C27.7083 155.598 22.2462 148.921 18.2637 140.189C15.7155 134.602 12.2246 126.207 9.55762 117.645C6.88221 109.055 5.1121 100.624 3.90527 92.2881C2.69831 83.9512 2.0612 75.8596 2.17969 67.2881C2.29731 58.782 3.16174 50.0955 3.67383 44.2871C4.06646 39.8335 4.26787 36.4412 4.34863 34.0352C3.40587 33.8385 2.24122 33.3578 1.30078 32.2441C0.104637 30.8275 -0.00903812 29.1912 -0.00878865 28.2754L4.08851e-07 27.3008C0.0413935 25.1243 0.260199 23.5729 1.15137 21.6729C1.71409 20.4732 2.30736 19.5574 2.85352 18.8438C2.51905 18.3042 2.20032 17.7225 1.93359 17.1221C1.52876 16.2106 0.728525 14.1574 1.42773 11.9502L1.58984 11.4023C2.04193 9.8576 3.06972 6.5434 5.99023 3.73535L6.31152 3.44629C7.9878 2.01602 10.736 0.921256 13.96 0.9375C16.7915 0.95181 19.2842 1.52095 20.6787 1.90527C20.6813 1.90593 20.6943 1.90946 20.7178 1.91406C20.7456 1.91951 20.7833 1.92647 20.8291 1.93262C20.9232 1.94523 21.0302 1.95396 21.1367 1.95801C21.1446 1.9583 21.1526 1.95875 21.1602 1.95898C23.1971 1.48888 25.1613 1.07295 26.3164 0.84668C27.3982 0.634768 27.9615 0.54845 28.6387 0.518555L28.9375 0.508789L29.0449 0.505859L29.1533 0.509766ZM43.6396 15.8584C43.6917 16.1687 43.9187 17.5849 42.9932 19.0342C42.4615 19.8666 41.6802 20.4885 40.7832 20.8262C39.9572 21.137 39.2219 21.1387 38.7539 21.0928C37.8937 21.0081 37.2796 20.695 37.0869 20.5938C36.9203 20.5061 36.7738 20.4117 36.6475 20.3262C36.7156 20.5769 36.7757 20.8788 36.7998 21.2197C36.8518 21.9556 36.747 23.1423 35.9121 24.2656C35.074 25.393 33.9605 25.8385 33.2266 26C32.533 26.1525 31.9572 26.1106 31.6582 26.0752C31.2286 26.0244 30.8858 25.9168 30.8535 25.9072C30.7476 25.8758 30.653 25.8447 30.6094 25.8301C30.4609 25.7802 30.4659 25.78 30.3398 25.7383C30.1773 25.6845 29.9519 25.6141 29.6523 25.54C29.0538 25.3922 28.0815 25.2109 26.7119 25.1631C23.8368 25.0627 21.7317 25.3686 19.9355 26.041C18.1561 26.7072 16.3924 27.8399 14.3535 29.8008C14.3812 29.7721 14.3573 29.7946 14.2383 29.9473C14.1464 30.0651 13.864 30.4383 13.5898 30.7578C13.5271 30.831 13.4578 30.9063 13.3857 30.9854C13.4033 31.9345 13.3874 33.0582 13.3457 34.3096C13.2587 36.9204 13.0432 40.4902 12.6387 45.0781C12.1135 51.0352 11.2906 59.322 11.1787 67.4131C11.0678 75.4385 11.662 83.0512 12.8125 90.998C13.9632 98.946 15.6398 106.904 18.1514 114.968C20.6713 123.058 24.0036 131.087 26.4521 136.455C29.8652 143.938 34.5937 149.799 39.8711 155.867C43.3569 159.875 48.1437 162.374 54.3711 164.09C64.8563 166.978 74.0524 163.967 78.4307 161.808C79.9703 161.048 81.3107 160.01 82.5859 158.868C83.2392 158.283 83.8068 157.734 84.4395 157.139C85.0181 156.594 85.7064 155.956 86.4072 155.424C86.4072 155.424 86.4377 155.402 86.4951 155.348C86.5536 155.292 86.6319 155.211 86.7305 155.102C86.9306 154.879 87.1809 154.568 87.4785 154.154C88.0777 153.321 88.7841 152.188 89.5908 150.738C91.2035 147.84 93.0798 143.927 95.165 139.148C98.2715 132.029 98.846 127.946 99.041 123.486C99.2099 119.623 99.0667 112.524 98.4346 105.879C97.2505 93.4324 94.0605 85.0764 91.5469 80.3057C89.0452 75.5577 86.046 71.0747 80.999 64.6553C76.8375 59.3621 72.908 54.7305 69.6826 50.958C66.5492 47.2932 63.8672 44.199 62.4746 42.25C59.7602 38.4509 57.5182 33.5581 55.7949 30.0234C54.5288 27.4267 51.6666 22.7865 49.3564 19.3398C49.0999 19.0579 48.8299 18.7909 48.543 18.5293C47.4556 18.6481 46.5862 18.3321 46.2461 18.1846C45.6496 17.9258 45.2534 17.5977 45.1113 17.4766C44.7865 17.1996 44.5734 16.9346 44.5156 16.8633C44.3547 16.6645 44.2339 16.4837 44.1846 16.4082C44.0945 16.2705 43.9176 16.0219 43.6025 15.6816C43.6145 15.7388 43.6294 15.7973 43.6396 15.8584ZM31.248 56.8525C32.5863 54.7585 35.3678 54.1454 37.4619 55.4834C38.1773 55.9405 38.576 56.4849 38.6924 56.6465C38.8593 56.8783 38.9685 57.0793 39.0244 57.1855C39.1379 57.4013 39.2098 57.58 39.2373 57.6504C39.2997 57.8098 39.3411 57.9437 39.3564 57.9932C39.3938 58.1138 39.4255 58.2303 39.4453 58.3047C39.4892 58.47 39.543 58.6819 39.5996 58.9141C39.7152 59.3877 39.8769 60.0721 40.0791 60.9287C40.4864 62.6539 41.07 65.1386 41.8135 68.2354C42.1871 69.7913 42.5638 70.7617 42.8477 71.373C43.1526 72.0298 43.3297 72.2644 43.6973 72.8955C44.3566 74.0278 45.7509 76.4975 47.6582 79.4727C48.5316 80.8349 49.981 82.195 51.6523 83.3936C53.2941 84.5709 54.892 85.409 55.7705 85.7979C55.973 85.8874 56.6246 86.0737 57.9521 86.0918C59.2208 86.109 60.8394 85.9702 62.7793 85.6445C63.2388 85.5672 64.1877 85.1555 65.6328 84.1143C66.9934 83.1339 68.3059 81.9656 69.5859 80.8486C69.8807 80.5915 70.1261 80.2358 70.3145 79.7705C70.4554 79.4222 70.5433 79.0557 70.5938 78.7227C70.5257 78.598 70.4165 78.4177 70.2451 78.1826C69.7393 77.4892 69.0797 76.7982 68.3154 75.999C68.2198 75.9536 68.071 75.8879 67.8486 75.8047C67.5464 75.6916 67.217 75.5814 66.79 75.4395C66.4914 75.3402 66.1303 75.2175 65.7627 75.084C65.6509 75.1076 65.4834 75.1533 65.2656 75.2383C65.0241 75.3325 64.7774 75.4521 64.5498 75.5801C64.4042 75.9654 64.2357 76.4597 64.0576 77.0469C64.6333 79.189 63.5518 81.48 61.4492 82.3604C59.1571 83.3197 56.5215 82.2391 55.5615 79.9473C55.3507 79.4438 55.0552 78.676 54.9648 77.7412C54.8695 76.7535 55.0382 75.948 55.1455 75.4863L55.1689 75.3896L55.1953 75.293C55.662 73.625 56.2865 71.7749 56.9873 70.4834L57.3545 69.8057L57.9277 69.2881C58.8989 68.412 60.3978 67.4774 61.9941 66.8545C63.4049 66.304 65.888 65.6031 68.416 66.4746L68.6602 66.5635L69.0801 66.7148C69.2384 66.7695 69.4183 66.8304 69.6289 66.9004C70.0133 67.0282 70.5122 67.1922 71.001 67.375C71.7611 67.6593 73.2172 68.2303 74.3945 69.3457L74.626 69.5752L75.2295 70.2051C75.9089 70.9199 76.7812 71.8711 77.5176 72.8809C78.3871 74.0733 79.816 76.3176 79.6113 79.043C79.4463 81.2383 78.6031 84.9254 75.5039 87.6299C74.3511 88.6358 72.6748 90.1332 70.8945 91.416C69.1994 92.6375 66.8544 94.0865 64.2695 94.5205C61.9806 94.9048 59.7977 95.1185 57.8301 95.0918C55.9219 95.0658 53.9005 94.8118 52.1279 94.0273C50.7245 93.4062 48.5838 92.2679 46.4072 90.707C44.2603 89.1674 41.8104 87.0274 40.0811 84.3301C38.0433 81.1516 36.5304 78.474 35.9199 77.4258C35.3981 76.5297 34.0995 74.6552 33.0625 70.3359C32.3141 67.2186 31.7258 64.7146 31.3203 62.9971C31.1163 62.133 30.9617 61.4823 30.8555 61.0469C30.8132 60.8735 30.783 60.7517 30.7627 60.6729C30.3591 59.4356 30.4926 58.0347 31.248 56.8525ZM29.0117 9.51074L28.958 9.51562C28.8426 9.53084 28.6071 9.56995 28.0469 9.67969C27.0469 9.87558 25.31 10.2419 23.4697 10.6631C23.3121 10.7167 23.1498 10.7631 22.9834 10.7998C22.2326 10.9651 21.3854 10.9746 20.7949 10.9521C20.1122 10.9262 19.2054 10.8351 18.2871 10.582C17.2879 10.3067 15.6451 9.9463 13.915 9.9375C13.2651 9.93422 12.7676 10.0532 12.4414 10.1748C12.2983 10.2282 12.1981 10.2782 12.1406 10.3105C11.0936 11.3549 10.7015 12.4424 10.2959 13.7441C10.3498 13.844 10.413 13.9568 10.4883 14.0791C10.6405 14.3263 10.8191 14.585 11.0088 14.8379C12.1199 16.3189 12.6919 17.9216 12.6084 19.5547C12.6055 19.6114 12.5983 19.6672 12.5938 19.7227C13.9196 18.8709 15.3039 18.1647 16.7793 17.6123C18.5829 16.9371 20.4319 16.5237 22.3564 16.3145C22.3382 16.0841 22.3377 15.8455 22.3564 15.6006C22.4497 14.3833 22.9952 13.5279 23.3447 13.0869C23.9762 12.2906 24.7271 11.8899 24.9316 11.7803C25.5186 11.4656 26.1536 11.2573 26.5693 11.1309C27.5134 10.8437 28.713 10.5756 29.877 10.3633C30.1445 10.3145 30.4183 10.2677 30.6943 10.2227C30.6483 10.0239 30.6112 9.80217 30.5898 9.56152C30.0745 9.54157 29.5521 9.52366 29.0215 9.50879C29.0168 9.50902 29.0134 9.51057 29.0117 9.51074Z" fill="#356859"/>
</svg>
