<svg width="835" height="291" viewBox="0 0 835 291" fill="none" xmlns="http://www.w3.org/2000/svg">
<path d="M825.318 -106.063C825.906 -108.478 828.339 -109.959 830.754 -109.372C833.169 -108.784 834.651 -106.351 834.063 -103.936C823.857 -61.9724 789.305 -22.4517 767.867 -2.56018C762.788 2.15272 756.359 7.31684 749.114 12.6849L756.553 123.192L667.034 65.015C662.816 67.4438 658.934 69.648 655.504 71.5677C651.202 73.9748 646.652 76.3134 641.92 78.598L634.402 187.178L551.996 115.971C546.324 118.487 540.916 121.034 535.871 123.639C534.347 124.426 532.803 125.2 531.24 125.966L512.836 231.248L442.773 156.676C434.977 158.697 427.131 160.623 419.297 162.469L396.6 264.791L326.252 182.783C320.857 183.972 315.432 185.168 309.982 186.345L271.097 290.366L213.357 200.195C212.479 200.216 211.602 200.236 210.724 200.248C204.906 200.334 199.009 200.385 193.049 200.401L144.789 290.915L101.057 197.409C59.1235 193.622 18.5735 183.022 -15.8116 155.514C-17.7519 153.961 -18.066 151.129 -16.5138 149.189C-14.9612 147.248 -12.1292 146.934 -10.1886 148.487C26.2415 177.631 70.3443 187.007 116.904 189.52C148.932 191.248 180.778 191.688 210.592 191.249C255.023 190.596 300.084 179.106 344.283 169.63C380.903 161.779 422.427 153.484 460.871 142.412L473.315 138.691C494.515 132.106 514.465 124.563 531.741 115.643C549.187 106.635 570.742 98.3394 591.932 89.9974C613.266 81.5992 634.259 73.1433 651.108 63.7142C665.108 55.8799 686.717 43.2932 707.894 29.8129C729.152 16.282 749.689 2.0283 761.745 -9.15784C782.839 -28.7306 815.756 -66.7459 825.318 -106.063Z" fill="#FD5624"/>
</svg>
