<svg width="169" height="138" viewBox="0 0 169 138" fill="none" xmlns="http://www.w3.org/2000/svg">
<path d="M159.56 29.0172C164.299 31.7754 167.225 35.4914 168.055 39.9586C168.851 44.2428 167.555 48.3775 165.697 51.8005C162.022 58.5693 155.123 64.4649 150.296 67.2864C146.703 69.3866 143.752 70.0443 141.691 70.594C137.833 71.6233 133.254 72.4913 126.589 74.4595C123.375 75.4088 119.784 76.9866 116.607 78.584C110.856 81.476 107.695 83.9247 102.316 87.3325C86.7663 97.1837 72.2156 107.749 57.8257 119.24C55.7506 120.897 53.5112 122.891 50.6498 125.054C43.9539 130.115 38.522 133.342 35.8086 134.491C32.2229 136.01 28.1811 137.755 24.2013 137.966C19.6581 138.207 15.5922 136.499 11.9174 132.455C5.16717 125.027 1.39138 117.946 0.319191 111.046C-0.767262 104.054 1.0078 97.8025 4.30712 92.2791C7.55191 86.847 12.3127 82.0387 17.3928 77.6922C22.4693 73.3487 28.1781 69.2121 33.362 65.3182C36.3374 63.0832 40.0035 60.7497 43.2848 58.6936C46.6834 56.5641 49.5602 54.7967 51.3248 53.5159C56.0408 50.0929 58.7925 47.5125 60.4888 45.7412C60.3855 45.6479 60.2787 45.5488 60.1652 45.4478C59.1961 44.586 57.6385 43.2692 56.5315 41.8862C53.3949 37.9674 53.2584 33.5418 53.037 30.8446C52.8457 28.5137 53.52 26.3916 54.3845 24.6261C55.2479 22.8628 56.4443 21.1681 57.6707 19.6018C60.1815 16.395 62.8193 14.6424 65.5691 13.9329C67.9834 13.31 70.5206 13.6494 70.7939 13.6571C72.026 13.6919 72.9679 14.0209 73.4759 14.2078L73.8616 14.361C74.3951 14.5891 74.8893 14.8679 75.346 15.1784C76.4652 12.6499 78.0399 10.9719 79.3494 9.67719C82.0522 7.00519 85.8668 6.50084 88.4209 6.52911C92.4329 6.57353 95.3477 8.22961 97.3351 9.83201C98.3271 7.7958 100.07 5.35801 102.292 3.43814C104.488 1.54097 107.883 -0.4569 111.935 0.0924673C116.139 0.66258 119.459 2.43401 121.543 5.41775C123.372 8.0359 123.858 11.0389 123.798 13.6816C123.961 13.6479 124.125 13.6152 124.292 13.5864C128.144 12.9212 131.54 13.1755 134.409 14.37C137.321 15.5823 139.345 17.6219 140.623 19.8997C141.87 22.1218 142.386 24.5185 142.48 26.6178C142.501 27.0862 142.502 27.5577 142.482 28.0271C143.295 27.6325 144.134 27.2769 145.001 26.9862C149.636 25.4314 154.278 25.9427 159.56 29.0172ZM159.206 41.6028C158.963 40.2939 158.075 38.5659 155.034 36.7957C151.645 34.8235 149.687 34.907 147.862 35.5188C146.742 35.8945 145.494 36.5453 143.903 37.5398C142.239 38.5804 140.651 39.6994 138.452 41.1432L130.152 46.5948L131.525 36.7597C131.852 34.4139 131.636 32.8155 133.264 28.9826C133.35 28.7783 133.536 28.0629 133.489 27.021C133.445 26.0255 133.2 25.0617 132.775 24.304C132.381 23.6024 131.822 23.0415 130.95 22.6785C130.036 22.2977 128.447 22.0021 125.824 22.4551C123.113 22.9234 121.775 24.7611 119.105 27.943C118.023 29.5006 116.57 31.0851 115.465 32.26C115.249 32.5157 115.042 32.7627 114.844 32.9939C114.265 33.6727 113.743 34.2763 113.376 34.6818C113.237 34.8347 112.972 35.1271 112.707 35.3649C112.641 35.4241 112.454 35.5904 112.199 35.7652C112.083 35.8448 111.801 36.0315 111.409 36.1988C111.237 36.2723 109.979 36.8414 108.394 36.3867C107.417 36.1061 106.515 35.4866 105.899 34.5708C105.342 33.7422 105.191 32.9306 105.148 32.4429C105.072 31.5568 105.284 30.8784 105.334 30.7156C105.475 30.2602 105.662 29.923 105.7 29.8541C105.982 29.3341 106.334 28.9036 106.505 28.6979C106.725 28.4325 106.971 28.1571 107.206 27.9018C107.638 27.4333 108.22 26.8257 108.741 26.2734C109.706 25.1342 110.831 23.7979 111.892 22.5364C112.875 20.9897 114.589 17.1947 114.788 13.8594C114.887 12.1938 114.577 11.164 114.164 10.5723C113.84 10.1079 113.051 9.32695 110.725 9.01157C110.375 8.964 109.506 9.09837 108.175 10.2484C106.91 11.3413 105.884 12.8127 105.404 13.8173C104.341 16.0452 103.132 18.4138 102.255 20.65C102.239 22.5617 102.042 24.6545 102.018 25.2009C101.982 26.0591 101.76 26.8277 101.497 27.4164C101.391 27.6536 101.127 28.2114 100.63 28.7615C100.466 28.9427 99.7306 29.7634 98.4345 30.1169C97.6573 30.3288 96.6047 30.3855 95.5097 29.9313C94.4413 29.4881 93.7808 28.7443 93.4133 28.1607C92.1563 26.1646 92.2219 23.9439 92.4162 22.503C92.5647 21.4013 92.8577 20.2814 93.205 19.2159C93.1714 18.8367 93.1248 18.5257 93.0655 18.2829C93.0427 18.1897 93.0213 18.1212 93.0051 18.0736C91.5242 16.5617 90.278 15.5505 88.3217 15.5287C86.6002 15.5096 85.8081 15.9481 85.677 16.0774C84.3439 17.3955 83.5615 18.3408 83.1614 20.0886C82.5808 22.6243 82.3566 24.038 82.5307 25.2638C82.6097 25.8199 82.663 26.3715 82.7018 26.8923C83.2497 28.4462 83.6654 29.861 83.9279 30.9135C84.0648 31.4619 84.1719 32.0841 84.1788 32.715C84.1818 32.98 84.1741 33.5435 83.9896 34.1934C83.905 34.4915 83.6841 35.1759 83.1192 35.8656C82.4722 36.6558 81.15 37.66 79.268 37.5177C76.6375 37.3187 75.2134 35.4762 74.6241 34.1347C74.124 32.9962 73.9871 31.7822 73.9216 31.0443C73.8558 30.3015 73.8244 29.4325 73.7944 28.7514C73.4852 27.9502 73.1412 27.1294 72.7641 26.3413C72.1789 25.1183 71.5853 24.1109 71.0311 23.3984C70.6393 22.8949 70.3919 22.6997 70.3198 22.6446C68.7294 22.5885 68.5593 22.4565 67.8171 22.648C67.3772 22.7616 66.3238 23.1498 64.7571 25.1508C63.6731 26.5354 62.9224 27.6538 62.467 28.5839C62.0129 29.5112 61.9956 29.9634 62.0074 30.1078C62.2756 33.3742 62.4301 34.8538 63.5575 36.2623C64.0587 36.8885 64.8411 37.5628 66.1456 38.7229C67.1479 39.6143 68.6129 40.9233 69.6694 42.4747L69.8739 42.7878L70.0514 43.0884C70.4647 43.8389 70.8539 44.9338 70.7126 46.276C70.5753 47.5799 69.9924 48.5844 69.4145 49.2877L69.1683 49.5709L68.6144 50.1917C67.0875 51.9175 63.8204 55.5671 56.6119 60.7993C54.5236 62.3151 51.252 64.3223 48.0637 66.3202C44.7579 68.3916 41.3977 70.5388 38.7673 72.5146C33.3974 76.5482 28.0369 80.4295 23.244 84.5303C18.4546 88.6281 14.545 92.6909 12.0341 96.8945C9.57768 101.007 8.51148 105.156 9.21223 109.665C9.92747 114.267 12.5683 119.79 18.5779 126.403C20.6647 128.699 22.2041 129.059 23.7241 128.978C25.8078 128.868 28.2892 127.901 32.2987 126.203C33.9987 125.483 38.7381 122.775 45.2227 117.874C48.0979 115.701 49.4991 114.371 52.2089 112.207C66.8126 100.545 81.6313 89.7825 97.4999 79.7292C102.278 76.7018 106.286 73.7006 112.564 70.5435C115.966 68.8327 120.096 66.9936 124.04 65.8288C130.616 63.8867 136.455 62.6761 139.372 61.8979C141.6 61.3034 143.373 60.9073 145.754 59.5157C149.584 57.2775 155.101 52.4545 157.788 47.5056C159.11 45.0697 159.483 43.0949 159.206 41.6028Z" fill="#356859"/>
</svg>
