<svg width="151" height="221" viewBox="0 0 151 221" fill="none" xmlns="http://www.w3.org/2000/svg">
<path d="M128.596 0.587933C135.562 0.308875 141.041 2.29189 144.803 6.32407C148.438 10.2199 149.877 15.402 150.225 20.3867C150.916 30.2691 147.485 41.5457 144.172 47.9932C141.746 52.7122 139.047 55.4187 137.108 57.5299C133.622 61.3246 128.958 65.7324 122.896 72.6939C119.884 76.1516 116.93 80.5744 114.486 84.6738C110.049 92.1145 108.182 97.2744 104.631 104.838C94.1953 127.066 85.3973 149.377 77.4472 172.602C76.2594 176.072 75.2301 179.744 73.5639 184.219C69.6821 194.645 65.9425 202.017 63.822 205.096C60.8401 209.426 57.7005 214.026 53.6405 216.925C49.1212 220.153 43.8094 221.106 37.1707 219.297C24.4605 215.834 15.4577 210.703 9.57606 204.015C3.63251 197.256 1.2445 189.327 1.00668 181.041C0.771948 172.862 2.62483 164.242 5.2006 155.793C7.77498 147.348 11.1991 138.692 14.2469 130.58C15.9635 126.011 18.3827 120.824 20.5976 116.166C22.8719 111.384 24.8713 107.275 25.9604 104.515C29.3305 95.9726 30.4901 90.6507 31.0381 87.4978C30.4461 87.3749 29.7602 87.2545 28.9672 87.1267C27.1902 86.8405 24.6658 86.496 22.5863 85.7869C16.7677 83.8025 13.7103 79.345 11.4766 76.401C9.81505 74.2108 9.11043 71.6391 8.83579 69.193C8.56143 66.7493 8.68304 64.1126 8.93598 61.516C9.43691 56.3737 11.0446 52.8525 13.3544 50.3787C15.4277 48.1582 18.1685 46.9112 18.697 46.5951C19.895 45.8787 20.9982 45.6153 21.6537 45.4725C23.1319 45.1503 24.6145 45.2149 25.9943 45.4678C24.8966 41.229 25.5163 37.8074 26.1406 35.0662C27.1309 30.7184 30.6353 27.7031 33.4051 25.9815C38.4427 22.8506 43.3719 23.1844 46.6885 23.8119C46.6155 23.1769 46.5476 22.5788 46.4806 22.0309C46.1355 19.2108 46.3244 15.3607 47.4037 11.7591C48.458 8.24109 50.6533 4.05701 55.0323 2.0361C59.8735 -0.19815 64.4237 -0.496531 68.4269 1.16709C72.2868 2.77124 74.8908 5.89454 76.6169 8.99729C76.796 9.31918 76.967 9.64635 77.1328 9.97658C77.6677 9.33023 78.2612 8.69968 78.9249 8.09585C82.6196 4.73457 86.3647 2.75861 90.0938 2.10819C93.869 1.44975 97.2629 2.21575 100.063 3.71735C102.806 5.18861 104.932 7.3335 106.434 9.47273C107.305 10.7147 108.035 12.0548 108.561 13.393C109.523 11.551 110.602 9.77127 111.901 8.16504C115.684 3.48739 120.832 0.899062 128.596 0.587933ZM138.223 12.4647C136.652 10.7813 133.959 9.38045 128.956 9.58093C123.381 9.80437 120.817 11.4532 118.898 13.8251C117.802 15.1815 116.806 16.9261 115.714 19.218C114.583 21.5886 113.565 24.0584 112.158 27.1894L108.085 36.2467L103.96 27.2138C102.565 24.159 101.335 22.8244 100.465 17.6164C100.372 17.0573 99.9607 15.9162 99.0672 14.643C98.2005 13.4081 97.072 12.3255 95.8086 11.6479C94.6018 11.0008 93.2379 10.6954 91.6402 10.9741C89.9965 11.2608 87.7533 12.2301 84.9808 14.7524C81.7761 17.668 81.5818 21.365 80.88 26.6932C80.7896 29.1274 80.3018 31.9037 79.8952 34.0421C79.834 34.4889 79.7778 34.918 79.721 35.3225C79.556 36.4991 79.4044 37.5308 79.2858 38.2244C79.2378 38.505 79.1597 38.949 79.0564 39.3205C79.0306 39.4132 78.9607 39.659 78.8378 39.9471C78.7817 40.0787 78.6439 40.3895 78.402 40.7426C78.295 40.8989 77.5388 42.0539 75.9575 42.5217C74.9819 42.8104 73.8879 42.773 72.876 42.3312C71.9608 41.9315 71.3972 41.3273 71.0995 40.9383C70.5585 40.231 70.373 39.5438 70.3277 39.3781C70.2008 38.9149 70.176 38.525 70.1702 38.44C70.1264 37.809 70.1957 37.197 70.2387 36.8562C70.2914 36.4386 70.3675 35.983 70.4472 35.5376C70.5963 34.7042 70.8123 33.6225 71.0078 32.6021C71.2826 30.5899 71.5973 28.2232 71.8925 26.007C71.9103 23.4223 71.0956 17.5854 68.7522 13.3729C67.5808 11.2675 66.2816 10.0216 64.9731 9.47778C63.8078 8.99353 61.9234 8.76735 58.8033 10.2073C57.815 10.6634 56.7514 11.9198 56.0252 14.3429C55.3241 16.6827 55.2103 19.2758 55.4137 20.9377C55.8157 24.2233 56.1671 27.9457 56.8302 31.2261C58.2042 33.3835 59.4841 35.9084 59.9411 36.6978C60.4067 37.5019 60.6529 38.3402 60.7553 39.0307C60.7972 39.3141 60.8757 39.948 60.7498 40.6932C60.7079 40.9411 60.5255 42.0342 59.6191 43.0319C59.0761 43.6297 58.2175 44.2435 57.0483 44.449C55.9072 44.6496 54.9484 44.3771 54.3227 44.0813C51.9591 42.9637 50.6358 40.813 49.8739 39.1655C49.2595 37.8369 48.7923 36.3528 48.4239 34.8699C48.011 34.3114 47.6224 33.8562 47.2648 33.5137C46.8629 33.1288 46.6434 33.0224 46.6145 33.0072C43.7196 32.3188 40.9902 31.8641 38.1563 33.6254C36.0933 34.9076 35.103 36.2436 34.916 37.065C34.3402 39.5929 34.0667 41.548 35.0087 44.1938C36.1611 47.4302 36.9976 49.4327 38.2732 50.9219C38.7778 51.5111 39.2479 52.1193 39.6801 52.7034C41.4338 54.0689 42.9359 55.3786 43.9858 56.3748C44.4769 56.8408 44.9562 57.3745 45.3327 57.9515C45.4935 58.1979 45.8003 58.6978 45.9983 59.36C46.0893 59.6646 46.2708 60.3657 46.1646 61.255C46.0428 62.2737 45.4646 63.8336 43.7976 64.7264C41.3527 66.0357 39.0416 65.2237 37.6983 64.3248C36.5394 63.5493 35.6411 62.4555 35.0521 61.6896C34.4226 60.8711 33.7406 59.8716 33.1813 59.0776C33.1754 59.0692 33.1695 59.0608 33.1637 59.0525C32.16 58.3058 31.0878 57.5609 29.9989 56.8823C28.4171 55.8964 26.931 55.1323 25.6632 54.6802C24.3094 54.1976 23.6789 54.2421 23.5699 54.2659C23.3845 54.3063 23.3151 54.3265 23.2856 54.3362C21.4722 55.4179 20.8457 55.5432 19.9329 56.5207C19.2514 57.2506 18.2456 58.7703 17.8931 62.3888C17.6626 64.7555 17.6091 66.6676 17.78 68.1894C17.9506 69.7085 18.3117 70.5195 18.6472 70.9616C21.2259 74.3604 22.7159 76.3224 25.4908 77.2689C26.6527 77.6651 28.1785 77.8833 30.3988 78.241C32.3078 78.5485 34.9088 78.9843 37.0904 80.0138C37.9539 80.4214 39.1066 81.2023 39.8271 82.648C40.4403 83.8786 40.5003 85.1122 40.3792 86.1116L40.3175 86.525L40.1402 87.6123C39.6648 90.614 38.6291 96.9271 34.3322 107.818C33.0963 110.951 30.8931 115.473 28.7254 120.032C26.4982 124.715 24.2364 129.58 22.6716 133.744C19.542 142.074 16.275 150.329 13.8093 158.417C11.3452 166.5 9.80891 174.034 10.0025 180.783C10.1932 187.425 12.0509 193.2 16.3351 198.072C20.6814 203.014 27.889 207.44 39.5369 210.614C43.8977 211.803 46.3546 211.07 48.4103 209.601C50.9252 207.805 53.167 204.701 56.4098 199.992C57.9061 197.819 61.3398 191.257 65.1293 181.079C66.8016 176.587 67.4818 173.926 68.9327 169.687C76.9714 146.203 85.8881 123.582 96.4842 101.012C99.733 94.0922 102.016 88.0121 106.756 80.0645C109.329 75.7483 112.598 70.8155 116.109 66.7838C122.111 59.892 127.653 54.5195 130.479 51.4424C132.536 49.2031 134.383 47.3505 136.167 43.8803C138.952 38.4611 141.794 28.8312 141.248 21.0145C140.978 17.1501 139.921 14.2844 138.223 12.4647Z" fill="#356859"/>
</svg>
