<svg width="104" height="151" viewBox="0 0 104 151" fill="none" xmlns="http://www.w3.org/2000/svg">
<path d="M52.0897 19.0754C52.0163 21.9313 50.8666 26.1214 50.9275 26.9987C50.9697 27.6071 51.5808 22.8918 52.0897 19.0754ZM52.0897 19.0754C52.5177 15.8658 52.6424 11.9691 55.8226 9.07587C64.5041 1.17772 70.6128 9.05766 71.2268 12.7341C71.7235 15.7078 72.23 15.9866 73.3409 18.4188C76.8974 10.5082 78.2962 5.17942 87.2495 4.82067C103.316 4.17687 98.9895 24.2752 94.8963 32.2399C93.4839 34.9882 91.9576 36.518 90.6166 37.978C88.4985 40.2841 85.0736 43.566 81.025 48.215C78.8362 50.7284 76.7477 53.8681 75.0636 56.6924C71.9841 61.8566 70.5918 65.6286 68.31 70.4891C61.2519 85.523 55.3069 100.601 49.9412 116.277C49.0556 118.864 48.4817 120.989 47.3613 123.998C44.7869 130.913 42.3801 135.589 41.1663 137.351C36.9883 143.418 33.9426 147.694 26.56 145.682C-6.13778 136.772 4.91473 112.183 13.2071 90.1124C15.4094 84.2509 19.491 76.62 21.0515 72.6648C24.2248 64.6214 24.6196 60.5505 24.9043 58.9519C25.0168 58.3202 24.7959 58.0193 24.423 57.8433C22.3882 56.883 19.1275 56.8698 16.9519 56.1278C14.0679 55.1443 12.5419 52.9901 10.9268 50.8615C9.58625 49.0947 9.4966 46.3205 9.82111 42.9891C10.3939 37.1091 13.3293 36.2233 14.9166 35.2739C15.2953 35.0474 15.6522 34.9536 15.9943 34.8791C19.5035 34.1144 25.8778 39.1752 28.2611 41.4367C28.6989 41.8522 28.858 42.1512 28.7879 42.1888C27.4981 42.8796 26.1367 39.7975 24.212 37.5506C22.9421 36.0681 22.2252 34.2054 21.4696 32.0833C20.5492 29.4985 20.8769 27.5059 21.3077 25.6145C21.7028 23.8797 23.2112 22.4194 24.8332 21.4113C27.8765 19.5199 30.8286 20.1528 32.8312 20.6302C35.3551 21.2318 37.4249 25.8072 38.4352 27.5523C38.6251 27.8803 38.6603 28.3072 38.5687 28.2639C36.0708 27.0828 35.5387 20.1279 35.0125 15.8278C34.6444 12.8196 35.4171 7.1796 39.0196 5.51701C49.7069 0.584802 52.1947 14.9913 52.0897 19.0754Z" stroke="#356859" stroke-width="9" stroke-linecap="round"/>
</svg>
