<svg width="63" height="43" viewBox="0 0 63 43" fill="none" xmlns="http://www.w3.org/2000/svg">
<path d="M4.50091 29.5281C4.57607 29.3862 5.17205 28.8726 7.00553 27.5467C10.1897 25.2439 15.3651 22.67 20.469 20.5705C23.3475 19.3864 25.8695 19.2252 28.8394 19.0537C31.6696 18.8903 34.0308 19.4294 36.7214 20.7087C41.4068 22.9362 45.4547 27.4191 48.3757 30.3364C49.4554 31.4147 49.61 31.782 49.5979 32.0964C49.4662 35.5191 41.005 37.1428 38.6762 37.692C37.5909 37.948 35.7899 37.5676 33.8257 37.0806C33.0382 36.8853 32.7837 36.4455 32.5956 35.9783C31.4244 33.0694 33.9959 26.3675 36.023 19.9747C37.7784 14.439 39.9008 11.0975 41.3365 9.27913C43.9926 5.91495 46.9557 5.33719 50.8668 4.82365C52.2241 4.75645 53.8217 4.77955 55.1316 4.74147C56.4414 4.70339 57.4152 4.60342 58.4185 4.50043" stroke="#82AFA2" stroke-width="9" stroke-linecap="round"/>
</svg>
