<svg width="81" height="76" viewBox="0 0 81 76" fill="none" xmlns="http://www.w3.org/2000/svg">
<path d="M34.8212 0.541063C40.89 0.468095 46.5922 0.473687 51.4979 0.716844C56.3202 0.955878 60.7244 1.43638 64.0321 2.45024C68.6721 3.87251 73.315 5.8949 76.4149 9.85552C79.8163 14.2013 81.3828 22.044 79.9931 31.9991C79.3096 36.8949 78.6365 41.6394 77.7655 45.7256C76.913 49.7254 75.7724 53.6113 73.911 56.5391C72.0705 59.4339 67.2153 64.5519 60.9735 68.6827C54.7274 72.8163 46.2472 76.5234 37.2636 75.2442C34.1124 74.7955 29.7833 73.9659 25.5204 72.1729C21.2569 70.3796 16.7846 67.5055 13.7313 62.8116C11.9565 60.0831 10.5159 56.2081 11.5692 51.4874C12.7862 46.0336 14.9172 30.9918 29.4862 23.001L29.8876 22.7969C30.8412 22.3495 31.902 22.0881 32.746 21.9131C33.827 21.6891 35.0807 21.507 36.412 21.3545C39.0817 21.0488 42.338 20.8323 45.7001 20.6778C52.4395 20.3681 59.8793 20.295 64.4931 20.295C66.9782 20.295 68.9928 22.3099 68.9931 24.795C68.9931 27.2803 66.9783 29.295 64.4931 29.295C59.9416 29.295 52.6559 29.3674 46.1132 29.668C42.8344 29.8187 39.8106 30.0241 37.4364 30.2959C36.2458 30.4323 35.2855 30.5778 34.5722 30.7256C34.0349 30.837 33.7915 30.9181 33.7411 30.9327C23.3788 36.6612 21.7587 47.1496 20.3534 53.4473C19.9688 55.1711 20.4191 56.5866 21.2763 57.9043C23.0282 60.5975 25.7701 62.514 29.0106 63.877C32.2518 65.2402 35.7177 65.9331 38.5331 66.334C44.3585 67.1634 50.5607 64.7809 56.0067 61.1768C61.4567 57.57 65.3048 53.3018 66.3163 51.711C67.2717 50.2084 68.1536 47.6507 68.9638 43.8497C69.7556 40.1347 70.3858 35.7193 71.079 30.754C72.3153 21.8974 70.5647 16.9825 69.328 15.4024C67.9968 13.7016 65.6131 12.3479 61.3944 11.0547C59.2154 10.3869 55.7517 9.93903 51.0526 9.7061C46.4598 9.47844 41.0179 9.46774 35.0194 9.53911C30.3388 9.76942 27.7261 10.2881 23.6942 12.0586C19.3171 13.9808 13.5325 17.2947 7.24012 20.9063C5.08474 22.1434 2.33477 21.3985 1.09755 19.2432C-0.139574 17.0878 0.604389 14.3379 2.75966 13.1006C8.88478 9.58501 15.1526 5.98006 20.0751 3.81841C25.3217 1.5144 29.0577 0.816713 34.6581 0.545946L34.7391 0.54204L34.8212 0.541063Z" fill="#356859"/>
</svg>
