<svg width="64" height="50" viewBox="0 0 64 50" fill="none" xmlns="http://www.w3.org/2000/svg">
<path d="M22.342 0.00450309C21.3363 0.0253184 19.9371 0.120424 18.6134 0.621691L18.3498 0.727159L17.1886 1.2086C15.6958 1.82896 13.3307 2.84793 11.2091 4.08165C9.79913 4.90165 8.20248 5.97811 6.94743 7.31896C5.74583 8.60275 4.22487 10.8281 4.60465 13.7389C4.77262 15.0257 5.36504 16.0326 6.08317 16.817C6.65945 17.4464 7.39216 18.014 8.14567 18.5494C11.0575 20.6184 15.9336 24.4557 21.3664 26.6969C20.5139 30.7448 19.3593 33.3487 18.5675 34.8043C17.1853 37.3454 15.593 38.1279 11.6554 39.3551C10.1978 39.6717 8.9725 39.8434 7.20914 40.1979C5.59021 40.5233 4.39273 40.8581 3.29313 41.1647C0.899249 41.832 -0.500926 44.3137 0.166176 46.7076C0.833495 49.1015 3.31526 50.5017 5.70914 49.8346C6.79303 49.5324 7.7155 49.276 8.98356 49.0211C10.0388 48.809 12.3347 48.4259 13.7814 48.1041L13.9601 48.0641L14.1349 48.0104C18.5343 46.6485 23.2611 45.0094 26.4728 39.1051C27.6745 36.8961 29.1164 33.5037 30.1466 28.6656C31.8966 28.7148 33.6638 28.5418 35.5324 28.11C38.7664 27.3626 42.2172 26.5749 45.8957 24.2662C51.2496 20.9059 56.852 16.8429 60.3175 13.2994C61.2285 12.3679 61.8769 11.6776 62.3224 11.1725C62.5412 10.9244 62.754 10.6733 62.9377 10.4313C62.9793 10.3764 63.4943 9.73989 63.7765 8.88048C64.552 6.51931 63.2666 3.97633 60.9054 3.20079C58.9007 2.54236 56.7654 3.36986 55.6916 5.0797C55.6618 5.11467 55.6235 5.16149 55.5724 5.21935C55.2771 5.55424 54.7527 6.11716 53.883 7.00646C51.1632 9.78739 46.2717 13.4044 41.1115 16.6432C38.8604 18.0561 36.7859 18.5825 33.506 19.3404C32.8455 19.4931 32.2117 19.5926 31.5812 19.6412C31.886 17.5484 32.173 15.451 32.342 13.5651C32.4991 11.8105 32.5788 10.0266 32.4582 8.39122C32.3437 6.8395 32.0195 4.93053 31.0031 3.27208L30.7668 2.90587C30.4723 2.47548 29.9979 1.87991 29.2892 1.35509C28.273 0.602548 27.1126 0.23245 25.9318 0.144152L25.0519 0.0826281C24.1561 0.0255644 23.2232 -0.0137187 22.342 0.00450309ZM22.5275 9.00255C22.814 8.99662 23.1309 9.00178 23.4797 9.01427C23.4806 9.02708 23.4816 9.04026 23.4826 9.05333C23.5514 9.98681 23.5152 11.2197 23.3771 12.7613C23.2448 14.2379 23.0399 15.806 22.8029 17.4615C20.0947 16.0641 17.4569 14.1617 14.9416 12.3483C15.1803 12.1925 15.444 12.0294 15.7336 11.8609C17.8705 10.6183 20.3018 9.67003 21.7453 9.06212C21.7594 9.05956 21.7778 9.05568 21.8 9.05235C21.9446 9.03075 22.1795 9.00976 22.5275 9.00255ZM55.3224 5.81114C55.3409 5.76521 55.3577 5.72184 55.3752 5.68224C55.3567 5.72472 55.3396 5.76785 55.3224 5.81114ZM55.2257 6.07189C55.2507 5.996 55.2766 5.92528 55.3019 5.85997C55.2752 5.92968 55.2493 6.00016 55.2257 6.07189Z" fill="#356859"/>
</svg>
