<svg width="92" height="86" viewBox="0 0 92 86" fill="none" xmlns="http://www.w3.org/2000/svg">
<path d="M73.5319 58.1287C62.9742 58.1287 39.6062 57.7948 35.699 55.6556C21.3016 47.773 19.1388 33.0746 17.6266 26.3098C16.7983 22.6045 17.8875 19.5631 19.4034 17.2367C24.9388 8.74209 36.0233 6.219 42.8965 5.24203C59.9555 2.81723 76.7207 19.2456 80.006 24.4034C83.2509 29.498 84.6664 39.222 86.2522 50.5612C87.7648 61.3768 85.8543 68.7115 83.1829 72.1184C80.6308 75.3733 76.584 77.3141 71.4817 78.8753C65.1615 80.8092 53.3559 81.0113 39.414 80.844C33.466 80.5569 29.8062 79.8595 24.45 77.5116C19.0938 75.1637 12.1521 71.1865 5 67.0887" stroke="#82AFA2" stroke-width="9" stroke-linecap="round"/>
</svg>
