<svg width="80" height="75" viewBox="0 0 80 75" fill="none" xmlns="http://www.w3.org/2000/svg">
<path d="M63.9941 24.2953C54.8288 24.2953 34.5428 24.5857 31.1509 26.4461C18.6524 33.3013 16.7748 46.084 15.462 51.9671C14.743 55.1895 15.6885 57.8345 17.0045 59.8577C21.8099 67.2452 31.4325 69.4394 37.3992 70.289C52.2083 72.3978 66.7624 58.1106 69.6143 53.625C72.4313 49.1945 73.6601 40.7378 75.0367 30.8765C76.3498 21.4705 74.6913 15.0918 72.3723 12.1289C70.1567 9.29822 66.6436 7.61036 62.2143 6.25266C56.7276 4.57085 46.4791 4.39504 34.3759 4.54056C29.2124 4.79021 26.0353 5.39677 21.3855 7.43867C16.7357 9.48056 10.7095 12.9394 4.50073 16.5031" stroke="#356859" stroke-width="9" stroke-linecap="round"/>
</svg>
