<svg width="85" height="65" viewBox="0 0 85 65" fill="none" xmlns="http://www.w3.org/2000/svg">
<path d="M5.18408 8.72265C5.26088 8.95565 6.02678 9.88206 8.44815 12.3492C12.6534 16.634 19.7879 21.8376 26.9365 26.3085C30.9681 28.83 34.7252 29.7195 39.1541 30.7393C43.3747 31.7112 47.0691 31.5048 51.4495 30.2681C59.0773 28.1147 66.3235 22.4011 71.4709 18.7565C73.3735 17.4093 73.7005 16.8958 73.7629 16.4191C74.4423 11.2304 62.1153 6.61525 58.7488 5.19089C57.1799 4.52705 54.3699 4.63817 51.2866 4.86791C50.0506 4.96001 49.5545 5.55715 49.1513 6.21267C46.6414 10.2934 48.7957 21.0465 50.2094 31.1944C51.4336 39.9819 53.7733 45.5587 55.4693 48.6655C58.607 54.4134 62.9215 56.0434 68.6802 57.8198C70.7073 58.2691 73.1193 58.644 75.0823 59.0372C77.0454 59.4305 78.4863 59.8307 79.9709 60.2431" stroke="#82AFA2" stroke-width="9" stroke-linecap="round"/>
</svg>
