<svg width="48" height="45" viewBox="0 0 48 45" fill="none" xmlns="http://www.w3.org/2000/svg">
<path d="M37.1802 15.2974C32.1458 15.2974 21.0027 15.4558 19.1396 16.4706C12.2742 20.2098 11.2429 27.1822 10.5218 30.3911C10.1268 32.1488 10.6462 33.5915 11.369 34.6951C14.0086 38.7246 19.2942 39.9215 22.5717 40.3849C30.7063 41.5352 38.7008 33.7421 40.2674 31.2955C41.8147 28.8788 42.4897 24.2661 43.2459 18.8872C43.9672 13.7566 43.0561 10.2774 41.7823 8.66122C40.5653 7.1172 38.6356 6.19655 36.2026 5.45599C33.1888 4.53863 27.5593 4.44274 20.9111 4.52211C18.0748 4.65828 16.3296 4.98914 13.7755 6.1029C11.2214 7.21666 7.91123 9.1033 4.50076 11.0471" stroke="#356859" stroke-width="9" stroke-linecap="round"/>
</svg>
