<svg width="179" height="191" viewBox="0 0 179 191" fill="none" xmlns="http://www.w3.org/2000/svg">
<path d="M74.432 28.0738C55.2639 33.5998 48.4346 40.9488 42.4585 59.0282C38.022 72.45 48.331 91.1073 59.4273 99.3757C66.5441 104.679 77.0116 109.564 91.7377 108.556C108.745 107.392 116.032 100.241 117.947 97.8471C132.459 79.7002 131.305 67.6215 122.549 45.3236C111.315 16.7196 83.7374 25.3927 74.4324 28.0752" stroke="#356859" stroke-width="9" stroke-linecap="round"/>
<path d="M69.0168 105.323C69.0376 105.395 67.1009 112.472 63.8815 124.759C61.6821 133.153 61.4435 137.871 61.2742 140.124C61.1551 141.709 60.4968 148.55 59.8445 158.453C59.54 163.077 59.7809 164.682 60.0296 165.659C60.1398 166.092 60.8348 166.107 61.3468 165.902C63.7983 164.924 65.6373 160.245 70.5548 153.265C73.9948 148.382 77.0435 142.386 77.9606 142.617C82.5944 143.785 88.5707 152.406 92.3471 156.069C94.4583 158.117 95.1351 159.421 95.6538 159.711C97.6351 160.817 96.5641 154.472 96.4107 147.636C96.2493 140.445 95.6409 135.436 95.4043 134.189C94.7765 129.082 93.6608 118.544 93.4719 112.866C93.4091 111.84 93.2535 111.167 93.0931 110.473" stroke="#356859" stroke-width="9" stroke-linecap="round"/>
<path d="M126.147 88.8531C126.168 88.9255 131.575 93.8856 140.841 102.573C147.171 108.508 149.885 112.375 151.227 114.192C152.172 115.471 156.371 120.911 162.195 128.947C164.914 132.699 165.564 134.186 165.874 135.145C166.011 135.571 165.431 135.953 164.889 136.053C162.293 136.53 158.245 133.548 150.366 130.256C144.855 127.954 139.082 124.501 138.429 125.185C135.128 128.64 134.658 139.12 133.411 144.231C132.714 147.089 132.836 148.553 132.551 149.074C131.463 151.066 128.991 145.124 125.482 139.255C121.791 133.083 119.639 128.518 119.176 127.337C116.988 122.679 112.323 113.165 109.46 108.257C108.967 107.355 108.741 106.702 108.507 106.03" stroke="#356859" stroke-width="9" stroke-linecap="round"/>
<path d="M68.8679 72.5505C74.4443 79.9624 75.1389 80.9663 75.634 80.9203C78.3129 80.6717 81.3448 79.2739 84.1421 78.4675C90.1271 76.7421 93.0298 75.2367 98.2152 73.8795C98.9504 73.6871 106.674 71.468 105.921 70.0639C103.81 66.1277 102.637 60.236 100.557 56.2052C98.8888 52.9711 98.1432 51.5556 97.7642 51.8812L97.7536 51.8903C97.3808 52.2102 96.5148 52.9534 94.8627 57.2389C93.7757 60.0587 93.8706 62.704 92.7817 62.8659C92.5433 62.9013 92.2279 62.775 91.9772 62.5725C91.487 62.1767 89.9228 59.8937 87.6777 56.6718C85.8397 54.0342 84.9618 48.4166 84.1542 49.9404C83.9716 50.2848 82.9856 53.0449 80.9873 61.873C79.9459 66.4738 79.6916 69.1911 79.3696 69.8309C79.2363 70.0959 78.9535 70.198 78.3426 70.1413C73.563 69.6971 68.3952 69.5117 67.1373 69.0357C66.842 68.924 66.5914 68.8408 66.7652 69.3244C66.939 69.8081 67.5528 70.8026 68.8679 72.5505Z" stroke="#356859" stroke-width="9" stroke-linecap="round"/>
</svg>
