<svg width="108" height="119" viewBox="0 0 108 119" fill="none" xmlns="http://www.w3.org/2000/svg">
<path d="M72.1829 26.7816C72.6459 26.4972 74.441 25.7342 76.0415 25.37C78.6095 24.7855 82.4038 24.4435 85.0849 23.8297C88.7016 23.0015 90.4206 22.748 92.9638 22.8125C94.8167 22.8596 96.4056 23.6403 98.6057 24.6304C102.527 26.3953 102.398 29.5021 102.847 31.6193C103.244 33.4978 102.508 35.0647 101.799 36.5902C101.287 37.6908 100.434 38.7449 99.9136 39.3152C98.8771 40.4504 101.035 35.637 100.828 33.8582C100.645 32.2884 99.726 30.8093 98.2747 29.2964C95.3939 26.2933 93.2521 26.5778 88.9006 26.4032C86.4922 26.3066 84.811 27.3479 83.3305 27.7536C81.5035 28.2542 80.0739 28.7698 78.5028 29.5695C75.7651 30.9628 74.953 32.5521 73.6389 33.778C73.0758 34.3033 72.3395 34.5966 71.516 34.7703C69.9966 35.0908 68.7656 34.073 67.9697 33.3235C66.9057 32.3215 67.6625 30.4156 68.1546 29.1195C68.6179 28.5328 69.2371 28.147 70.0454 27.8545C70.4975 27.6514 71.0347 27.3373 72.5623 26.7629" stroke="#82AFA2" stroke-width="9" stroke-linecap="round"/>
<path d="M71.7604 34.6466C71.727 34.6906 69.6833 37.3824 66.3463 41.7096C64.5819 43.9976 63.3598 45.1197 60.3346 47.7087C57.9486 49.7506 53.6496 53.0484 50.9084 55.3668C46.94 58.7231 43.91 62.7496 40.5909 67.2414C36.9986 72.1029 36.3583 76.5872 36.2522 81.9767C36.1611 86.5989 34.361 90.0722 30.54 95.313C26.7577 100.501 20.2317 93.2752 15.8639 99.028C14.124 101.32 20.2369 93.1493 23.439 87.6201C25.2155 84.5525 25.6099 78.9422 26.2894 73.6234C26.6105 71.11 26.4323 67.6959 26.752 61.8654C27.0861 55.7708 28.5107 51.9703 29.182 50.2983C30.0595 48.1123 32.513 44.702 35.3687 41.0554C36.8891 39.114 38.4762 38.1888 40.9385 36.8953C48.2508 33.0543 53.6429 32.0264 55.6803 31.1954C57.2046 30.5738 61.2497 29.9491 64.319 29.3722C65.252 29.3013 66.0734 29.3006 66.7924 29.2905C67.1494 29.2651 67.4903 29.1987 67.8905 29.0658" stroke="#82AFA2" stroke-width="9" stroke-linecap="round"/>
</svg>
