<svg width="124" height="260" viewBox="0 0 124 260" fill="none" xmlns="http://www.w3.org/2000/svg">
<path d="M14.5412 2.99123C18.1665 0.844569 22.7308 -0.264991 28.6447 1.09767C33.6275 2.2458 38.6374 3.17851 42.9553 6.28712C48.0816 9.97788 51.1202 13.12 56.6232 19.7022C58.4874 21.9318 60.9491 24.4503 63.5597 27.1113C66.0949 29.6954 68.7923 32.4363 70.8498 34.8906C72.2269 36.5334 73.5002 38.3979 74.4767 39.9756C75.4019 41.4704 76.2506 43.0136 76.633 43.9981C76.7311 44.2506 76.8031 44.5069 76.8537 44.7637C77.9261 46.6025 78.43 47.6801 78.7336 48.2539C79.6568 49.7175 80.3937 51.3081 80.7599 53.0791C80.765 53.0864 80.7706 53.0933 80.7756 53.1006C81.0929 53.5637 81.3575 53.8559 81.6428 54.1143C82.8585 55.0626 84.4246 56.2612 86.0832 57.7315L86.2687 57.8955L86.4347 58.0791C88.671 60.5497 91.6816 63.764 94.0754 66.4346C96.4544 69.0888 98.8646 71.8971 100.083 73.957C100.587 74.808 101.439 76.0002 102.746 77.7979C104.002 79.5251 105.57 81.6705 107.312 84.2217C110.807 89.3428 115.01 96.1129 119.109 104.87C121.817 110.657 123.791 115.252 123.891 121.872C124.046 132.222 123.845 142.434 122.23 148.324C121.066 152.567 118.258 161.888 110.138 173.896C106.374 179.461 103.22 183.75 100.688 187.219C98.1143 190.744 96.3011 193.266 95.0119 195.506C91.88 200.947 88.7445 206.032 86.1633 210.926C83.565 215.852 81.9146 219.902 81.5236 223.027C80.6495 230.015 80.1639 239.236 79.8986 245.996C79.7668 249.356 79.6911 252.065 79.6476 253.546C79.6369 253.913 79.6278 254.216 79.6203 254.434C79.6166 254.54 79.6118 254.644 79.6076 254.731C79.6056 254.772 79.6025 254.834 79.5978 254.9C79.5956 254.932 79.5914 254.991 79.5842 255.062C79.5826 255.077 79.5615 255.304 79.5012 255.579C79.4814 255.665 79.4259 255.875 79.3879 255.999C79.3201 256.193 79.0851 256.717 78.8996 257.036C78.4318 257.647 76.4946 258.897 74.9562 259.114C73.4687 258.808 71.6458 257.496 71.2189 256.887C71.0509 256.571 70.8405 256.054 70.7804 255.861C70.7471 255.739 70.6987 255.531 70.6818 255.445C70.6505 255.279 70.635 255.146 70.6291 255.091C70.6082 254.897 70.604 254.728 70.6037 254.718C70.6003 254.617 70.5987 254.502 70.5978 254.407C70.596 254.199 70.5959 253.889 70.5959 253.482C70.5958 250.543 69.6842 248.83 68.4377 247.512C66.9928 245.984 64.9486 244.813 62.1769 243.352C59.6824 242.036 56.3325 240.366 53.7775 237.908C50.9477 235.186 49.0724 231.53 49.1691 226.542C49.4589 211.595 50.9865 201.674 58.007 192.038C64.9698 182.482 69.3609 174.413 69.5217 162.044C69.687 149.316 69.7119 138.387 67.2756 127.462C66.4059 123.562 65.1697 118.679 63.9426 113.828C62.7279 109.027 61.5166 104.235 60.7414 100.661C58.8102 91.7567 58.0581 87.6836 58.0051 80.6494C57.937 71.6231 57.9194 65.099 57.9142 62.1592C56.9324 60.7119 56.1127 59.0117 55.7726 57.0391C54.8365 51.6094 55.8271 49.5082 53.1398 43.9541C51.5612 40.6914 49.8628 38.058 47.3849 34.8252C46.7093 33.9437 46.1093 32.9956 45.5939 32.1709C45.0476 31.2967 44.5733 30.523 44.0304 29.7344C42.9839 28.2139 41.8175 26.846 40.1672 25.6943C35.7796 22.6326 33.4361 20.7709 30.883 19.6104C28.7433 18.6379 26.4494 18.1962 22.5324 18.8154C18.2339 19.4951 15.6927 20.6771 14.2013 22.2295C14.2143 22.216 14.1781 22.2523 14.0978 22.3652C14.0198 22.4751 13.9206 22.6287 13.8019 22.833C13.5612 23.2477 13.2929 23.7812 13.0031 24.4238C12.4184 25.7203 11.8559 27.2088 11.3146 28.6524C10.8437 29.9084 10.2632 31.4936 9.75311 32.4639C9.61955 32.7179 9.36786 33.1717 8.99627 33.6192C8.81159 33.8415 8.46238 34.2289 7.93572 34.5811C7.41432 34.9296 6.3931 35.4562 5.02264 35.3574C1.98823 35.1385 1.05369 32.4567 0.974784 32.2383C0.737903 31.5827 0.668647 30.9646 0.638847 30.6367C0.463067 28.7026 0.32889 25.1035 1.05486 21.7617C1.82066 18.2366 2.84134 12.8628 7.4367 8.89064C8.3629 8.09003 8.9186 7.48341 10.2668 6.24904C11.4138 5.19883 12.8254 4.00722 14.5412 2.99123ZM78.3488 62.9805C77.1828 64.9263 75.0866 67.331 71.5529 67.707C70.5475 67.814 68.853 67.9828 66.9308 67.7637C66.9442 71.0796 66.9661 75.4203 67.0051 80.582C67.0509 86.6601 67.6383 89.9979 69.5373 98.7539C70.2725 102.144 71.4385 106.764 72.6672 111.621C73.8833 116.429 75.1562 121.451 76.0597 125.503C78.7574 137.6 78.6846 149.542 78.5207 162.16C78.3251 177.223 72.7244 187.121 65.2804 197.338C59.9456 204.66 58.4479 212.234 58.1672 226.717C58.1227 229.011 58.8558 230.305 60.0168 231.422C61.4528 232.803 63.4778 233.863 66.3752 235.391C67.8531 236.17 69.5681 237.079 71.2521 238.22C71.5466 232.806 71.9722 226.874 72.5929 221.911C73.2004 217.054 75.5419 211.772 78.2033 206.727C80.8818 201.648 84.274 196.12 87.2121 191.016C88.7913 188.272 90.9165 185.34 93.4191 181.912C95.9628 178.428 99.0237 174.265 102.683 168.855C110.08 157.915 112.551 149.588 113.55 145.944C114.762 141.524 115.052 132.675 114.892 122.007C114.823 117.437 113.6 114.332 110.957 108.686C107.111 100.467 103.172 94.1213 99.8781 89.2959C98.225 86.874 96.7364 84.8373 95.466 83.0899C94.2471 81.4132 93.1047 79.8367 92.3371 78.5391C91.6536 77.3838 89.8854 75.2441 87.3732 72.4414C84.9355 69.7218 82.406 67.0337 79.9435 64.3184C79.3992 63.8407 78.8682 63.4013 78.3488 62.9805ZM58.0959 34.3965C59.2339 36.1788 60.2579 38.0016 61.2414 40.0342C64.626 47.0294 64.1922 52.9014 64.6418 55.5098C64.7074 55.8906 64.8797 56.3526 65.2424 56.9238C65.7113 57.3039 66.1015 57.7764 66.3869 58.3135C66.6647 58.5173 67.0398 58.6746 67.5939 58.7715C68.3848 58.9098 69.3023 58.8834 70.3371 58.7832C70.4226 58.6818 70.5609 58.4945 70.7404 58.1631C71.2077 57.3005 71.5647 56.2086 71.9504 54.9229C71.8492 54.4142 71.6008 53.7933 71.051 52.9434L70.9601 52.8018L70.8791 52.6543C70.1945 51.3989 69.8469 50.452 67.9699 47.4697C67.5823 46.8539 67.3634 46.1801 67.299 45.502C67.1524 45.2524 66.9938 44.9872 66.8234 44.7119C65.9915 43.3678 64.9689 41.8844 63.9533 40.6729C62.3918 38.8101 60.3417 36.6897 58.0959 34.3965ZM24.7336 9.55373C23.0691 9.39357 21.7573 9.60661 20.6613 10.0039C20.8164 9.97773 20.9715 9.9504 21.1271 9.9258C22.3957 9.72523 23.5931 9.60199 24.7336 9.55373Z" fill="#356859"/>
</svg>
