<svg width="181" height="195" viewBox="0 0 181 195" fill="none" xmlns="http://www.w3.org/2000/svg">
<path d="M21.8394 10.3352C21.0231 4.89369 25.2374 0 30.7398 0H149.774C155.274 0 159.488 4.89074 158.675 10.3309L142.943 115.549C141.186 127.303 131.091 136 119.207 136H61.359C49.4792 136 39.387 127.309 37.6246 115.56L21.8394 10.3352Z" fill="#356859"/>
<path d="M149.156 26.6592H163.006C169.034 26.6592 173.691 31.9522 172.925 37.9309L165.869 92.9616C165.386 96.7284 162.811 99.8966 159.222 101.139L138.208 108.416" stroke="#356859" stroke-width="15"/>
<path d="M31.3525 26.6592H17.5027C11.475 26.6592 6.81732 31.9522 7.58388 37.9309L14.6396 92.9616C15.1225 96.7284 17.6975 99.8966 21.2861 101.139L42.3005 108.416" stroke="#356859" stroke-width="15"/>
<rect x="54.1387" y="140" width="73" height="18" rx="9" fill="#356859"/>
<path d="M48.1387 187.5C48.1387 191.65 51.4882 195 55.6387 195H125.639C129.789 195 133.139 191.65 133.139 187.5V165H48.1387V187.5Z" fill="#82AFA2"/>
</svg>
