<svg width="206" height="228" viewBox="0 0 206 228" fill="none" xmlns="http://www.w3.org/2000/svg">
<path d="M61.4976 220.5C61.4976 224.65 64.8471 228 68.9976 228H138.998C143.148 228 146.498 224.65 146.498 220.5V198H61.4976V220.5Z" fill="#82AFA2"/>
<path d="M140.621 29.1756C150.812 20.7909 179.062 5.46598 191.317 22.2043C223.05 65.5471 121.659 113.146 151.07 137.913" stroke="#356859" stroke-width="15" stroke-linecap="round"/>
<path d="M64.4184 29.1756C54.2277 20.7909 25.9778 5.46598 13.7231 22.2043C-18.0099 65.5471 83.3808 113.146 53.9697 137.913" stroke="#356859" stroke-width="15" stroke-linecap="round"/>
<path d="M145.265 0C160.369 7.86447e-06 142.943 14.5743 142.943 16.6406V134.672C142.943 150.999 133.219 165.054 119.248 171.365C117.431 172.186 116.312 174.111 116.703 176.066L117.219 178.648C117.714 181.123 115.821 183.433 113.297 183.433H92.0961C89.572 183.433 87.6789 181.124 88.1737 178.648L88.6903 176.064C89.081 174.11 87.9621 172.185 86.1454 171.365C72.1737 165.053 62.4498 150.999 62.4497 134.672V16.6406C62.4497 14.2482 43.7199 0.000275525 60.1274 0H145.265Z" fill="#356859"/>
<path d="M91.0869 177.24H114.306C114.173 176.876 114.564 176.543 114.903 176.732L139.498 190.5L64.4976 190.5L90.4782 176.71C90.8282 176.524 91.2229 176.868 91.0869 177.24Z" fill="#356859"/>
</svg>
