<svg width="201" height="218" viewBox="0 0 201 218" fill="none" xmlns="http://www.w3.org/2000/svg">
<path d="M193.537 19.6533H167.462C167.998 13.3314 165.014 0 156.696 0H44.344C36.0284 0 33.0415 13.3297 33.5779 19.6533H7.50284C3.44899 19.6533 0.163149 22.8689 0.0367233 26.9417C-0.779871 57.1765 11.6761 139.863 72.2499 145.602C77.9271 150.591 81.3921 154.557 88.8096 157.08C92.5912 158.357 96.548 159 100.505 159C104.461 159 108.447 158.347 112.2 157.08C119.617 154.557 123.082 150.591 128.759 145.602C189.334 139.863 201.789 57.1765 200.972 26.9417C200.875 22.8981 197.56 19.6533 193.506 19.6533H193.537ZM15.1642 34.6198H35.2127C37.9736 54.6237 44.0008 105.916 57.0373 127.166C20.981 114.597 16.3314 51.1353 15.1642 34.6198ZM143.946 127.169C156.983 105.918 163.01 54.625 165.771 34.6223H185.77C183.527 63.3174 174.039 116.749 143.946 127.169Z" fill="#356859"/>
<path d="M58.0045 210.5C58.0045 214.65 61.354 218 65.5045 218H135.505C139.655 218 143.005 214.65 143.005 210.5V188H58.0045V210.5Z" fill="#82AFA2"/>
<path d="M123.966 160C121.1 161.525 118.077 162.855 114.879 163.93C110.336 165.485 105.568 166.257 100.752 166.257C95.9352 166.257 91.1677 165.485 86.6241 163.93C83.6017 162.904 80.7351 161.652 77.9858 160.254C75.412 171.116 67.1539 179.221 64.0045 181H138.005C134.836 179.221 126.5 171.038 123.975 160.029L123.966 160Z" fill="#356859"/>
</svg>
