<svg width="211" height="194" viewBox="0 0 211 194" fill="none" xmlns="http://www.w3.org/2000/svg">
<path d="M203.532 19.6533H175.457C176.031 12.8912 176.128 8.45765 176.157 7.62951C176.206 5.61255 175.438 3.69308 174.018 2.24108C172.599 0.798986 170.684 0 168.691 0H42.3395C40.3271 0 38.4121 0.798986 37.0122 2.24108C35.622 3.68315 34.8443 5.61253 34.8734 7.62951C34.8734 8.44797 34.9998 12.8912 35.5734 19.6533H7.49829C3.44444 19.6533 0.158606 22.8689 0.0321796 26.9417C-0.784414 57.1765 13.6715 115.863 74.2454 121.602C79.9226 126.591 86.3875 130.557 93.8051 133.08C97.5867 134.357 101.543 135 105.5 135C109.457 135 113.442 134.347 117.195 133.08C124.613 130.557 131.077 126.591 136.755 121.602C197.33 115.863 211.784 57.1765 210.968 26.9417C210.871 22.8981 207.556 19.6533 203.502 19.6533H203.532ZM15.1597 34.6198H37.2081C39.9691 54.6237 45.9962 81.9163 59.0328 103.166C22.9764 90.5966 16.3269 51.1353 15.1597 34.6198ZM188.797 65.8498C181.301 84.8113 168.936 97.2844 151.941 103.169C164.978 81.9176 171.005 54.625 173.766 34.6223H195.766C195.192 41.9594 193.549 53.8564 188.795 65.8523L188.797 65.8498Z" fill="#356859"/>
<path d="M63 186.5C63 190.65 66.3495 194 70.5 194H140.5C144.65 194 148 190.65 148 186.5V164H63V186.5Z" fill="#82AFA2"/>
<path d="M128.962 136C126.095 137.525 123.073 138.855 119.875 139.93C115.331 141.485 110.564 142.257 105.747 142.257C100.931 142.257 96.1632 141.485 91.6196 139.93C88.5972 138.904 85.7306 137.652 82.9813 136.254C80.4075 147.116 72.1494 155.221 69 157H143C139.831 155.221 131.495 147.038 128.97 136.029L128.962 136Z" fill="#356859"/>
</svg>
