<svg width="242" height="208" viewBox="0 0 242 208" fill="none" xmlns="http://www.w3.org/2000/svg">
<path d="M125.706 59.6648C124.292 60.0533 123.451 60.0171 122.679 60.0115C118.508 59.9815 122.825 66.6315 124.656 67.843C125.879 68.6523 127.323 70.1168 134.064 70.8689C139.2 71.4419 141.551 71.826 142.96 71.4734C144.654 71.0496 146.951 71.3678 147.336 70.2452C147.637 69.3692 147.808 68.5291 147.596 68.0417C147.055 66.7957 145.734 65.1427 145.58 63.8134C145.38 62.0949 145.091 60.7737 145.448 57.7215C146.079 52.3408 146.653 48.354 146.823 47.2925C147.406 43.6392 147.286 38.9326 146.07 35.3811C144.785 31.6299 143.896 29.1185 142.226 27.5417C141.147 26.5225 138.841 25.5843 136.734 25.292C135.418 25.1095 133.542 24.4822 132.717 25.8087C130.575 29.2532 131.932 34.4314 132.536 38.1031C132.805 39.7425 132.991 40.9352 132.711 42.4319C132.347 44.3836 131.587 49.2856 130.29 52.3315C129.677 53.7721 129.288 57.1055 127.872 58.3989C127.356 58.8697 126.624 59.4124 125.706 59.6648Z" stroke="#356859" stroke-width="9" stroke-linecap="round"/>
<path d="M148.135 44.2701C150.373 43.2402 155.855 40.6851 161.878 39.9895C168.574 39.2159 174.178 42.5958 176.005 43.7828C181.646 47.4468 185.252 52.2571 189.366 57.5321C191.627 60.4328 194.364 60.8446 198.994 62.2214C203.48 63.5558 205.211 66.5056 207.64 69.7535C210.459 73.5231 213.107 78.7089 215.419 83.3422C217.988 88.4902 218.914 94.6028 219.731 100.237C221.052 109.348 222.06 120.569 220.647 129.635C219.516 136.889 217.032 148.094 214.333 153.736C207.299 168.438 200.681 177.753 188.83 184.369C186.64 185.591 175.9 189.071 172.852 188.779C170.808 188.583 167.498 188.353 163.03 188.032C155.46 187.488 148.14 188.422 140.51 187.714C131.389 186.868 130.059 184.962 128.392 184.254C125.641 183.085 119.626 185.424 115.957 184.596C112.925 183.912 107.414 182.749 104.239 182.015C97.2211 180.391 93.8082 175.519 88.5012 171.09C87.3051 170.091 85.4325 171.616 80.1156 170.886C73.4006 169.965 66.496 167.119 60.9625 163.28C55.0124 159.152 54.4129 157.18 52.4933 155.887C51.3892 155.143 48.9777 154.849 46.034 153.478C39.3392 150.359 35.3871 147.566 34.1651 146.957C32.3848 146.071 30.6909 144.758 28.2558 142.297C21.8271 135.8 16.6108 128.935 15.8945 119.638C15.7284 117.481 15.3738 113.558 15.3232 108.946C15.2725 104.335 15.5268 99.1555 16.3786 93.7698C17.2303 88.3841 18.6718 82.9493 20.4331 78.3374C22.1944 73.7255 24.2317 70.1013 25.3411 68.0639C28.33 62.575 30.8987 56.6544 35.3625 52.1777C36.244 51.2937 39.4466 48.6168 44.0773 44.5292C47.031 41.922 48.9526 40.8545 50.275 40.1492C54.9809 37.6398 60.9379 34.0259 62.9995 33.7136C66.9876 33.1095 71.1764 31.2054 76.851 29.3843C78.833 28.7482 83.9239 28.2878 91.8466 28.8453C98.3698 29.3043 104.973 33.3905 110.366 36.7358C112.906 38.3112 115.676 33.6874 118.636 33.2728C122.836 32.6845 125.98 33.7019 127.877 34.5808C128.572 35.0919 131.395 39.045 132.08 39.367" stroke="#356859" stroke-width="9" stroke-linecap="round"/>
<path d="M121.073 60.3142C120.239 56.1763 105.367 49.6145 100.942 47.5909C95.0862 44.9129 90.7745 44.7997 84.549 46.1612C77.5941 47.6822 70.9246 52.0144 65.9511 56.9797C62.5047 60.4204 58.4997 65.4138 55.7701 69.0783C53.0405 72.7427 51.7078 74.927 49.1814 81.8394C46.655 88.7517 44.378 96.9561 42.4074 103.401C40.4368 109.845 39.6844 123.11 42.1539 130.699C43.7557 135.621 50.429 150.316 52.1324 154.929" stroke="#356859" stroke-width="9" stroke-linecap="round"/>
<path d="M123.511 67.5245C122.997 67.5018 121.472 67.6189 117.959 68.9782C114.524 70.3076 110.862 73.6531 106.459 78.0726C103.926 80.6145 101.22 84.1762 98.9837 87.2969C96.7473 90.4175 95.1729 93.0948 92.7269 99.7005C90.2808 106.306 87.0107 116.76 85.2575 123.326C83.5043 129.892 83.367 132.254 83.4648 135.275C83.6798 141.913 84.3356 146.041 84.6018 148.792C85.2339 155.329 85.6355 161.231 86.1943 163.71C86.8915 165.636 88.4603 170.288 89.0153 171.261" stroke="#356859" stroke-width="9" stroke-linecap="round"/>
<path d="M144.779 71.6846C145.227 72.1203 146.312 73.6892 147.914 77.2892C149.195 80.1691 153.252 93.605 153.574 96.8836C154.638 107.74 154.762 112.717 153.74 125.212C152.957 134.781 150.3 142.824 149.45 146.853C148.375 151.944 143.873 161.032 140.922 166.234C139.209 169.255 130.576 179.544 127.999 182.625" stroke="#356859" stroke-width="9" stroke-linecap="round"/>
<path d="M148.421 65.8729C148.968 65.4579 152.718 63.6056 158.299 61.2402C160.792 60.1831 162.792 59.2707 165.402 58.5794C173.515 56.4301 177.982 56.3904 180.734 56.3437C181.349 56.3758 182.065 56.4003 183.54 56.6874C185.015 56.9746 187.228 57.5236 189.668 58.0553" stroke="#356859" stroke-width="9" stroke-linecap="round"/>
<path d="M147.983 69.5427C148.56 69.5027 152.814 68.5905 156.068 68.0526C158.974 67.5722 162.851 68.5176 170.547 70.5037C174.723 71.5814 177.487 74.3836 179.395 76.0041C184.408 80.2603 187.446 87.0797 189.496 93.1523C191.235 98.304 191.611 101.216 192.072 104.36C193.699 115.464 194.876 125.539 194.455 136.84C194.149 145.062 191.263 153.503 189.155 161.433C188.364 164.409 183.654 171.356 180.78 174.148C174.813 179.943 162.43 185.643 161.03 186.91" stroke="#356859" stroke-width="9" stroke-linecap="round"/>
</svg>
