<svg width="174" height="123" viewBox="0 0 174 123" fill="none" xmlns="http://www.w3.org/2000/svg">
<path d="M39.5851 0.193311C42.067 0.0668949 44.1812 1.97604 44.3077 4.45796C44.7625 13.3854 45.465 21.9782 45.8898 27.0214C48.8858 25.6188 52.764 24.1284 57.2218 22.6337C58.9469 22.0554 60.2917 21.6459 61.9708 21.3544C63.5641 21.0779 65.3733 20.922 68.0118 20.7294C73.3778 20.3377 82.7506 19.7558 87.6535 19.4726C92.2345 19.208 93.3782 19.0864 95.3009 19.4375C99.1975 20.1489 103.424 20.8835 107.012 21.6503C110.378 22.3697 113.977 23.2655 116.183 24.5283C118.352 25.7704 124.712 30.6215 132.31 37.1777C135.206 39.6769 136.613 40.9763 137.924 42.7529C140.274 45.9367 143.513 51.7538 146.483 59.5615C147.874 63.2195 149.123 66.6738 149.723 72.2324C150.568 80.0631 151.088 85.6916 151.344 88.6005C152.633 89.046 153.688 89.6416 154.391 90.0439C155.353 90.5945 155.875 90.9253 156.408 91.2119C156.579 90.9557 156.781 90.6219 157.017 90.1923C157.237 89.7922 157.45 89.3803 157.692 88.914C157.921 88.4721 158.184 87.9649 158.455 87.4853C158.862 86.766 159.774 85.1614 161.294 84.1816L162.121 83.6503L163.095 83.5107L163.459 83.4628C165.114 83.2658 167.127 83.2993 168.913 84.038C170.883 83.9782 172.731 85.2261 173.345 87.1992C174.083 89.572 172.758 92.0943 170.385 92.833C169.368 93.1495 168.173 93.3009 166.902 92.9677C166.516 92.8665 166.187 92.733 165.916 92.6064C165.843 92.7457 165.765 92.8949 165.682 93.0556C165.456 93.4904 165.189 94.0114 164.904 94.5283C164.359 95.5204 163.586 96.8203 162.545 97.9248C161.486 99.0482 159.79 100.343 157.411 100.522C155.438 100.671 153.749 99.9483 152.745 99.4521C151.765 98.9676 150.552 98.2177 149.919 97.8554C148.714 97.1659 148.207 97.0366 148.062 97.0097C147.943 97.0852 147.619 97.304 146.972 97.8584C146.261 98.4671 145.032 99.5954 143.783 100.557C141.577 102.255 132.428 107.896 127.115 110.778C122.934 113.047 115.035 117.461 110.655 119.592C107.036 121.352 101.262 122.829 93.5509 122.333C89.5186 122.073 85.1583 121.35 81.132 120.186C77.2556 119.067 73.5116 117.648 70.5089 115.847C65.746 112.988 62.2073 110.443 58.3556 105.602C55.7743 102.358 51.7811 97.0785 48.9347 93.2089C46.0679 89.3117 44.3182 86.7886 42.3712 83.499C40.4633 80.2753 38.4199 76.4219 36.8644 73.0058C35.4175 69.8284 34.011 66.6151 33.4982 63.4033C32.8478 59.3297 32.5204 55.0854 33.0148 50.6064C30.5895 51.643 26.9237 53.3816 21.4933 56.3281C18.2128 58.4623 16.1924 59.7363 14.8781 60.5507C13.4258 61.4506 13.0539 61.6599 12.7081 61.8896L12.6788 61.9082L12.6495 61.9277C12.1332 62.2591 11.5822 62.5877 10.8741 62.9345C8.64232 64.0278 5.94699 63.1047 4.85364 60.873C3.76064 58.6412 4.6834 55.9457 6.91516 54.8525C7.23046 54.698 7.47277 54.5553 7.78723 54.3535L7.78821 54.3544C8.28098 54.0313 9.0311 53.5861 10.1378 52.9003C11.4066 52.1141 13.4144 50.8493 16.7443 48.6816L16.8937 48.583L17.0509 48.498L19.3986 47.2392C22.1586 45.7773 24.4569 44.6318 26.3712 43.7304C25.1659 43.5957 23.8979 43.4432 22.6554 43.2978C20.5434 43.0506 18.4342 42.821 16.4786 42.6972C12.613 42.4526 9.34164 42.6347 5.70129 42.8427C3.22009 42.9845 1.09411 41.0876 0.952268 38.6064C0.810657 36.1253 2.70654 33.9992 5.18762 33.8574C8.80266 33.6508 12.5742 33.4308 17.047 33.7138C19.2606 33.8539 21.5748 34.1095 23.7013 34.3583C25.8348 34.608 27.7264 34.844 29.339 34.9902C30.9986 35.0524 32.3323 35.083 33.38 35.0996C31.0192 32.9291 27.4636 30.1018 23.3488 27.2109C21.3863 25.8854 20.6915 25.5361 19.1427 25.0585C16.7678 24.3264 15.4352 21.8075 16.1671 19.4326C16.8994 17.0578 19.4183 15.726 21.7931 16.458C24.4803 17.2864 25.9895 18.1328 28.4259 19.7802L28.4591 19.8027L28.4913 19.8251C31.4904 21.931 34.3556 24.1059 36.7853 26.1298C36.3549 20.9444 35.7361 13.0763 35.3204 4.91597C35.1942 2.43408 37.1032 0.319836 39.5851 0.193311ZM92.6632 28.2216C91.8938 28.2379 90.6872 28.3127 88.172 28.458C83.2882 28.74 73.9663 29.3191 68.6661 29.706C65.9725 29.9026 64.597 30.0329 63.5099 30.2216C62.5085 30.3955 61.675 30.6322 60.0831 31.166C55.7024 32.6347 52.1191 34.029 49.5421 35.248C48.2485 35.8599 47.2978 36.3859 46.6583 36.8085C46.3502 37.0122 46.1808 37.1507 46.1027 37.2167C44.5863 39.7625 43.3254 44.0419 42.3136 49.2666C41.4937 53.5 41.6867 57.6112 42.3849 61.9843C42.6764 63.81 43.542 65.9509 45.0558 69.2753C46.4609 72.3611 48.3495 75.9287 50.1163 78.914C51.8441 81.8333 53.3945 84.0841 56.1837 87.8759C58.9935 91.6956 62.9142 96.8758 65.3986 99.998C68.3352 103.688 70.8915 105.58 75.1408 108.13C77.2015 109.366 80.1161 110.524 83.63 111.539C86.994 112.511 90.7085 113.132 94.13 113.352C100.433 113.758 104.631 112.514 106.719 111.498C110.859 109.484 118.398 105.269 122.823 102.868C128.031 100.043 136.669 94.6758 138.293 93.4257C139.303 92.6484 140.035 91.9513 141.118 91.0234C141.476 90.7168 141.919 90.3441 142.43 89.9687C142.202 87.3321 141.675 81.5303 140.776 73.1992C140.298 68.779 139.366 66.1681 138.07 62.7617C135.304 55.4881 132.42 50.4496 130.684 48.0966C130.046 47.232 129.369 46.5266 126.431 43.9912C118.756 37.368 113.017 33.0866 111.711 32.3388C110.935 31.8946 108.767 31.2283 105.131 30.4511C101.717 29.7214 97.7061 29.0244 93.6837 28.29C93.3601 28.2309 93.2403 28.2094 92.6632 28.2216Z" fill="#356859"/>
</svg>
