<svg width="97" height="74" viewBox="0 0 97 74" fill="none" xmlns="http://www.w3.org/2000/svg">
<path d="M17.1347 56.938C17.1347 56.8705 17.1347 53.1663 17.3153 46.752C17.3927 44.0023 17.8569 42.2981 18.4376 40.3097C19.6772 36.0649 21.114 32.9666 22.11 31.3652C22.5852 30.6012 23.1106 30.0084 24.5952 28.5061C28.4814 24.5735 31.5883 21.8154 32.4943 21.1964C34.0492 20.1342 38.6612 18.9883 42.9253 17.8542C43.5982 17.6752 43.8389 17.6818 46.5249 17.6236C49.2109 17.5653 54.3431 17.4766 57.2739 17.4576C60.2047 17.4385 60.7786 17.4918 62.6394 17.9553C67.6526 19.2041 71.1264 20.4875 71.8634 21.4871C73.1195 23.1907 74.111 25.9054 74.9161 28.8068C75.6513 31.4563 75.7162 34.023 75.5113 36.6128C75.4011 38.0065 74.8966 39.5183 74.229 41.359C73.5614 43.1996 72.6485 45.3122 71.7795 47.0884C70.9104 48.8646 70.1129 50.2403 68.7347 52.4639C67.3565 54.6875 65.4219 57.7173 64.1763 59.5666C62.5071 62.0448 60.9387 63.3893 58.5941 65.0626C57.2768 66.0027 55.5138 66.851 53.5411 67.5948C51.5684 68.3386 49.3917 68.8817 47.3657 69.1747C43.5567 69.7257 40.7734 69.1988 39.154 68.5644C36.7364 67.6174 32.3315 65.5954 29.8785 64.5066C26.8805 63.1759 21.7813 60.5546 20.6712 59.8325C19.3616 58.9807 18.3707 58.0092 17.4722 57.7573C15.3252 57.1552 13.4682 60.0006 11.8685 60.0074C10.0163 60.0152 8.96072 56.4682 7.87943 55.8872C7.03641 55.8344 6.30692 55.9596 5.87561 56.2322C5.67388 56.3795 5.50695 56.545 5 56.4304" stroke="#82AFA2" stroke-width="9" stroke-linecap="round"/>
<path d="M72.067 20.9223C72.067 20.871 72.067 20.8197 72.0804 18.2012C72.0937 15.5828 72.1203 10.3987 71.9666 5" stroke="#82AFA2" stroke-width="9" stroke-linecap="round"/>
<path d="M73.1506 22.4655C73.1506 22.3277 73.3249 21.8784 73.9579 20.8602C75.1543 19.3303 77.5773 17.0031 80.3845 14.6788C81.5289 13.7648 82.1046 13.3898 83.2361 12.9399" stroke="#82AFA2" stroke-width="9" stroke-linecap="round"/>
<path d="M75.0659 23.9418C75.1333 23.9418 76.3346 23.9007 79.3642 23.5435C81.2273 23.2274 83.7514 22.6376 86.0181 22.3123C88.2847 21.9869 90.2173 21.9438 92.2086 21.8994" stroke="#82AFA2" stroke-width="9" stroke-linecap="round"/>
<path d="M75.5898 26.6658C75.9886 26.7834 77.967 26.9387 85.3062 30.2021C89.1599 32.2959 89.9788 32.6526 90.4604 32.92C90.699 33.0476 90.926 33.159 91.2166 33.2738" stroke="#82AFA2" stroke-width="9" stroke-linecap="round"/>
</svg>
