<svg width="471" height="521" viewBox="0 0 471 521" fill="none" xmlns="http://www.w3.org/2000/svg">
<path d="M237 521L223 521L223 26L237 26L237 521Z" fill="#356859"/>
<path d="M429.25 158H388H223V238H388H429.25L470.5 198L429.25 158Z" fill="#FD5624"/>
<path d="M362.75 238H309.5H223V318H309.5H362.75L404 278L362.75 238Z" fill="#356859"/>
<path d="M41.25 78H82.5H237.5V158H82.5H41.25L0 118L41.25 78Z" fill="#356859"/>
<path d="M122.25 318H163.5H237.5V398H163.5H122.25L81 358L122.25 318Z" fill="#FD5624"/>
<path d="M207 0H251V44H207V0Z" fill="#356859"/>
<path d="M231.756 279.111H239.281L238.378 283.282C236.658 291.151 232.874 293.645 226.983 293.645C219.2 293.645 215.975 289.044 217.695 280.917L219.888 270.468C221.522 262.685 225.392 260.105 231.24 260.105C239.066 260.105 242.205 264.663 240.571 272.833L240.313 274.166H232.831L233.519 270.855C234.164 267.63 233.304 266.254 231.068 266.254C229.176 266.254 228.015 267.329 227.241 270.855L224.704 282.895C224.059 286.12 224.919 287.496 227.155 287.496C229.047 287.496 230.251 286.421 230.982 282.895L231.756 279.111Z" fill="#82AFA2"/>
<path d="M211.31 293H203.828L210.708 260.75H218.19L211.31 293Z" fill="#82AFA2"/>
<path d="M202.641 286.851L201.351 293H185.183L192.063 260.75H199.545L193.998 286.851H202.641Z" fill="#82AFA2"/>
<path d="M182.915 293H175.863L176.336 287.238H170.66L168.682 293H161.415L173.197 260.75H184.85L182.915 293ZM172.681 281.304H176.809L178.142 265.394L172.681 281.304Z" fill="#82AFA2"/>
<path d="M156.467 293H148.985L154.532 266.899H149.372L150.662 260.75H168.464L167.174 266.899H162.014L156.467 293Z" fill="#82AFA2"/>
<path d="M141.267 293H133.785L140.665 260.75H148.147L141.267 293Z" fill="#82AFA2"/>
<path d="M231.24 252.11C236.581 252.11 242.313 253.705 245.937 258.728C248.65 262.489 249.25 266.928 248.886 271.116H249.192L247.827 277.419L246.909 282.161H246.801L246.191 284.974L246.19 284.981L246.188 284.989C245.13 289.83 243.167 294.334 239.412 297.515C235.56 300.777 231.022 301.64 226.982 301.64C221.634 301.64 215.91 300.018 212.293 295.009C211.823 294.358 211.419 293.686 211.069 293H211.31L218.19 260.75H215.059C216.051 259.085 217.281 257.573 218.805 256.277C222.634 253.021 227.164 252.11 231.24 252.11ZM231.24 260.105C225.392 260.105 221.522 262.685 219.888 270.468L217.694 280.917C215.974 289.044 219.2 293.644 226.982 293.645C232.873 293.645 236.658 291.151 238.378 283.282L239.281 279.111H231.756L230.981 282.895C230.251 286.42 229.047 287.496 227.155 287.496C224.919 287.496 224.059 286.12 224.704 282.895L227.241 270.855C228.015 267.33 229.176 266.254 231.067 266.254C233.303 266.254 234.164 267.63 233.519 270.855L232.831 274.166H240.312L240.57 272.833C242.204 264.663 239.066 260.106 231.24 260.105Z" fill="#82AFA2"/>
<path d="M228.07 252.755L226.321 260.95C223.181 262.24 221.008 265.13 219.888 270.468L217.694 280.917C216.669 285.763 217.402 289.355 219.812 291.466L217.779 300.995H193.947L195.653 293H201.352L202.642 286.851H196.965L204.238 252.755H228.07ZM210.708 260.75L203.828 293H211.31L218.19 260.75H210.708Z" fill="#82AFA2"/>
<path d="M209.418 252.755L203.871 278.855H206.846L203.828 293H209.521L207.843 300.995H175.303L177.009 293H182.914L184.85 260.75H183.889L185.594 252.755H209.418ZM192.063 260.75L185.184 293H201.352L202.642 286.851H193.998L199.546 260.75H192.063Z" fill="#82AFA2"/>
<path d="M193.339 252.755L192.858 260.75H192.063L185.184 293H190.924L190.444 300.995H149.981L152.903 293H156.467L161.423 269.676L162.438 266.899H167.174L168.464 260.75H164.685L167.605 252.755H193.339ZM173.196 260.75L161.414 293H168.682L170.659 287.238H176.336L175.862 293H182.914L184.85 260.75H173.196ZM176.809 281.304H172.681L178.142 265.394L176.809 281.304Z" fill="#82AFA2"/>
<path d="M178.311 252.755L176.633 260.75H173.196L161.414 293H164.641L162.941 300.995H139.112L140.811 293H141.267L148.147 260.75H142.492L144.17 252.755H178.311ZM150.662 260.75L149.372 266.899H154.532L148.984 293H156.467L162.014 266.899H167.174L168.464 260.75H150.662Z" fill="#82AFA2"/>
<path d="M158.027 252.755L156.321 260.75H150.662L149.372 266.899H154.532L148.984 293H149.441L147.736 300.995H123.904L134.195 252.755H158.027ZM140.665 260.75L133.785 293H141.267L148.147 260.75H140.665Z" fill="#82AFA2"/>
<path d="M329.663 139.573H334.393L333.877 142.067C332.243 149.85 328.803 152.43 323.385 152.43C316.376 152.43 313.452 148.216 315 140.863L317.322 129.683C318.913 121.986 322.396 119.32 327.814 119.32C334.823 119.32 337.747 123.534 336.199 130.887L336.027 131.704H331.34L331.684 130.156C332.673 125.383 331.297 123.276 327.771 123.276C324.89 123.276 323.041 124.996 321.966 130.027L319.515 141.594C318.526 146.367 319.902 148.474 323.428 148.474C326.309 148.474 328.158 146.754 329.233 141.723L329.663 139.573Z" fill="#FD5624"/>
<path d="M306.834 152H302.104L308.941 119.75H313.671L306.834 152Z" fill="#FD5624"/>
<path d="M299.326 148.044L298.466 152H283.459L290.296 119.75H295.026L289.049 148.044H299.326Z" fill="#FD5624"/>
<path d="M279.901 152H275.343L275.386 144.174H267.13L263.905 152H258.917L272.72 119.75H279.815L279.901 152ZM268.764 140.261H275.429L275.558 123.878L268.764 140.261Z" fill="#FD5624"/>
<path d="M252.335 152H247.605L253.582 123.706H247.089L247.906 119.75H265.708L264.891 123.706H258.312L252.335 152Z" fill="#FD5624"/>
<path d="M237.547 152H232.817L239.654 119.75H244.384L237.547 152Z" fill="#FD5624"/>
<path d="M327.814 111.325C332.822 111.325 338.266 112.879 341.714 117.689C344.771 121.955 344.998 127.077 344.207 131.578H344.212L344.151 131.869C344.11 132.092 344.069 132.314 344.022 132.534L343.527 134.885L341.706 143.687L341.704 143.698L341.701 143.71C340.722 148.371 338.953 152.809 335.492 156.024C331.822 159.434 327.402 160.425 323.385 160.425C318.378 160.425 312.933 158.871 309.485 154.061C308.486 152.666 307.789 151.179 307.331 149.652L313.671 119.75H312.517C313.374 118.292 314.414 116.948 315.681 115.768C319.33 112.365 323.745 111.325 327.814 111.325ZM327.814 119.32C322.397 119.32 318.913 121.986 317.322 129.683L315 140.863C313.452 148.216 316.376 152.43 323.385 152.43C328.803 152.43 332.243 149.85 333.877 142.067L334.394 139.573H329.663L329.233 141.723C328.158 146.754 326.309 148.474 323.428 148.474C319.902 148.473 318.526 146.367 319.515 141.594L321.966 130.027C323.041 124.996 324.89 123.276 327.771 123.276C331.297 123.277 332.673 125.383 331.684 130.156L331.34 131.704H336.027L336.199 130.887C337.747 123.534 334.823 119.32 327.814 119.32Z" fill="#FD5624"/>
<path d="M323.539 111.755L321.52 121.278C319.573 122.877 318.175 125.557 317.322 129.683L315 140.863C314.289 144.242 314.522 146.957 315.662 148.906L313.312 159.995H292.236L293.932 152H298.467L299.326 148.044H294.771L302.463 111.755H323.539ZM308.941 119.75L302.104 152H306.834L313.671 119.75H308.941Z" fill="#FD5624"/>
<path d="M304.887 111.755L298.91 140.049H304.638L302.104 152H306.648L304.91 159.995H273.592L275.344 151.729L275.343 152H279.9L279.843 130.509L283.818 111.755H304.887ZM290.297 119.75L283.46 152H298.467L299.326 148.044H289.05L295.026 119.75H290.297Z" fill="#FD5624"/>
<path d="M287.788 111.755L287.84 131.336L283.46 152H287.896L287.917 159.995H246.798L250.22 152H252.335L254.396 142.243L262.33 123.706H264.891L265.708 119.75H264.022L267.445 111.755H287.788ZM272.72 119.75L258.917 152H263.904L267.13 144.174H275.386L275.343 152H279.9L279.814 119.75H272.72ZM275.429 140.261H268.764L275.558 123.878L275.429 140.261Z" fill="#FD5624"/>
<path d="M275.522 111.755L273.872 119.75H272.72L267.604 131.701H264.795L262.055 144.666L258.917 152H260.506L258.817 159.995H237.744L243.722 131.701H241.851L244.384 119.75H239.742L241.394 111.755H275.522ZM247.906 119.75L247.089 123.706H253.582L247.604 152H252.335L258.312 123.706H264.891L265.708 119.75H247.906Z" fill="#FD5624"/>
<path d="M254.252 111.755L252.557 119.75H247.906L247.089 123.706H251.718L244.024 159.995H222.949L233.176 111.755H254.252ZM239.654 119.75L232.817 152H237.547L244.384 119.75H239.654Z" fill="#FD5624"/>
</svg>
