<svg width="254" height="193" viewBox="0 0 254 193" fill="none" xmlns="http://www.w3.org/2000/svg">
<path d="M130.127 104.259C133.316 99.0552 131.508 91.3794 130.205 88.192C129.761 84.9627 129.291 77.6805 130.966 74.3861C132.641 71.0918 129.692 63.9306 128.007 60.7618C127.519 50.746 117.937 24.8236 80.8822 23.7613C51.2384 22.9114 36.9448 42.3486 33.5035 52.1735C31.1637 55.9591 32.9935 63.2897 34.2009 66.4817C27.1148 76.4651 32.2898 92.0084 35.7631 98.5322C33.5238 104.378 36.4861 111.405 38.2472 114.188C38.6051 125.453 48.1402 147.668 83.4181 146.407C118.696 145.147 129.257 117.783 130.127 104.259Z" fill="#FD5624"/>
<path d="M199.372 103.122C202.561 97.9185 200.752 90.2427 199.449 87.0553C199.005 83.826 198.536 76.5437 200.211 73.2494C201.886 69.9551 198.936 62.7939 197.252 59.6251C196.764 49.6093 187.182 23.6869 150.127 22.6245C120.483 21.7747 106.189 41.2119 102.748 51.0367C100.408 54.8224 102.238 62.1529 103.446 65.345C96.3594 75.3284 101.534 90.8717 105.008 97.3955C102.768 103.242 105.731 110.268 107.492 113.051C107.85 124.316 117.385 146.531 152.663 145.271C187.941 144.01 198.501 116.647 199.372 103.122Z" fill="#FD5624"/>
<path d="M149.533 101.163C147.964 96.6398 150.64 91.0617 152.174 88.8381C153.057 86.4381 154.641 80.9367 153.911 78.1307C153.181 75.3248 156.644 70.3328 158.467 68.1875C160.525 60.5944 172.224 42.3402 200.797 47.753C223.656 52.0832 231.343 69.3799 232.329 77.4871C233.486 80.7812 230.852 86.0911 229.39 88.3343C233.143 97.1754 226.565 108.217 222.807 112.632C223.541 117.488 220.09 122.375 218.273 124.212C216.106 132.784 205.066 148.205 178.244 141.311C151.422 134.417 147.928 111.673 149.533 101.163Z" fill="#FD5624"/>
<path d="M248.334 74.7251C241.293 139.706 182.907 186.675 117.926 179.634C52.9455 172.593 5.9761 114.207 13.0173 49.2266L248.334 74.7251Z" fill="#FFFBE6"/>
<mask id="mask0_168_1705" style="mask-type:alpha" maskUnits="userSpaceOnUse" x="12" y="49" width="237" height="132">
<path d="M248.334 74.7251C241.293 139.706 182.907 186.675 117.926 179.634C52.9455 172.593 5.9761 114.207 13.0173 49.2266L248.334 74.7251Z" fill="url(#paint0_radial_168_1705)"/>
<path d="M248.334 74.7251C241.293 139.706 182.907 186.675 117.926 179.634C52.9455 172.593 5.9761 114.207 13.0173 49.2266L248.334 74.7251Z" fill="#F3EEEC"/>
</mask>
<g mask="url(#mask0_168_1705)">
<path d="M233.468 64.8563C233.264 66.1137 233.058 67.3856 232.773 68.6453L232.762 68.6873C228.579 84.8661 212.896 98.4181 198.894 105.125C192.869 108.01 185.042 110.038 176.905 111.729C172.824 112.577 168.637 113.345 164.53 114.094C160.418 114.845 156.389 115.576 152.599 116.351C148.026 117.287 143.872 118.276 140.388 119.411C140.311 122.157 139.539 124.918 138.448 127.246C137.209 129.891 135.44 132.23 133.539 133.298C132.563 133.846 131.373 134.152 130.185 133.717C129.003 133.283 128.199 132.254 127.687 130.968C126.708 128.511 126.757 126.23 127.811 124.198C128.83 122.236 130.693 120.685 132.982 119.412C134.287 118.686 135.784 118.025 137.432 117.411C137.14 115.218 136.192 113.289 134.348 111.908C129.715 108.441 123.493 106.637 116.34 106.034C109.198 105.432 101.245 106.037 93.2682 107.284C77.3082 109.779 61.4804 114.802 52.179 117.604C42.2598 120.593 27.3247 127.244 24.3262 128.512L23.2113 125.874C26.0919 124.656 41.2416 117.909 51.3533 114.862C60.5949 112.078 76.6303 106.987 92.8262 104.455C100.927 103.189 109.127 102.552 116.58 103.181C124.023 103.808 130.84 105.706 136.064 109.616C138.473 111.419 139.72 113.876 140.182 116.469C143.713 115.361 147.755 114.419 152.025 113.546C155.852 112.763 159.913 112.026 164.016 111.277C168.126 110.527 172.28 109.765 176.322 108.925C184.429 107.241 191.966 105.269 197.657 102.543C211.275 96.0206 226.088 83.0079 229.983 67.9962C230.243 66.8424 230.436 65.6636 230.642 64.3968L233.468 64.8563ZM137.446 120.475C136.316 120.931 135.287 121.406 134.374 121.915C132.318 123.058 131.003 124.263 130.352 125.517C129.737 126.702 129.627 128.101 130.347 129.908C130.692 130.775 131.037 130.979 131.17 131.028C131.298 131.074 131.59 131.109 132.137 130.801C133.282 130.158 134.724 128.446 135.855 126.032C136.656 124.322 137.237 122.389 137.446 120.475Z" fill="#FFFBE6"/>
<path d="M233.468 64.8563C233.264 66.1137 233.058 67.3856 232.773 68.6453L232.762 68.6873C228.579 84.8661 212.896 98.4181 198.894 105.125C192.869 108.01 185.042 110.038 176.905 111.729C172.824 112.577 168.637 113.345 164.53 114.094C160.418 114.845 156.389 115.576 152.599 116.351C148.026 117.287 143.872 118.276 140.388 119.411C140.311 122.157 139.539 124.918 138.448 127.246C137.209 129.891 135.44 132.23 133.539 133.298C132.563 133.846 131.373 134.152 130.185 133.717C129.003 133.283 128.199 132.254 127.687 130.968C126.708 128.511 126.757 126.23 127.811 124.198C128.83 122.236 130.693 120.685 132.982 119.412C134.287 118.686 135.784 118.025 137.432 117.411C137.14 115.218 136.192 113.289 134.348 111.908C129.715 108.441 123.493 106.637 116.34 106.034C109.198 105.432 101.245 106.037 93.2682 107.284C77.3082 109.779 61.4804 114.802 52.179 117.604C42.2598 120.593 27.3247 127.244 24.3262 128.512L23.2113 125.874C26.0919 124.656 41.2416 117.909 51.3533 114.862C60.5949 112.078 76.6303 106.987 92.8262 104.455C100.927 103.189 109.127 102.552 116.58 103.181C124.023 103.808 130.84 105.706 136.064 109.616C138.473 111.419 139.72 113.876 140.182 116.469C143.713 115.361 147.755 114.419 152.025 113.546C155.852 112.763 159.913 112.026 164.016 111.277C168.126 110.527 172.28 109.765 176.322 108.925C184.429 107.241 191.966 105.269 197.657 102.543C211.275 96.0206 226.088 83.0079 229.983 67.9962C230.243 66.8424 230.436 65.6636 230.642 64.3968L233.468 64.8563ZM137.446 120.475C136.316 120.931 135.287 121.406 134.374 121.915C132.318 123.058 131.003 124.263 130.352 125.517C129.737 126.702 129.627 128.101 130.347 129.908C130.692 130.775 131.037 130.979 131.17 131.028C131.298 131.074 131.59 131.109 132.137 130.801C133.282 130.158 134.724 128.446 135.855 126.032C136.656 124.322 137.237 122.389 137.446 120.475Z" fill="url(#paint1_radial_168_1705)"/>
</g>
<path d="M147.152 167.049L145.583 157.173L155.064 155.667L156.633 165.543L153.276 166.077L152.112 158.747L149.353 159.185L150.518 166.515L147.152 167.049Z" fill="#FFFBE6"/>
<path d="M147.152 167.049L145.583 157.173L155.064 155.667L156.633 165.543L153.276 166.077L152.112 158.747L149.353 159.185L150.518 166.515L147.152 167.049Z" fill="url(#paint2_radial_168_1705)"/>
<path d="M143.404 167.239C143.25 168.131 143.052 168.905 142.81 169.561C142.568 170.217 142.255 170.793 141.872 171.29C141.489 171.792 141.016 172.181 140.454 172.454C139.899 172.727 139.251 172.889 138.51 172.94C137.809 172.989 137.19 172.953 136.653 172.833L136.48 170.32C136.995 170.415 137.494 170.446 137.974 170.413C138.728 170.361 139.336 170.1 139.8 169.631L135.528 157.914L138.84 157.686L141.028 165.572L142.153 157.458L145.426 157.233L143.404 167.239Z" fill="#FFFBE6"/>
<path d="M143.404 167.239C143.25 168.131 143.052 168.905 142.81 169.561C142.568 170.217 142.255 170.793 141.872 171.29C141.489 171.792 141.016 172.181 140.454 172.454C139.899 172.727 139.251 172.889 138.51 172.94C137.809 172.989 137.19 172.953 136.653 172.833L136.48 170.32C136.995 170.415 137.494 170.446 137.974 170.413C138.728 170.361 139.336 170.1 139.8 169.631L135.528 157.914L138.84 157.686L141.028 165.572L142.153 157.458L145.426 157.233L143.404 167.239Z" fill="url(#paint3_radial_168_1705)"/>
<path d="M132.56 162.004C132.511 161.541 132.325 161.186 132.004 160.939C131.683 160.692 131.285 160.564 130.81 160.555C130.231 160.544 129.755 160.744 129.383 161.153C129.01 161.557 128.818 162.09 128.805 162.754C128.792 163.444 128.958 163.994 129.302 164.404C129.652 164.808 130.127 165.016 130.726 165.027C131.214 165.036 131.627 164.904 131.964 164.63C132.308 164.357 132.517 163.954 132.592 163.421L135.951 163.485C135.854 164.857 135.318 165.957 134.346 166.785C133.379 167.613 132.148 168.013 130.65 167.985C129.14 167.957 127.9 167.448 126.929 166.46C125.964 165.465 125.496 164.209 125.525 162.692C125.553 161.176 126.068 159.942 127.069 158.99C128.077 158.032 129.336 157.568 130.846 157.596C132.298 157.624 133.485 158.047 134.407 158.865C135.336 159.683 135.853 160.751 135.958 162.068L132.56 162.004Z" fill="#FFFBE6"/>
<path d="M132.56 162.004C132.511 161.541 132.325 161.186 132.004 160.939C131.683 160.692 131.285 160.564 130.81 160.555C130.231 160.544 129.755 160.744 129.383 161.153C129.01 161.557 128.818 162.09 128.805 162.754C128.792 163.444 128.958 163.994 129.302 164.404C129.652 164.808 130.127 165.016 130.726 165.027C131.214 165.036 131.627 164.904 131.964 164.63C132.308 164.357 132.517 163.954 132.592 163.421L135.951 163.485C135.854 164.857 135.318 165.957 134.346 166.785C133.379 167.613 132.148 168.013 130.65 167.985C129.14 167.957 127.9 167.448 126.929 166.46C125.964 165.465 125.496 164.209 125.525 162.692C125.553 161.176 126.068 159.942 127.069 158.99C128.077 158.032 129.336 157.568 130.846 157.596C132.298 157.624 133.485 158.047 134.407 158.865C135.336 159.683 135.853 160.751 135.958 162.068L132.56 162.004Z" fill="url(#paint4_radial_168_1705)"/>
<path d="M124.582 163.423L119.211 162.864L119.491 160.173L124.862 160.733L124.582 163.423Z" fill="#FFFBE6"/>
<path d="M124.582 163.423L119.211 162.864L119.491 160.173L124.862 160.733L124.582 163.423Z" fill="url(#paint5_radial_168_1705)"/>
<path d="M113.977 166.132L115.702 157.773L112.016 165.728L108.545 165.011L108.306 156.307L106.594 164.609L103.648 164.001L105.668 154.207L111.043 155.316L110.861 162.917L113.702 155.865L119.029 156.964L117.009 166.757L113.977 166.132Z" fill="#FFFBE6"/>
<path d="M113.977 166.132L115.702 157.773L112.016 165.728L108.545 165.011L108.306 156.307L106.594 164.609L103.648 164.001L105.668 154.207L111.043 155.316L110.861 162.917L113.702 155.865L119.029 156.964L117.009 166.757L113.977 166.132Z" fill="url(#paint6_radial_168_1705)"/>
<path d="M103.815 158.906C103.756 159.079 103.658 159.327 103.519 159.651L96.8202 157.36C96.6258 158.532 97.0737 159.305 98.164 159.678C98.9587 159.949 99.5565 159.851 99.9575 159.383L103.053 160.441C102.38 161.422 101.548 162.056 100.555 162.343C99.5626 162.63 98.4626 162.566 97.2553 162.153C95.8261 161.665 94.8096 160.804 94.2057 159.573C93.6079 158.343 93.5556 157.007 94.0486 155.566C94.5416 154.124 95.401 153.101 96.6266 152.495C97.8584 151.891 99.1888 151.833 100.618 152.322C102.047 152.811 103.061 153.67 103.658 154.9C104.256 156.129 104.308 157.465 103.815 158.906ZM99.7646 154.817C98.7544 154.471 97.9624 154.785 97.3886 155.759L101.057 157.013C101.212 155.897 100.781 155.164 99.7646 154.817Z" fill="#FFFBE6"/>
<path d="M103.815 158.906C103.756 159.079 103.658 159.327 103.519 159.651L96.8202 157.36C96.6258 158.532 97.0737 159.305 98.164 159.678C98.9587 159.949 99.5565 159.851 99.9575 159.383L103.053 160.441C102.38 161.422 101.548 162.056 100.555 162.343C99.5626 162.63 98.4626 162.566 97.2553 162.153C95.8261 161.665 94.8096 160.804 94.2057 159.573C93.6079 158.343 93.5556 157.007 94.0486 155.566C94.5416 154.124 95.401 153.101 96.6266 152.495C97.8584 151.891 99.1888 151.833 100.618 152.322C102.047 152.811 103.061 153.67 103.658 154.9C104.256 156.129 104.308 157.465 103.815 158.906ZM99.7646 154.817C98.7544 154.471 97.9624 154.785 97.3886 155.759L101.057 157.013C101.212 155.897 100.781 155.164 99.7646 154.817Z" fill="url(#paint7_radial_168_1705)"/>
<path d="M87.3601 158.185C86.3 157.686 85.6182 156.864 85.3147 155.721L82.6888 161.296L79.6056 159.843L85.9976 146.273L88.9836 147.68L88.4385 148.837C89.5406 148.27 90.6571 148.252 91.7879 148.785C92.9953 149.354 93.7705 150.244 94.1134 151.456C94.465 152.666 94.3065 153.98 93.6379 155.399C92.9693 156.819 92.0556 157.781 90.8966 158.286C89.7464 158.787 88.5675 158.754 87.3601 158.185ZM87.8348 155.138C88.3825 155.396 88.9175 155.421 89.4398 155.214C89.9649 155 90.3689 154.593 90.6518 153.993C90.9348 153.392 90.99 152.824 90.8172 152.289C90.6473 151.749 90.2885 151.35 89.7407 151.091C89.2048 150.839 88.6742 150.819 88.1492 151.033C87.6328 151.243 87.2331 151.648 86.9502 152.249C86.6672 152.85 86.6077 153.419 86.7718 153.957C86.9445 154.492 87.2988 154.885 87.8348 155.138Z" fill="#FFFBE6"/>
<path d="M87.3601 158.185C86.3 157.686 85.6182 156.864 85.3147 155.721L82.6888 161.296L79.6056 159.843L85.9976 146.273L88.9836 147.68L88.4385 148.837C89.5406 148.27 90.6571 148.252 91.7879 148.785C92.9953 149.354 93.7705 150.244 94.1134 151.456C94.465 152.666 94.3065 153.98 93.6379 155.399C92.9693 156.819 92.0556 157.781 90.8966 158.286C89.7464 158.787 88.5675 158.754 87.3601 158.185ZM87.8348 155.138C88.3825 155.396 88.9175 155.421 89.4398 155.214C89.9649 155 90.3689 154.593 90.6518 153.993C90.9348 153.392 90.99 152.824 90.8172 152.289C90.6473 151.749 90.2885 151.35 89.7407 151.091C89.2048 150.839 88.6742 150.819 88.1492 151.033C87.6328 151.243 87.2331 151.648 86.9502 152.249C86.6672 152.85 86.6077 153.419 86.7718 153.957C86.9445 154.492 87.2988 154.885 87.8348 155.138Z" fill="url(#paint8_radial_168_1705)"/>
<path d="M77.4685 152.849L77.6544 146.847L74.9402 151.311L72.028 149.541L77.223 140.996L80.1352 142.767L77.9334 146.388L82.4383 144.167L85.7844 146.201L80.6085 148.323L80.7479 154.842L77.4685 152.849Z" fill="#FFFBE6"/>
<path d="M77.4685 152.849L77.6544 146.847L74.9402 151.311L72.028 149.541L77.223 140.996L80.1352 142.767L77.9334 146.388L82.4383 144.167L85.7844 146.201L80.6085 148.323L80.7479 154.842L77.4685 152.849Z" fill="url(#paint9_radial_168_1705)"/>
<defs>
<radialGradient id="paint0_radial_168_1705" cx="0" cy="0" r="1" gradientTransform="matrix(23.1839 89.4092 -173 -7.33241 92.1281 90.1212)" gradientUnits="userSpaceOnUse">
<stop stop-color="#FA8200"/>
<stop offset="1" stop-color="#E66502"/>
</radialGradient>
<radialGradient id="paint1_radial_168_1705" cx="0" cy="0" r="1" gradientTransform="matrix(20.8434 64.4065 -146.264 -7.68602 100.299 73.4663)" gradientUnits="userSpaceOnUse">
<stop stop-color="#FF8B68"/>
<stop offset="1" stop-color="#FD5624"/>
</radialGradient>
<radialGradient id="paint2_radial_168_1705" cx="0" cy="0" r="1" gradientTransform="matrix(18.4454 28.5029 -117.256 -13.4689 102.63 138.98)" gradientUnits="userSpaceOnUse">
<stop stop-color="#FF8B68"/>
<stop offset="1" stop-color="#FD5624"/>
</radialGradient>
<radialGradient id="paint3_radial_168_1705" cx="0" cy="0" r="1" gradientTransform="matrix(18.4454 28.5029 -117.256 -13.4689 102.63 138.98)" gradientUnits="userSpaceOnUse">
<stop stop-color="#FF8B68"/>
<stop offset="1" stop-color="#FD5624"/>
</radialGradient>
<radialGradient id="paint4_radial_168_1705" cx="0" cy="0" r="1" gradientTransform="matrix(18.4454 28.5029 -117.256 -13.4689 102.63 138.98)" gradientUnits="userSpaceOnUse">
<stop stop-color="#FF8B68"/>
<stop offset="1" stop-color="#FD5624"/>
</radialGradient>
<radialGradient id="paint5_radial_168_1705" cx="0" cy="0" r="1" gradientTransform="matrix(18.4454 28.5029 -117.256 -13.4689 102.63 138.98)" gradientUnits="userSpaceOnUse">
<stop stop-color="#FF8B68"/>
<stop offset="1" stop-color="#FD5624"/>
</radialGradient>
<radialGradient id="paint6_radial_168_1705" cx="0" cy="0" r="1" gradientTransform="matrix(18.4454 28.5029 -117.256 -13.4689 102.63 138.98)" gradientUnits="userSpaceOnUse">
<stop stop-color="#FF8B68"/>
<stop offset="1" stop-color="#FD5624"/>
</radialGradient>
<radialGradient id="paint7_radial_168_1705" cx="0" cy="0" r="1" gradientTransform="matrix(18.4454 28.5029 -117.256 -13.4689 102.63 138.98)" gradientUnits="userSpaceOnUse">
<stop stop-color="#FF8B68"/>
<stop offset="1" stop-color="#FD5624"/>
</radialGradient>
<radialGradient id="paint8_radial_168_1705" cx="0" cy="0" r="1" gradientTransform="matrix(18.4454 28.5029 -117.256 -13.4689 102.63 138.98)" gradientUnits="userSpaceOnUse">
<stop stop-color="#FF8B68"/>
<stop offset="1" stop-color="#FD5624"/>
</radialGradient>
<radialGradient id="paint9_radial_168_1705" cx="0" cy="0" r="1" gradientTransform="matrix(18.4454 28.5029 -117.256 -13.4689 102.63 138.98)" gradientUnits="userSpaceOnUse">
<stop stop-color="#FF8B68"/>
<stop offset="1" stop-color="#FD5624"/>
</radialGradient>
</defs>
</svg>
