<svg width="241" height="284" viewBox="0 0 241 284" fill="none" xmlns="http://www.w3.org/2000/svg">
<path d="M108.907 237.174C109.913 233.975 110.407 231.662 110.642 230.097C110.819 228.923 111.863 228.042 113.015 228.33C118.434 229.683 130.388 233.721 132.192 236.282C138.2 244.807 137.117 252.542 143.66 259.615C150.848 267.385 160.543 271.668 172.438 269.325C177.819 268.264 182.682 265.495 185.501 259.615C187.217 256.037 189.69 252.336 187.856 241.789C186.428 233.578 185.41 227.452 186.963 227.281C187.937 227.173 189.631 227.774 190.829 228.383C198.635 232.356 207.012 236.383 215.934 231.984C226.448 226.801 239.65 220.096 235.174 206.125C234.099 202.771 231.8 196.618 227.083 188.93C224.723 185.084 222.11 181.529 219.095 177.781C212.912 170.092 209.097 165.63 208.458 164.32C207.301 161.945 206.919 159.174 206.031 151.26C204.74 139.755 204.486 128.023 201.94 116.69C198.768 102.572 192.349 97.4641 179.467 90.9927C171.74 87.1108 159.387 81.396 151.563 77.9102C139.205 72.4044 126.519 68.7586 112.789 69.8162C107.261 70.2421 101.428 71.4182 95.9881 73.0836C93.2834 73.9116 86.322 75.0909 75.7344 77.3992C66.8748 79.3307 56.9208 79.4231 48.3204 81.9895C41.814 83.9309 36.6166 86.5398 31.4105 91.2569C27.752 94.5718 22.2734 99.854 19.7288 102.916C9.89943 114.745 5.71317 129.064 5.10128 144.151C4.82423 150.982 5.14661 158.767 5.69165 164.617C6.2367 170.467 6.98183 174.266 8.6699 179.001C10.358 183.736 12.8075 189.294 14.6349 192.696C17.225 197.518 20.7818 200.698 23.4469 204.658C25.7528 208.084 29.6628 213.143 27.4099 216.976C25.4686 220.279 22.8811 222.454 21.975 224.184C19.6946 228.537 12.5512 239.451 14.0142 244.161C15.5544 249.119 17.9955 256.428 19.5198 258.181C20.3742 259.164 26.6479 264.638 36.6349 270.996C41.6566 274.193 47.3877 277.604 55.9142 278.489C62.8116 279.204 67.5574 279.096 70.3139 278.606C75.4134 277.698 84.0191 275.11 87.2142 271.668C89.9482 268.722 94.5827 263.665 98.5567 256.173C102.575 248.598 107.531 241.553 108.907 237.174Z" stroke="#FFFBE6" stroke-width="9" stroke-linecap="round"/>
<path d="M54.6427 79.7788C54.5864 79.7788 45.1929 77.7952 37.3224 77.621C32.1588 77.5068 29.7841 76.5615 27.9405 75.5652C26.5508 74.8141 24.3941 73.2943 21.2184 70.0271C18.0427 66.7599 13.9529 61.7222 11.7697 58.9053C8.71189 54.9601 8.61905 52.4818 8.52054 51.0439C8.48163 50.4758 10.6095 53.0302 13.4706 55.5845C16.6095 58.3868 19.5576 60.1584 23.749 61.5659C26.8314 62.601 32.0297 63.7213 35.3182 64.4404C38.6067 65.1594 39.873 65.2986 43.5579 65.5278C53.3045 66.1341 59.3186 65.9357 58.6061 64.9271C56.5037 61.9506 53.9956 60.0037 51.346 54.7716C49.1593 50.4536 45.7556 42.5185 43.8016 37.9354C40.3738 29.8954 39.4576 25.6059 39.2847 23.9319C39.2279 23.3822 39.8234 23.4584 40.4105 23.9109C41.8569 25.0257 44.0592 28.3502 46.6967 32.0438C48.027 33.9067 52.21 37.6429 59.3662 44.2534C65.9911 50.3732 69.3743 54.3549 70.1817 55.5418C71.3334 57.2349 71.6609 58.4119 72.0421 59.1309C72.4198 59.8434 72.9069 54.9378 73.3842 45.4424C73.6029 41.0929 74.349 37.7342 75.0913 34.6703C75.8336 31.6064 76.6965 28.9489 78.5519 24.7868C80.4073 20.6247 83.229 15.0386 85.2134 11.5919C87.9599 6.82169 89.8107 5.48005 90.6431 5.07957C92.4201 4.22461 92.5789 10.4431 94.3623 14.8925C95.4528 17.6129 98.0633 22.2731 100.193 27.1782C102.322 32.0833 104.101 36.9983 105.123 39.9522C106.145 42.9061 106.355 43.75 106.614 47.0509C107.322 56.074 107.341 62.5521 107 63.6493C106.389 65.6184 105.868 67.0388 105.673 67.93C105.436 69.0095 106.32 65.595 107.241 60.9593C108.053 56.8719 109.805 49.3117 111.132 42.0953C112.459 34.8788 113.369 28.2479 113.995 24.4592C114.621 20.6704 114.936 19.9248 115.301 19.7236C115.667 19.5225 116.074 19.8885 116.323 20.3954C116.848 21.4629 116.913 23.5667 117.876 27.8437C118.537 30.7786 120.039 35.1442 120.875 38.5365C122.253 44.121 122.172 49.8015 121.996 55.3248C121.891 58.6352 121.346 60.0683 121.323 60.4C121.281 61.0322 122.548 59.3191 124.28 57.7619C128.137 54.2944 131.818 50.2216 134.358 46.6116C138.998 40.0158 139.636 37.8262 140.412 36.1827C141.539 33.7989 142.5 32.2764 143.025 31.9875C144.498 31.1772 144.733 34.7043 144.917 38.6385C145.078 42.0656 145.176 48.4052 145.051 52.4998C144.79 61.0147 141.686 64.0348 140.445 65.8915C139.04 67.764 138.269 68.7906 137.889 69.4144C137.691 69.7346 137.484 70.0619 137.003 70.4832" stroke="#FFFBE6" stroke-width="9" stroke-linecap="round"/>
<path d="M83.42 207.166V204.191" stroke="#82AFA2" stroke-width="9" stroke-linecap="round"/>
<path d="M47.2183 245.493C47.2183 245.466 47.2183 245.438 47.3069 245.25C47.3956 245.062 47.5728 244.714 48.1594 243.36" stroke="#82AFA2" stroke-width="9" stroke-linecap="round"/>
<path d="M165.705 248.605C165.705 248.577 165.705 248.55 165.616 248.362C165.528 248.173 165.35 247.825 164.764 246.472" stroke="#82AFA2" stroke-width="9" stroke-linecap="round"/>
<path d="M207.912 196.421C207.912 196.394 207.912 196.366 207.823 196.178C207.734 195.99 207.557 195.642 206.971 194.288" stroke="#82AFA2" stroke-width="9" stroke-linecap="round"/>
<path d="M47 167.494C47.0295 167.494 47.0589 167.494 47.0741 166.948C47.0893 166.402 47.0893 165.311 47.3699 164" stroke="#82AFA2" stroke-width="9" stroke-linecap="round"/>
<path d="M175.901 118.915C175.901 118.888 175.901 118.86 175.901 118.231C175.901 117.603 175.901 116.373 175.881 115.453C175.86 114.532 175.819 113.957 175.507 114.398" stroke="#82AFA2" stroke-width="9" stroke-linecap="round"/>
<path d="M158 189.16V183.999" stroke="#82AFA2" stroke-width="9" stroke-linecap="round"/>
<path d="M106 164.449V161" stroke="#82AFA2" stroke-width="9" stroke-linecap="round"/>
<path d="M58.2505 112.351C58.2505 112.296 58.2505 111.681 58.3188 110.601C58.3871 110.106 58.5236 109.721 58.7769 109.353C59.0301 108.985 59.3959 108.647 60.4473 107.728" stroke="#82AFA2" stroke-width="9" stroke-linecap="round"/>
<path d="M121 108.445C121.029 108.445 121.057 108.445 121.072 107.996C121.086 107.547 121.086 106.65 121.134 106.008C121.182 105.366 121.278 105.007 121.377 103.999" stroke="#82AFA2" stroke-width="9" stroke-linecap="round"/>
</svg>
