<svg width="244" height="206" viewBox="0 0 244 206" fill="none" xmlns="http://www.w3.org/2000/svg">
<path d="M81.9794 14.1248L107.184 27.5263L243.754 99.5017L187.595 205.123L51.0243 133.147L25.8198 119.746L15.9304 77.5384L41.4575 29.529L81.9794 14.1248ZM56.5393 68.3399C52.8739 75.2338 55.4916 83.7937 62.3854 87.4592C69.2792 91.1244 77.8386 88.5076 81.5042 81.614C85.1697 74.7202 82.5531 66.16 75.6594 62.4943C68.7656 58.8288 60.2049 61.4461 56.5393 68.3399Z" fill="#FFFBE6"/>
<path d="M55.9155 68.9468C56.1781 69.0841 58.3014 70.1738 60.764 71.2316C68.2569 74.4499 70.2654 66.1472 63.5635 62.6423C61.7464 61.692 51.5721 56.5261 36.2924 49.7872C29.0106 46.5756 26.5356 45.9948 25.0429 45.868C21.322 45.552 18.5072 48.6864 22.12 50.9686C23.4687 51.8205 26.0681 53.0333 27.9667 54.0262" stroke="#82AFA2" stroke-width="3"/>
</svg>
